<svg xmlns="http://www.w3.org/2000/svg" viewBox="0 0 137.73 14.49"><defs><style>.cls-1{fill:#1172ba;}</style></defs><g id="Layer_2" data-name="Layer 2"><g id="Layer_1-2" data-name="Layer 1"><g id="email"><path class="cls-1" d="M.89,2.45A.85.85,0,0,1,.26,2.2.85.85,0,0,1,0,1.59.83.83,0,0,1,.26,1,.86.86,0,0,1,.89.73a.83.83,0,0,1,.6.26.8.8,0,0,1,.27.6.82.82,0,0,1-.27.61A.82.82,0,0,1,.89,2.45Zm-.6,9.88V4H1.47v8.35Z"/><path class="cls-1" d="M7.9,3.83a3.69,3.69,0,0,1,2.65.89,3.41,3.41,0,0,1,.92,2.56v5.05H10.29V7.81a3.35,3.35,0,0,0-.56-2.16A2.3,2.3,0,0,0,7.9,5a2.62,2.62,0,0,0-2,.77,2.88,2.88,0,0,0-.73,2.08v4.48H4V4H5.05l.1,1.15A3.43,3.43,0,0,1,7.9,3.83Z"/><path class="cls-1" d="M16.61,1.14a.93.93,0,0,0-.82.34,1.27,1.27,0,0,0-.25.78V4h2.1V5.12h-2.1v7.21H14.35V5.12H12.9V4h1.45V2.3A2.33,2.33,0,0,1,15,.63,2.16,2.16,0,0,1,16.61,0a3.13,3.13,0,0,1,.77.09,4.49,4.49,0,0,1,.74.27l-.46,1.06a2.57,2.57,0,0,0-.49-.22A2.29,2.29,0,0,0,16.61,1.14Z"/><path class="cls-1" d="M23.05,12.48A4.32,4.32,0,0,1,20,11.22a4.29,4.29,0,0,1-.92-1.37,4.16,4.16,0,0,1-.34-1.7,4.2,4.2,0,0,1,.34-1.7A4.14,4.14,0,0,1,20,5.09a4.29,4.29,0,0,1,1.37-.92,4.25,4.25,0,0,1,1.71-.34,4.16,4.16,0,0,1,1.7.34,4.23,4.23,0,0,1,1.38.92,4.3,4.3,0,0,1,.92,1.36,4.33,4.33,0,0,1-4,6Zm0-1.19a3.14,3.14,0,0,0,1.23-.24,3.07,3.07,0,0,0,1-.66,3.22,3.22,0,0,0,.66-1,3.12,3.12,0,0,0,.24-1.24,3.24,3.24,0,0,0-.24-1.25,3.11,3.11,0,0,0-.66-1,2.91,2.91,0,0,0-1-.66,3.27,3.27,0,0,0-2.46,0,2.91,2.91,0,0,0-1,.66,3,3,0,0,0-.67,1,3.24,3.24,0,0,0-.24,1.25,3.12,3.12,0,0,0,.24,1.24,3.07,3.07,0,0,0,1.66,1.66A3.14,3.14,0,0,0,23.05,11.29Z"/><path class="cls-1" d="M36,1.05a7.47,7.47,0,0,1,2.62.44,6.31,6.31,0,0,1,2.08,1.22A5.68,5.68,0,0,1,42,4.56a5.29,5.29,0,0,1,.51,2.32,5.27,5.27,0,0,1-.26,1.67,4.21,4.21,0,0,1-.7,1.33,3.13,3.13,0,0,1-1.08.87,2.91,2.91,0,0,1-1.34.32h-1L38,10.32a3.1,3.1,0,0,1-.94.67,3,3,0,0,1-1.34.29,3.71,3.71,0,0,1-1.4-.26,3.4,3.4,0,0,1-1.11-.73,3.23,3.23,0,0,1-.72-1.11,3.89,3.89,0,0,1-.25-1.42,3.8,3.8,0,0,1,.25-1.41,3.13,3.13,0,0,1,.72-1.11,3.25,3.25,0,0,1,1.11-.73,3.71,3.71,0,0,1,1.4-.26,3,3,0,0,1,1.34.28,3.12,3.12,0,0,1,.94.68l.15-.75h1V9.9A1.56,1.56,0,0,0,40,9.67,2.14,2.14,0,0,0,40.67,9a3.41,3.41,0,0,0,.44-.94,4,4,0,0,0,.17-1.16,4.37,4.37,0,0,0-.41-1.87,4.65,4.65,0,0,0-1.11-1.49,5.09,5.09,0,0,0-1.67-1A5.86,5.86,0,0,0,36,2.21a6.1,6.1,0,0,0-2.29.43,5.43,5.43,0,0,0-3,2.92,5.6,5.6,0,0,0-.43,2.22,5.38,5.38,0,0,0,.43,2.16,5.82,5.82,0,0,0,1.19,1.76,5.26,5.26,0,0,0,1.77,1.19,5.38,5.38,0,0,0,2.16.44,5.67,5.67,0,0,0,1.12-.11,3.94,3.94,0,0,0,1-.31L38.42,14a7,7,0,0,1-2.61.52,6.86,6.86,0,0,1-4.83-2,6.5,6.5,0,0,1-2-4.73A6.6,6.6,0,0,1,31,3a7.05,7.05,0,0,1,5-1.95Zm-.2,9.11a2.27,2.27,0,0,0,.91-.18,2.39,2.39,0,0,0,.72-.5,2.51,2.51,0,0,0,.48-.77,2.67,2.67,0,0,0,.17-1,2.71,2.71,0,0,0-.17-1,2.46,2.46,0,0,0-.48-.76,2.39,2.39,0,0,0-.72-.5,2.39,2.39,0,0,0-1.82,0,2.39,2.39,0,0,0-.72.5,2.46,2.46,0,0,0-.48.76,2.63,2.63,0,0,0-.17,1,2.67,2.67,0,0,0,.17,1,2.51,2.51,0,0,0,.48.77,2.39,2.39,0,0,0,.72.5A2.27,2.27,0,0,0,35.75,10.16Z"/><path class="cls-1" d="M50.31,4h1.33l-4.13,8.5L43.33,4h1.34l2.82,5.8Z"/><path class="cls-1" d="M60.36,7.61v.56a.41.41,0,0,1,0,.12s0,.06,0,.09H53.56a3.05,3.05,0,0,0,.28,1.18,3,3,0,0,0,.68.92,3.28,3.28,0,0,0,1,.6,3.53,3.53,0,0,0,1.23.21,3.75,3.75,0,0,0,1.34-.24,3,3,0,0,0,1.05-.68l.79.88a3.7,3.7,0,0,1-1.39.91,4.93,4.93,0,0,1-1.8.32A4.51,4.51,0,0,1,55,12.15a4.15,4.15,0,0,1-1.38-.89,4.22,4.22,0,0,1-.91-1.36,4.37,4.37,0,0,1-.33-1.7,4.42,4.42,0,0,1,.33-1.71,4.34,4.34,0,0,1,.9-1.38,4.17,4.17,0,0,1,1.33-.94,4.24,4.24,0,0,1,3.18-.06,3.37,3.37,0,0,1,1.2.78,3.46,3.46,0,0,1,.78,1.2A4,4,0,0,1,60.36,7.61Zm-1.2-.28a2.17,2.17,0,0,0-.2-.92,2.51,2.51,0,0,0-.55-.74,2.53,2.53,0,0,0-.83-.49,2.88,2.88,0,0,0-1-.18,2.7,2.7,0,0,0-1,.17,2.64,2.64,0,0,0-.85.48,3.29,3.29,0,0,0-.65.74,3.18,3.18,0,0,0-.42.94Z"/><path class="cls-1" d="M69.32,4H70.4v8.35H69.32L69.2,11a3.79,3.79,0,0,1-1.32,1.08,3.71,3.71,0,0,1-1.66.38,4.43,4.43,0,0,1-1.72-.34,4.39,4.39,0,0,1-1.38-.92,4.29,4.29,0,0,1-.92-1.37,4.16,4.16,0,0,1-.34-1.7,4.2,4.2,0,0,1,.34-1.7,4.14,4.14,0,0,1,.92-1.36,4.37,4.37,0,0,1,3.1-1.26,3.71,3.71,0,0,1,1.66.37A3.79,3.79,0,0,1,69.2,5.28ZM66.2,11.29a3.06,3.06,0,0,0,2.2-.9,3.38,3.38,0,0,0,.65-1,3.3,3.3,0,0,0,.23-1.24A3.24,3.24,0,0,0,69,6.9a3.11,3.11,0,0,0-.66-1,2.79,2.79,0,0,0-1-.66A3.05,3.05,0,0,0,66.2,5,3.14,3.14,0,0,0,65,5.24a2.91,2.91,0,0,0-1,.66,3.11,3.11,0,0,0-.66,1,3.24,3.24,0,0,0-.24,1.25,3.2,3.2,0,0,0,.24,1.25,3,3,0,0,0,.66,1,3,3,0,0,0,1,.65A3.14,3.14,0,0,0,66.2,11.29Z"/><path class="cls-1" d="M75.57,12.48a5.48,5.48,0,0,1-1.79-.31,4.34,4.34,0,0,1-1.45-.83l.63-1a4.19,4.19,0,0,0,1.26.72,3.79,3.79,0,0,0,1.35.25c1.33,0,2-.43,2-1.27a1,1,0,0,0-.45-.89,4.05,4.05,0,0,0-1.49-.53,4.82,4.82,0,0,1-2.22-.91,2,2,0,0,1-.68-1.62A2,2,0,0,1,73,5.18a2.1,2.1,0,0,1,.61-.72,3,3,0,0,1,1-.47,4.53,4.53,0,0,1,1.26-.16A5.23,5.23,0,0,1,77.21,4a4,4,0,0,1,1.23.53l-.63,1a3.25,3.25,0,0,0-.93-.43A4.43,4.43,0,0,0,75.79,5a2.5,2.5,0,0,0-1.35.31,1,1,0,0,0-.51.84,1.16,1.16,0,0,0,.09.47,1,1,0,0,0,.32.36,2.68,2.68,0,0,0,.61.29,9.44,9.44,0,0,0,1,.27,4.75,4.75,0,0,1,2.14.94,2.08,2.08,0,0,1,.67,1.62,2.09,2.09,0,0,1-.86,1.76A3.8,3.8,0,0,1,75.57,12.48Z"/><path class="cls-1" d="M81.23,12.48a.86.86,0,0,1-.63-.26.83.83,0,0,1-.26-.61A.85.85,0,0,1,80.6,11a.89.89,0,0,1,1.24,0,.85.85,0,0,1,.26.62.83.83,0,0,1-.26.61A.87.87,0,0,1,81.23,12.48Z"/><path class="cls-1" d="M88.17,12.48a4.47,4.47,0,0,1-1.72-.34A4.53,4.53,0,0,1,85,11.22a4.35,4.35,0,0,1-.94-1.37A4.27,4.27,0,0,1,85,5.09a4.36,4.36,0,0,1,1.41-.92,4.29,4.29,0,0,1,1.72-.34,4.21,4.21,0,0,1,1.59.28,3.93,3.93,0,0,1,1.29.8l-.8.88a3.67,3.67,0,0,0-1-.58A3.06,3.06,0,0,0,88.17,5a3.27,3.27,0,0,0-1.25.24,3,3,0,0,0-1,.66,3,3,0,0,0-.68,1A3.07,3.07,0,0,0,85,8.15a3,3,0,0,0,.25,1.25,2.91,2.91,0,0,0,.68,1,3.18,3.18,0,0,0,1,.65,3.27,3.27,0,0,0,1.25.24,3.13,3.13,0,0,0,1.15-.21,3.36,3.36,0,0,0,1-.58l.81.87a4.07,4.07,0,0,1-1.3.81A4.2,4.2,0,0,1,88.17,12.48Z"/><path class="cls-1" d="M96.77,12.48a4.34,4.34,0,0,1-1.7-.34,4.39,4.39,0,0,1-1.38-.92,4.29,4.29,0,0,1-.92-1.37,4.16,4.16,0,0,1-.34-1.7,4.2,4.2,0,0,1,.34-1.7,4.14,4.14,0,0,1,.92-1.36,4.23,4.23,0,0,1,1.38-.92,4.42,4.42,0,0,1,3.4,0,4.23,4.23,0,0,1,1.38.92,4.14,4.14,0,0,1,.92,1.36,4.2,4.2,0,0,1,.34,1.7,4.37,4.37,0,0,1-1.26,3.07,4.39,4.39,0,0,1-1.38.92A4.34,4.34,0,0,1,96.77,12.48Zm0-1.19A3.14,3.14,0,0,0,98,11.05a3.07,3.07,0,0,0,1-.66,3.22,3.22,0,0,0,.66-1,3.12,3.12,0,0,0,.24-1.24,3.24,3.24,0,0,0-.24-1.25,3.11,3.11,0,0,0-.66-1,2.91,2.91,0,0,0-1-.66,3.27,3.27,0,0,0-2.46,0,2.91,2.91,0,0,0-1,.66,3.11,3.11,0,0,0-.66,1,3.24,3.24,0,0,0-.24,1.25,3.12,3.12,0,0,0,.24,1.24,3.22,3.22,0,0,0,.66,1,3.07,3.07,0,0,0,1,.66A3.14,3.14,0,0,0,96.77,11.29Z"/><path class="cls-1" d="M103.11,12.33V4h1.08l.09,1.12a3.22,3.22,0,0,1,2.65-1.27,2.86,2.86,0,0,1,2.89,1.6A3,3,0,0,1,111,4.26a3.58,3.58,0,0,1,1.78-.43,3.08,3.08,0,0,1,2.37.91A3.58,3.58,0,0,1,116,7.28v5.05h-1.18V7.81a3.47,3.47,0,0,0-.53-2.13A1.92,1.92,0,0,0,112.68,5a2.35,2.35,0,0,0-1.86.74,3.1,3.1,0,0,0-.66,2.11v4.48H109V7.81a3.47,3.47,0,0,0-.53-2.13A1.93,1.93,0,0,0,106.81,5a2.38,2.38,0,0,0-1.87.74,3.15,3.15,0,0,0-.65,2.11v4.48Z"/><path class="cls-1" d="M119,12.48a.86.86,0,0,1-.63-.26.83.83,0,0,1-.26-.61.85.85,0,0,1,.26-.62.89.89,0,0,1,.63-.25.86.86,0,0,1,.6.25.83.83,0,0,1,.27.62.8.8,0,0,1-.27.61A.83.83,0,0,1,119,12.48Z"/><path class="cls-1" d="M127.68,4H129l-4.13,8.5L120.7,4H122l2.82,5.8Z"/><path class="cls-1" d="M134.16,3.83a3.69,3.69,0,0,1,2.65.89,3.41,3.41,0,0,1,.92,2.56v5.05h-1.19V7.81A3.35,3.35,0,0,0,136,5.65,2.3,2.3,0,0,0,134.16,5a2.6,2.6,0,0,0-2,.77,2.88,2.88,0,0,0-.73,2.08v4.48h-1.19V4h1.08l.11,1.15a3.43,3.43,0,0,1,2.75-1.3Z"/></g></g></g></svg>