<svg xmlns="http://www.w3.org/2000/svg" viewBox="0 0 134.93 29"><defs><style>.cls-1{fill:#37a048;}.cls-2,.cls-3{fill:#fff;}.cls-2{fill-rule:evenodd;}.cls-4{fill:#1172ba;}</style></defs><g id="Layer_2" data-name="Layer 2"><g id="Layer_1-2" data-name="Layer 1"><g id="ban_tổ_chức" data-name="ban tổ chức"><rect class="cls-1" x="94.47" width="40.46" height="29"/><path class="cls-2" d="M114.08,19.08l1.31-6.58,1.28,6.58ZM122,13a22.13,22.13,0,0,1-1.78-2c-.61-1.06-.5-2.62.92-3a4.09,4.09,0,0,1,2.19.38c.37.12.4.17.45-.24s0-.76,0-1.08,0-.4-.35-.57a4.11,4.11,0,0,0-5.33,1.06c-1,1.57-.53,3.81,1.08,5.75,1,1.21,2.35,2.65,2.53,3.62.46,2-.81,2.49-2.84,2.21L116.32,9h-1.88L111.9,19.08h-2.39v-5h3.26V12.34h-3.26V7.94h3.43V6.23h-2.28l.07-.08h-3.41v4.19l.05-.06v10c0,.41.06.49.45.49h3.65l-.21.81c-.08.28-.07.39.16.4H113c.46,0,.49,0,.58-.37l.16-.84H117l.17.87c0,.22.07.33.39.34h1.72c.32,0,.34-.1.27-.31l-.15-.59c2.44.23,3.82-.24,4.69-2.31.67-1.87-.28-3.88-2.11-5.82"/><path class="cls-3" d="M112.29.26l0,.38-.2.14-.41,0c-.1,0-.16.2-.2.5a3.15,3.15,0,0,0-.91.72c-.15.21-.3.4-.46.59-.52.46-.78.76-.78.89a.6.6,0,0,1-.26.43c-.17.14-.26.26-.26.35s.08.18.26.24c0,.16-.11.24-.2.24l-.4,0a1.39,1.39,0,0,1-.28.21h0l.07.27s-.08.07-.22.14a.39.39,0,0,0-.22.39c-.17.18-.26.29-.26.34v.29l-.1.07a.36.36,0,0,0-.16-.12,4.49,4.49,0,0,0-.72.82,4.41,4.41,0,0,0-.66.93c0,.11.07.18.22.21s.23.12.23.24-.08.12-.22.21c0-.14-.06-.21-.1-.21a.8.8,0,0,0-.55.31h-.07c-.13,0-.23.11-.31.31a4.36,4.36,0,0,1-.64,1,5.08,5.08,0,0,0-.65,1,4.51,4.51,0,0,1-.49.85,1.69,1.69,0,0,0-.36,1s0,.08,0,.08a.45.45,0,0,1,.2.39c0,.13,0,.19-.14.19s-.06,0-.1-.11a.25.25,0,0,0-.25-.12c-.06,0-.13.08-.19.24a5.65,5.65,0,0,1-.37.68c-.39.33-.59.62-.59.87L101,16l-1,1.68a3.72,3.72,0,0,1-.69.86.56.56,0,0,0-.32.41.72.72,0,0,1-.25.42,1,1,0,0,0-.32.31.59.59,0,0,1-.35.25L98,20a.35.35,0,0,1-.07-.21,2.9,2.9,0,0,0,0-.45.73.73,0,0,0,.07-.25l0-.29v-.23a1,1,0,0,1,.12-.4,3,3,0,0,0,.19-.68,1.84,1.84,0,0,1,.13-.53l.12-.22v-.51l.34-.66.1-.47c.19-.41.32-.71.39-.88l.76-2.18a1.61,1.61,0,0,0,.2-.77c0-.07.08-.16.24-.24s.29-.39.38-.9l.27-.46a1.13,1.13,0,0,0,.22-.31A2.67,2.67,0,0,1,102,8.17l.35-.64a1.12,1.12,0,0,0,.2-.51l.17-.32a1.18,1.18,0,0,1,.2-.48c.09-.11.3-.46.64-1A3.45,3.45,0,0,0,104,4.1a.48.48,0,0,0,0-.18c.3-.12.45-.54.45-1.28a1.11,1.11,0,0,0-.53-1c-.36-.22-.59-.31-.69-.26L99.61,3a1.11,1.11,0,0,0-.55.32l-.17.16a1.86,1.86,0,0,0-.78.53,1,1,0,0,1-.51.39.73.73,0,0,0-.44.36.73.73,0,0,1-.4.35,2.09,2.09,0,0,0-.59.66c-.09,0-.29.13-.61.42l-.43.41a5,5,0,0,0-.66.68V8.67a1,1,0,0,0,.85.36.86.86,0,0,0,.91-.77,5.09,5.09,0,0,1,.26-.92l.25-.42a3,3,0,0,1,.63-.68c.3-.27.71-.6,1.22-1l.48-.41c.28-.4.51-.61.69-.61h.31l.07-.08a1,1,0,0,1,.78-.5.32.32,0,0,1,.13.29s-.06.19-.17.48l0,.21a.49.49,0,0,1-.13.25l-.19.27a5.31,5.31,0,0,1-.47,1.31,2.23,2.23,0,0,0-.32.81l.1.29c-.2,0-.3.17-.3.52a1.28,1.28,0,0,0-.52.84l0,.1c.15.1.22.2.22.29s-.14.14-.39.14c0,0-.07.09-.11.26a3.11,3.11,0,0,1-.41.78,2.51,2.51,0,0,0-.4.85.79.79,0,0,1-.2.45.55.55,0,0,0-.14.37,1,1,0,0,1-.1.42.72.72,0,0,0-.08.35,1.17,1.17,0,0,0,0,.29c-.25,0-.37.16-.37.37l0,.5c0,.09-.08.18-.25.26a1.17,1.17,0,0,0-.13.44l.06.26a2.07,2.07,0,0,1-.1.5,1.07,1.07,0,0,0-.17.7.31.31,0,0,1-.13.2.36.36,0,0,0-.13.25.49.49,0,0,0,.08.23.37.37,0,0,1,.07.16v0a8.38,8.38,0,0,0-.19,1,6.24,6.24,0,0,0,.35,1.8c.24.72.47,1.14.69,1.25,0,0,.06,0,.12.1a1.61,1.61,0,0,0,.31.26l.51.38a.72.72,0,0,1,.28,0,1.47,1.47,0,0,0,1.21-.65c.21,0,.33-.07.35-.2a.67.67,0,0,1,.2-.38l.39-.52c0-.39.13-.57.4-.57l1.3-1.87.58-1.05c.4-.54.61-.83.66-.87v-.23l.1-.25A.32.32,0,0,0,104,15a.62.62,0,0,1,.18-.33.65.65,0,0,0,.17-.2s0-.11.16-.24a5.49,5.49,0,0,0,.49-.56s0-.11.07-.26l.17-.15a2,2,0,0,0,.23-.53.63.63,0,0,0,.39-.39,1.1,1.1,0,0,1,.2-.37l.1-.16a1.12,1.12,0,0,1,.18-.29l.3,0c.08,0,.15-.15.22-.46a1.25,1.25,0,0,1,.26-.63.42.42,0,0,0,.34-.44,3.19,3.19,0,0,1,.38-.45l.27-.17.13-.18a5.8,5.8,0,0,0,.39-.54,1.84,1.84,0,0,1,.58-.6l.17-.35a1.66,1.66,0,0,0,.25-.33c0-.06.08-.13.2-.22a2.49,2.49,0,0,0,.45-.49c.16-.23.35-.48.57-.74H111l.07-.07a1.16,1.16,0,0,1,.55-.65,2.62,2.62,0,0,0,.72-.6A4.19,4.19,0,0,1,113,4a3.6,3.6,0,0,0,.48-.47,1.9,1.9,0,0,1,.23-.27V3.12l0-.06h.2L114,3a1.6,1.6,0,0,1,.71-.36,3.19,3.19,0,0,0,.66-.21l.21,0c.18,0,.41-.19.69-.56a1.8,1.8,0,0,0,.43-1.07l0-.59c0-.06,0-.14,0-.22h-4l-.38.26"/><path class="cls-4" d="M5.75,17.78a2.57,2.57,0,0,1,1.49.92,2.71,2.71,0,0,1,.53,1.69,2.83,2.83,0,0,1-.27,1.25,2.59,2.59,0,0,1-.74,1,3.54,3.54,0,0,1-1.14.61,5,5,0,0,1-1.5.22H0V13H3.81a4,4,0,0,1,1.28.2,2.89,2.89,0,0,1,1,.58,2.55,2.55,0,0,1,.65.88A2.66,2.66,0,0,1,7,15.77,2.26,2.26,0,0,1,6.63,17,2.07,2.07,0,0,1,5.75,17.78Zm-.37-2a1.27,1.27,0,0,0-.43-1,1.78,1.78,0,0,0-1.2-.38H1.56v2.9H3.72a1.76,1.76,0,0,0,1.2-.41A1.36,1.36,0,0,0,5.38,15.82ZM4.1,22a2.41,2.41,0,0,0,1.52-.41,1.44,1.44,0,0,0,.52-1.2,1.53,1.53,0,0,0-.47-1.2,1.82,1.82,0,0,0-1.29-.44H1.56V22Z"/><path class="cls-4" d="M15.85,15.48h1.34v8H15.85l-.14-1a3.63,3.63,0,0,1-1.16.85,3.44,3.44,0,0,1-1.47.32,4.08,4.08,0,0,1-1.6-.32,4,4,0,0,1-1.29-.88,4.06,4.06,0,0,1-.87-1.31,4.17,4.17,0,0,1,.87-4.53,4.05,4.05,0,0,1,2.89-1.19,3.44,3.44,0,0,1,1.47.32,3.51,3.51,0,0,1,1.16.86Zm-2.72,6.6a2.7,2.7,0,0,0,1-.2,2.36,2.36,0,0,0,.83-.55,2.48,2.48,0,0,0,.54-.83,2.83,2.83,0,0,0,0-2.09,2.53,2.53,0,0,0-.54-.84,2.55,2.55,0,0,0-1.86-.74,2.64,2.64,0,0,0-1,.19,2.67,2.67,0,0,0-.83.55,2.53,2.53,0,0,0-.54.84,2.83,2.83,0,0,0,0,2.09,2.48,2.48,0,0,0,.54.83,2.36,2.36,0,0,0,.83.55A2.65,2.65,0,0,0,13.13,22.08Z"/><path class="cls-4" d="M23.34,15.34a3.45,3.45,0,0,1,2.53.87,3.34,3.34,0,0,1,.88,2.47v4.75H25.24V19.26a2.94,2.94,0,0,0-.47-1.87,2,2,0,0,0-1.56-.56,2.25,2.25,0,0,0-1.71.64,2.55,2.55,0,0,0-.6,1.83v4.13H19.39V15.48h1.33l.12.91A3.35,3.35,0,0,1,22,15.6,3.66,3.66,0,0,1,23.34,15.34Z"/><path class="cls-4" d="M37.94,23.15a2.85,2.85,0,0,1-.81.32,4.59,4.59,0,0,1-.9.1,2.29,2.29,0,0,1-1.71-.64,2.38,2.38,0,0,1-.61-1.72V16.9H32.62V15.48h1.29V14l1.52-.28v1.74H37.6V16.9H35.43V21a1.31,1.31,0,0,0,.22.82.84.84,0,0,0,.72.3,2,2,0,0,0,.51-.06,1.82,1.82,0,0,0,.45-.21Z"/><path class="cls-4" d="M42.91,23.57a4.23,4.23,0,0,1-1.63-.32,4.1,4.1,0,0,1-2.51-3.8,3.92,3.92,0,0,1,.32-1.61,4,4,0,0,1,2.19-2.18,4.13,4.13,0,0,1,5.46,2.18,4.11,4.11,0,0,1-2.2,5.41A4.19,4.19,0,0,1,42.91,23.57Zm0-1.49a2.57,2.57,0,0,0,1.86-.76,2.36,2.36,0,0,0,.55-.83,2.71,2.71,0,0,0,.2-1,2.75,2.75,0,0,0-.2-1,2.42,2.42,0,0,0-.55-.82,2.53,2.53,0,0,0-.83-.56,2.7,2.7,0,0,0-1-.2,2.74,2.74,0,0,0-1,.2,2.64,2.64,0,0,0-.83.56,2.57,2.57,0,0,0-.55.82,2.75,2.75,0,0,0-.2,1,2.71,2.71,0,0,0,.2,1,2.51,2.51,0,0,0,.55.83,2.82,2.82,0,0,0,.83.56A2.74,2.74,0,0,0,42.91,22.08Zm-1.65-7.47-.79-.94,2.44-2.16,2.44,2.16-.79.94-1.65-1.45Zm3.51-5.45a1.64,1.64,0,0,1,1.08.36,1.12,1.12,0,0,1,.43.91,1.37,1.37,0,0,1-.1.54,1.92,1.92,0,0,1-.25.47,4.17,4.17,0,0,1-.34.38c-.12.11-.24.22-.37.32h-1a4.13,4.13,0,0,0,.55-.65,1.44,1.44,0,0,0,.19-.77.31.31,0,0,0-.16-.29.55.55,0,0,0-.32-.1,1.27,1.27,0,0,0-.28,0,1.61,1.61,0,0,0-.33.16l-.43-.92a1.93,1.93,0,0,1,.66-.35A2.34,2.34,0,0,1,44.77,9.16Z"/><path class="cls-4" d="M57.29,23.57a4.33,4.33,0,0,1-1.65-.32,4.14,4.14,0,0,1-1.33-.87,4,4,0,0,1-.91-1.3,4.06,4.06,0,0,1-.33-1.63,3.93,3.93,0,0,1,.33-1.61,4.17,4.17,0,0,1,2.24-2.18,4.33,4.33,0,0,1,1.65-.32,4.22,4.22,0,0,1,1.57.29,3.86,3.86,0,0,1,1.26.82l-1,1.08a2.84,2.84,0,0,0-.81-.51,2.52,2.52,0,0,0-1-.19,2.65,2.65,0,0,0-1.9.74,2.68,2.68,0,0,0-.57,2.93,2.56,2.56,0,0,0,.57.83,2.45,2.45,0,0,0,.85.55,2.77,2.77,0,0,0,1,.2,2.52,2.52,0,0,0,1-.19,3.08,3.08,0,0,0,.81-.51l1,1.08a4,4,0,0,1-1.26.82A4.22,4.22,0,0,1,57.29,23.57Z"/><path class="cls-4" d="M65.69,15.34a3.43,3.43,0,0,1,2.52.87,3.3,3.3,0,0,1,.89,2.47v4.75H67.59V19.26a2.94,2.94,0,0,0-.47-1.87,2,2,0,0,0-1.56-.56,2.25,2.25,0,0,0-1.71.64,2.55,2.55,0,0,0-.6,1.83v4.13H61.74V12h1.51v4.36A3.28,3.28,0,0,1,65.69,15.34Z"/><path class="cls-4" d="M77,22.5a3.43,3.43,0,0,1-1.15.79,3.51,3.51,0,0,1-1.41.28A3.3,3.3,0,0,1,72,22.7a3.36,3.36,0,0,1-.86-2.47V15.48h1.51v4.17a2.94,2.94,0,0,0,.47,1.87,1.93,1.93,0,0,0,1.56.57,2.17,2.17,0,0,0,1.69-.64,2.61,2.61,0,0,0,.6-1.84V15.48h.83a.24.24,0,0,0,.26-.2,2.6,2.6,0,0,0,0-.36v-.56h1.54V15a2.4,2.4,0,0,1-.27,1.14,3.39,3.39,0,0,1-.89,1v6.31H77.13Zm-2.45-7.92-1-.76,1.85-2.37.93.76Z"/><path class="cls-4" d="M84.85,23.57a4.28,4.28,0,0,1-1.64-.32,4.19,4.19,0,0,1-1.34-.87,4,4,0,0,1-1.23-2.93A3.93,3.93,0,0,1,81,17.84a4.25,4.25,0,0,1,.9-1.31,4.19,4.19,0,0,1,1.34-.87,4.28,4.28,0,0,1,1.64-.32,4.18,4.18,0,0,1,1.57.29,3.66,3.66,0,0,1,1.26.82l-1,1.08a2.59,2.59,0,0,0-.81-.51,2.48,2.48,0,0,0-1-.19,2.76,2.76,0,0,0-1,.19,2.84,2.84,0,0,0-.84.55,2.8,2.8,0,0,0-.58.84,2.71,2.71,0,0,0,0,2.09,2.75,2.75,0,0,0,.58.83,2.5,2.5,0,0,0,.84.55,2.77,2.77,0,0,0,1,.2,2.48,2.48,0,0,0,1-.19,2.79,2.79,0,0,0,.81-.51l1,1.08a3.81,3.81,0,0,1-1.26.82A4.18,4.18,0,0,1,84.85,23.57Z"/></g></g></g></svg>