<svg xmlns="http://www.w3.org/2000/svg" viewBox="0 0 940.91 33.03"><defs><style>.cls-1{fill:#fff;}</style></defs><g id="Layer_2" data-name="Layer 2"><g id="Layer_1-2" data-name="Layer 1"><path class="cls-1" d="M7.72,27.27a7.71,7.71,0,0,1-3-.59A7.3,7.3,0,0,1,.59,22.6a8.18,8.18,0,0,1,0-6.1A7.63,7.63,0,0,1,2.21,14a7.52,7.52,0,0,1,2.46-1.62,7.89,7.89,0,0,1,3.05-.59,7.51,7.51,0,0,1,3.21.7,7.65,7.65,0,0,1,2.62,2L11.87,16A5.21,5.21,0,0,0,10,14.53,5.34,5.34,0,0,0,7.72,14a5.55,5.55,0,0,0-2.19.42,5.14,5.14,0,0,0-1.72,1.15,5.49,5.49,0,0,0-1.13,1.75,6.19,6.19,0,0,0,0,4.43,5.29,5.29,0,0,0,1.14,1.76,5.14,5.14,0,0,0,1.73,1.15,5.52,5.52,0,0,0,2.17.42A5.14,5.14,0,0,0,10,24.57a5.37,5.37,0,0,0,1.87-1.44l1.68,1.47a7.65,7.65,0,0,1-2.62,2A7.51,7.51,0,0,1,7.72,27.27Z"/><path class="cls-1" d="M21.43,15.43A4.87,4.87,0,0,1,25,16.68a4.84,4.84,0,0,1,1.24,3.56v6.83H24.12v-6a4.21,4.21,0,0,0-.67-2.69,2.71,2.71,0,0,0-2.2-.81,3.16,3.16,0,0,0-2.42.92A3.73,3.73,0,0,0,18,21.13v5.94H15.84V10.62H18V16.9A4.63,4.63,0,0,1,21.43,15.43Z"/><path class="cls-1" d="M37.36,15.63H39.5V27.07H37.62l-.18-1.34a5,5,0,0,1-1.63,1.15,5.06,5.06,0,0,1-2,.39A4.64,4.64,0,0,1,30.33,26a4.94,4.94,0,0,1-1.2-3.57V15.63h2.13v6a4.26,4.26,0,0,0,.67,2.7,2.67,2.67,0,0,0,2.2.82,3.07,3.07,0,0,0,2.4-.93,3.81,3.81,0,0,0,.83-2.65Z"/><path class="cls-1" d="M47.86,27.27a5.75,5.75,0,1,1,2.3-.45A5.91,5.91,0,0,1,47.86,27.27Zm0-2.14a3.68,3.68,0,0,0,1.45-.29,3.78,3.78,0,0,0,1.18-.8,3.84,3.84,0,0,0,.78-1.19,4.16,4.16,0,0,0,0-3,3.84,3.84,0,0,0-.78-1.19,3.78,3.78,0,0,0-1.18-.8,3.68,3.68,0,0,0-1.45-.29,3.73,3.73,0,0,0-1.46.29,4,4,0,0,0-1.18.8,3.64,3.64,0,0,0-.77,1.19,4.16,4.16,0,0,0,0,3A3.64,3.64,0,0,0,45.22,24a4,4,0,0,0,1.18.8A3.73,3.73,0,0,0,47.86,25.13ZM49,9.12A2,2,0,0,1,48.34,9a2.58,2.58,0,0,1-.68-.39,3.68,3.68,0,0,0-.45-.28,1.12,1.12,0,0,0-.53-.13,1.13,1.13,0,0,0-.56.14,1.78,1.78,0,0,0-.52.47L44.41,7.63a4.27,4.27,0,0,1,1.05-.9,2.31,2.31,0,0,1,1.18-.31,2,2,0,0,1,.89.19,5.2,5.2,0,0,1,.61.37,2.71,2.71,0,0,0,.45.29,1,1,0,0,0,.41.08,1.15,1.15,0,0,0,.57-.14,1.67,1.67,0,0,0,.52-.47l1.18,1.17A2.92,2.92,0,0,1,49,9.12Zm-3.49,5.26L44.41,13l3.45-3.11L51.31,13l-1.12,1.36L47.86,12.3Z"/><path class="cls-1" d="M57.31,13.81a1.37,1.37,0,0,1-1-.42,1.4,1.4,0,0,1-.42-1,1.34,1.34,0,0,1,.42-1,1.41,1.41,0,0,1,2,0,1.34,1.34,0,0,1,.42,1,1.4,1.4,0,0,1-.42,1A1.36,1.36,0,0,1,57.31,13.81ZM56.22,27.07V15.63h2.13V27.07Z"/><path class="cls-1" d="M71.3,27.07V14.2H66.75V12H78.06V14.2H73.51V27.07Z"/><path class="cls-1" d="M85.28,15.55a3.4,3.4,0,0,1,.78.08v2.2l-.52-.07a5.25,5.25,0,0,0-.56,0,2.86,2.86,0,0,0-2.23.87A3.42,3.42,0,0,0,82,21v6.08H79.82V15.63h1.85l.2,1.48A4.53,4.53,0,0,1,83.38,16,4.36,4.36,0,0,1,85.28,15.55Z"/><path class="cls-1" d="M88.85,13.81a1.39,1.39,0,0,1-1-.42,1.43,1.43,0,0,1-.41-1,1.37,1.37,0,0,1,.41-1,1.39,1.39,0,0,1,1-.42,1.36,1.36,0,0,1,1,.42,1.34,1.34,0,0,1,.42,1,1.4,1.4,0,0,1-.42,1A1.36,1.36,0,0,1,88.85,13.81ZM87.76,27.07V15.63h2.13V27.07Z"/><path class="cls-1" d="M103.38,20.72v.53a2.92,2.92,0,0,1,0,.33.88.88,0,0,1,0,.2s0,.1,0,.16H94.52a3.49,3.49,0,0,0,.4,1.33,3.63,3.63,0,0,0,.82,1,3.75,3.75,0,0,0,1.19.67,4.69,4.69,0,0,0,1.48.23,4.61,4.61,0,0,0,1.66-.3,3.67,3.67,0,0,0,1.31-.85l1.38,1.51a6,6,0,0,1-4.39,1.7,6.48,6.48,0,0,1-2.4-.43,5.65,5.65,0,0,1-1.89-1.22,5.55,5.55,0,0,1-1.25-1.85,6,6,0,0,1-.45-2.34,6.15,6.15,0,0,1,.45-2.35,5.92,5.92,0,0,1,1.23-1.91,5.83,5.83,0,0,1,1.82-1.28,5.55,5.55,0,0,1,2.27-.46,5.48,5.48,0,0,1,2.09.39,5.12,5.12,0,0,1,1.66,1.1A5.29,5.29,0,0,1,103,18.6,5.67,5.67,0,0,1,103.38,20.72ZM98.11,12.3l-2.34,2.08L94.66,13l3.45-3.11L101.56,13l-1.12,1.36Zm3.13,7.84a2.2,2.2,0,0,0-.25-1.05,2.62,2.62,0,0,0-.67-.84,3.2,3.2,0,0,0-1-.56,3.72,3.72,0,0,0-1.22-.2,3.47,3.47,0,0,0-2.2.73,3.56,3.56,0,0,0-1.27,1.92Zm-.48-13.6a2.32,2.32,0,0,1,1.53.51,1.67,1.67,0,0,1,.61,1.31,2.69,2.69,0,0,1-.38,1.46,4.15,4.15,0,0,1-.9,1H100a4,4,0,0,0,.73-.84,2.11,2.11,0,0,0,.33-1.2.45.45,0,0,0-.22-.42.81.81,0,0,0-.46-.15,1.32,1.32,0,0,0-.39.06,1.79,1.79,0,0,0-.47.23l-.61-1.34a3,3,0,0,1,.93-.49A3.21,3.21,0,0,1,100.76,6.54Z"/><path class="cls-1" d="M111.45,15.43A4.88,4.88,0,0,1,115,16.68a4.84,4.84,0,0,1,1.24,3.56v6.83h-2.13v-6a4.27,4.27,0,0,0-.67-2.69,2.72,2.72,0,0,0-2.21-.81,3.15,3.15,0,0,0-2.41.92,3.73,3.73,0,0,0-.86,2.64v5.94h-2.13V15.63h1.87l.18,1.31a4.69,4.69,0,0,1,1.62-1.14A4.92,4.92,0,0,1,111.45,15.43Z"/><path class="cls-1" d="M129,27.27a2.83,2.83,0,0,1-2.28-.91,3.64,3.64,0,0,1-.79-2.48V10.62h2.15l0,13a2.6,2.6,0,0,0,.24,1.24,1,1,0,0,0,.92.42,1.53,1.53,0,0,0,.54-.09,4.57,4.57,0,0,0,.56-.27l.79,1.79a3,3,0,0,1-1,.45A5,5,0,0,1,129,27.27Z"/><path class="cls-1" d="M141.64,15.63h1.89V27.07h-1.89l-.2-1.48a5.4,5.4,0,0,1-1.65,1.23,4.8,4.8,0,0,1-2.08.45,5.56,5.56,0,0,1-4.09-1.72,6.05,6.05,0,0,1-1.23-1.89,6.05,6.05,0,0,1,1.23-6.51,5.56,5.56,0,0,1,4.09-1.72,4.8,4.8,0,0,1,2.08.45,5.3,5.3,0,0,1,1.65,1.25Zm-3.85,9.5a3.86,3.86,0,0,0,1.45-.28,3.49,3.49,0,0,0,1.94-2,4.08,4.08,0,0,0,.28-1.5,4.18,4.18,0,0,0-.28-1.51,3.74,3.74,0,0,0-.77-1.2,3.66,3.66,0,0,0-1.17-.79,3.86,3.86,0,0,0-1.45-.28,3.91,3.91,0,0,0-1.46.28,3.66,3.66,0,0,0-1.17.79,3.72,3.72,0,0,0-.76,1.2,4,4,0,0,0-.28,1.51,3.89,3.89,0,0,0,.28,1.5,3.44,3.44,0,0,0,1.93,2A3.91,3.91,0,0,0,137.79,25.13ZM137,12.6a1.09,1.09,0,0,0-.57.13,2.4,2.4,0,0,0-.53.48L134.67,12a3,3,0,0,1,2.24-1.21,2.31,2.31,0,0,1,.89.19,4.39,4.39,0,0,1,.6.38,2.53,2.53,0,0,0,.44.28,1.08,1.08,0,0,0,.42.08,1.1,1.1,0,0,0,.56-.13,2.13,2.13,0,0,0,.52-.47l1.18,1.17a2.92,2.92,0,0,1-2.24,1.21,2.42,2.42,0,0,1-.7-.13,2.86,2.86,0,0,1-.65-.4l-.47-.28A1.13,1.13,0,0,0,137,12.6Z"/><path class="cls-1" d="M146.64,27.07V15.63h1.88l.18,1.29a4.39,4.39,0,0,1,3.39-1.49,4,4,0,0,1,3.87,2,4.33,4.33,0,0,1,1.66-1.46,5,5,0,0,1,2.23-.5,4.24,4.24,0,0,1,3.29,1.27,5,5,0,0,1,1.18,3.54v6.83h-2.16v-6a4.45,4.45,0,0,0-.62-2.67,2.34,2.34,0,0,0-2-.83q-3,0-3,3.56v5.94H154.4v-6a4.53,4.53,0,0,0-.62-2.67,2.36,2.36,0,0,0-2-.83q-3,0-3,3.56v5.94Z"/><path class="cls-1" d="M183,15.63h1.9v15.2h-2.16v-5.2a5,5,0,0,1-1.63,1.21,4.82,4.82,0,0,1-2,.43A5.65,5.65,0,0,1,175,25.56a5.89,5.89,0,0,1-1.23-1.88,6.16,6.16,0,0,1-.44-2.33,6.07,6.07,0,0,1,.44-2.32A6,6,0,0,1,175,17.15a5.61,5.61,0,0,1,4.09-1.72,4.84,4.84,0,0,1,2.09.45,5.15,5.15,0,0,1,1.64,1.25Zm-3.85,9.5a4,4,0,0,0,1.46-.28,3.52,3.52,0,0,0,1.93-2,4.16,4.16,0,0,0,0-3,3.64,3.64,0,0,0-.77-1.19,3.69,3.69,0,0,0-1.16-.8,3.77,3.77,0,0,0-1.46-.29,4,4,0,0,0-1.46.28,3.51,3.51,0,0,0-1.16.79,3.74,3.74,0,0,0-.77,1.2,4,4,0,0,0-.28,1.51,3.89,3.89,0,0,0,.28,1.5,3.68,3.68,0,0,0,.77,1.21,3.51,3.51,0,0,0,1.16.79A4,4,0,0,0,179.16,25.13Z"/><path class="cls-1" d="M196,15.63h2.13V27.07h-1.87l-.18-1.34a5.13,5.13,0,0,1-1.64,1.15,5,5,0,0,1-2,.39A4.61,4.61,0,0,1,189,26a4.9,4.9,0,0,1-1.21-3.57V15.63h2.13v6a4.32,4.32,0,0,0,.67,2.7,2.69,2.69,0,0,0,2.21.82,3.06,3.06,0,0,0,2.39-.93,3.81,3.81,0,0,0,.84-2.65Z"/><path class="cls-1" d="M206.49,27.27a5.75,5.75,0,0,1-4.17-1.72,5.93,5.93,0,0,1-1.25-1.89,6.31,6.31,0,0,1,0-4.63,5.93,5.93,0,0,1,7.72-3.15,5.79,5.79,0,0,1,1.87,1.27,6,6,0,0,1,0,8.4,5.79,5.79,0,0,1-1.87,1.27A5.86,5.86,0,0,1,206.49,27.27Zm0-2.14a3.77,3.77,0,0,0,1.46-.29,3.86,3.86,0,0,0,1.17-.8,3.51,3.51,0,0,0,.78-1.19,4.16,4.16,0,0,0,0-3,3.51,3.51,0,0,0-.78-1.19,3.86,3.86,0,0,0-1.17-.8,3.82,3.82,0,0,0-2.92,0,3.86,3.86,0,0,0-1.17.8,3.67,3.67,0,0,0-.78,1.19,4.16,4.16,0,0,0,0,3,3.67,3.67,0,0,0,.78,1.19,3.86,3.86,0,0,0,1.17.8A3.77,3.77,0,0,0,206.49,25.13Zm-2.31-10.75L203,13l3.45-3.11L209.94,13l-1.12,1.36-2.33-2.08Zm5.32-3.13-1.09-1.32,3.19-2.81,1.09,1.32Z"/><path class="cls-1" d="M220.2,27.27a6,6,0,0,1-2.33-.45,5.9,5.9,0,0,1-3.64-5.47A5.73,5.73,0,0,1,214.7,19,6,6,0,0,1,216,17.15a5.88,5.88,0,0,1,1.89-1.27,6,6,0,0,1,2.33-.45,5.89,5.89,0,0,1,2.22.41A5.5,5.5,0,0,1,224.21,17l-1.48,1.55a4,4,0,0,0-1.15-.74,3.54,3.54,0,0,0-1.38-.27,4,4,0,0,0-1.49.28,3.8,3.8,0,0,0-1.2.79,3.85,3.85,0,0,0-.81,1.2,3.8,3.8,0,0,0-.3,1.51,3.72,3.72,0,0,0,.3,1.5,3.65,3.65,0,0,0,2,2,4,4,0,0,0,1.49.28,3.54,3.54,0,0,0,1.38-.27,4,4,0,0,0,1.15-.74l1.48,1.55a5.5,5.5,0,0,1-1.79,1.19A5.89,5.89,0,0,1,220.2,27.27Z"/><path class="cls-1" d="M239.35,26.66a3.77,3.77,0,0,1-1.15.47,6,6,0,0,1-1.27.14,3.19,3.19,0,0,1-2.42-.92,3.45,3.45,0,0,1-.87-2.47V17.67h-1.81v-2h1.81v-2.1l2.16-.4v2.5h3.07v2H235.8v5.94a2,2,0,0,0,.31,1.2,1.22,1.22,0,0,0,1,.42,2.63,2.63,0,0,0,.72-.09,2.59,2.59,0,0,0,.64-.29Z"/><path class="cls-1" d="M251.32,20.72v.53c0,.13,0,.24,0,.33s0,.16,0,.2a.81.81,0,0,0,0,.16h-8.82a3.59,3.59,0,0,0,1.23,2.37,3.59,3.59,0,0,0,1.18.67,4.69,4.69,0,0,0,1.48.23,4.61,4.61,0,0,0,1.66-.3,3.58,3.58,0,0,0,1.31-.85l1.38,1.51a6,6,0,0,1-4.39,1.7,6.48,6.48,0,0,1-2.4-.43A5.65,5.65,0,0,1,242,25.62a5.55,5.55,0,0,1-1.25-1.85,6,6,0,0,1-.45-2.34,6.15,6.15,0,0,1,.45-2.35A5.92,5.92,0,0,1,242,17.17a5.83,5.83,0,0,1,1.82-1.28,5.55,5.55,0,0,1,2.27-.46,5.44,5.44,0,0,1,2.09.39,4.9,4.9,0,0,1,2.75,2.78A5.67,5.67,0,0,1,251.32,20.72ZM242.6,13l3.45-3.11L249.5,13l-1.12,1.36-2.33-2.08-2.31,2.08Zm6.58,7.12a2.2,2.2,0,0,0-.25-1.05,2.49,2.49,0,0,0-.67-.84,3.2,3.2,0,0,0-1-.56,3.72,3.72,0,0,0-1.22-.2,3.42,3.42,0,0,0-2.19.73,3.52,3.52,0,0,0-1.28,1.92Zm3.07-11.7-3.19,2.81L248,9.93l3.2-2.81Z"/><path class="cls-1" d="M265.8,27.27a6,6,0,0,1-2.33-.45,6,6,0,0,1-1.89-1.26,5.87,5.87,0,0,1-1.75-4.21A5.73,5.73,0,0,1,260.3,19a6,6,0,0,1,3.17-3.15,6,6,0,0,1,2.33-.45,5.89,5.89,0,0,1,2.22.41A5.5,5.5,0,0,1,269.81,17l-1.48,1.55a4,4,0,0,0-1.14-.74,3.62,3.62,0,0,0-1.39-.27,4.07,4.07,0,0,0-1.49.28,3.64,3.64,0,0,0-1.19.79,3.85,3.85,0,0,0-.81,1.2,3.8,3.8,0,0,0-.3,1.51,3.72,3.72,0,0,0,.3,1.5,3.78,3.78,0,0,0,.81,1.21,3.64,3.64,0,0,0,1.19.79,4.07,4.07,0,0,0,1.49.28,3.62,3.62,0,0,0,1.39-.27,4,4,0,0,0,1.14-.74l1.48,1.55A5.5,5.5,0,0,1,268,26.86,5.89,5.89,0,0,1,265.8,27.27Z"/><path class="cls-1" d="M277.69,15.43a4.86,4.86,0,0,1,3.58,1.25,4.84,4.84,0,0,1,1.25,3.56v6.83h-2.14v-6a4.21,4.21,0,0,0-.67-2.69,2.69,2.69,0,0,0-2.2-.81,3.17,3.17,0,0,0-2.42.92,3.73,3.73,0,0,0-.85,2.64v5.94H272.1V10.62h2.14V16.9A4.6,4.6,0,0,1,277.69,15.43Z"/><path class="cls-1" d="M293.63,15.63h2.13V27.07h-1.87l-.18-1.34a5.13,5.13,0,0,1-1.64,1.15,5,5,0,0,1-2,.39A4.61,4.61,0,0,1,286.6,26a4.9,4.9,0,0,1-1.21-3.57V15.63h2.13v6a4.32,4.32,0,0,0,.67,2.7,2.69,2.69,0,0,0,2.21.82,3.06,3.06,0,0,0,2.39-.93,3.81,3.81,0,0,0,.84-2.65Z"/><path class="cls-1" d="M299.51,30.83,302,25.55l-4.79-9.92h2.39L303,23.11l3.23-7.48h2.36l-6.76,15.2Z"/><path class="cls-1" d="M319.9,20.72v.53a3.22,3.22,0,0,1,0,.33c0,.09,0,.16,0,.2a.81.81,0,0,0,0,.16H311a3.89,3.89,0,0,0,.4,1.33,3.5,3.5,0,0,0,.83,1,3.64,3.64,0,0,0,1.19.67,4.8,4.8,0,0,0,3.14-.07,3.76,3.76,0,0,0,1.31-.85l1.37,1.51a5.94,5.94,0,0,1-4.39,1.7,6.43,6.43,0,0,1-2.39-.43,5.79,5.79,0,0,1-1.9-1.22,5.52,5.52,0,0,1-1.24-1.85,6,6,0,0,1-.45-2.34,6.15,6.15,0,0,1,.45-2.35,6.07,6.07,0,0,1,1.22-1.91,5.75,5.75,0,0,1,1.83-1.28,5.81,5.81,0,0,1,4.36-.07,5,5,0,0,1,1.65,1.1,5.13,5.13,0,0,1,1.09,1.68A5.67,5.67,0,0,1,319.9,20.72Zm-5.27-8.42-2.33,2.08L311.18,13l3.45-3.11L318.08,13,317,14.38Zm3.14,7.84a2.32,2.32,0,0,0-.25-1.05,2.62,2.62,0,0,0-.67-.84,3.25,3.25,0,0,0-1-.56,3.67,3.67,0,0,0-1.22-.2,3.44,3.44,0,0,0-2.19.73,3.57,3.57,0,0,0-1.28,1.92Z"/><path class="cls-1" d="M328,15.43a4.84,4.84,0,0,1,3.58,1.25,4.84,4.84,0,0,1,1.25,3.56v6.83h-2.14v-6a4.21,4.21,0,0,0-.67-2.69,2.69,2.69,0,0,0-2.2-.81,3.13,3.13,0,0,0-2.41.92,3.68,3.68,0,0,0-.86,2.64v5.94h-2.14V15.63h1.88l.18,1.31a4.75,4.75,0,0,1,1.61-1.14A4.94,4.94,0,0,1,328,15.43Z"/><path class="cls-1" d="M348,15.43a4.86,4.86,0,0,1,3.58,1.25,4.84,4.84,0,0,1,1.25,3.56v6.83h-2.14v-6a4.21,4.21,0,0,0-.67-2.69,2.69,2.69,0,0,0-2.2-.81,3.17,3.17,0,0,0-2.42.92,3.73,3.73,0,0,0-.85,2.64v5.94h-2.14V15.63h1.88l.18,1.31a4.66,4.66,0,0,1,1.61-1.14A4.94,4.94,0,0,1,348,15.43Z"/><path class="cls-1" d="M364.69,15.63h1.89v9.9a5.39,5.39,0,0,1-1.45,4.1A5.85,5.85,0,0,1,360.9,31a8,8,0,0,1-4.83-1.52l1.07-1.73a8.2,8.2,0,0,0,1.88.91,5.85,5.85,0,0,0,1.86.28,3.69,3.69,0,0,0,2.68-.86,3.59,3.59,0,0,0,.87-2.66V25a4.21,4.21,0,0,1-1.58,1.26,4.71,4.71,0,0,1-2,.43,5.39,5.39,0,0,1-2.19-.44,5.67,5.67,0,0,1-1.78-1.21,5.81,5.81,0,0,1-1.21-6.24,5.12,5.12,0,0,1,1.19-1.76,5.57,5.57,0,0,1,4-1.62,5,5,0,0,1,2,.41A5.34,5.34,0,0,1,364.51,17Zm-3.71,9a3.37,3.37,0,0,0,1.38-.28,3.54,3.54,0,0,0,1.13-.77,3.49,3.49,0,0,0,.75-1.13,3.55,3.55,0,0,0,.27-1.39,3.69,3.69,0,0,0-.27-1.41,3.43,3.43,0,0,0-.75-1.14,3.47,3.47,0,0,0-1.12-.76,3.52,3.52,0,0,0-1.39-.27,3.7,3.7,0,0,0-1.42.27,3.43,3.43,0,0,0-1.89,1.9,3.69,3.69,0,0,0-.27,1.41,3.6,3.6,0,0,0,1,2.54,3.36,3.36,0,0,0,1.13.76A3.62,3.62,0,0,0,361,24.64Z"/><path class="cls-1" d="M378.75,15.63h1.89V27.07h-1.89l-.2-1.48a5.28,5.28,0,0,1-1.65,1.23,4.77,4.77,0,0,1-2.08.45,5.61,5.61,0,0,1-4.09-1.72,6.05,6.05,0,0,1-1.23-1.89,6.05,6.05,0,0,1,1.23-6.51,5.61,5.61,0,0,1,4.09-1.72,4.77,4.77,0,0,1,2.08.45,5.19,5.19,0,0,1,1.65,1.25Zm-3.85,9.5a4,4,0,0,0,1.46-.28,3.51,3.51,0,0,0,1.16-.79,3.68,3.68,0,0,0,.77-1.21,3.89,3.89,0,0,0,.28-1.5,4,4,0,0,0-.28-1.51,3.74,3.74,0,0,0-.77-1.2,3.51,3.51,0,0,0-1.16-.79,3.95,3.95,0,0,0-2.92,0,3.51,3.51,0,0,0-1.16.79,3.58,3.58,0,0,0-.77,1.2,4,4,0,0,0-.28,1.51,3.89,3.89,0,0,0,.28,1.5,3.52,3.52,0,0,0,1.93,2A4,4,0,0,0,374.9,25.13Zm1.89-11.88-1.31,1.09-2.62-3.42,1.34-1.09Z"/><path class="cls-1" d="M389.34,15.43a4.84,4.84,0,0,1,3.58,1.25,4.84,4.84,0,0,1,1.25,3.56v6.83H392v-6a4.27,4.27,0,0,0-.67-2.69,2.72,2.72,0,0,0-2.21-.81,3.15,3.15,0,0,0-2.41.92,3.73,3.73,0,0,0-.86,2.64v5.94h-2.13V15.63h1.87l.18,1.31a4.69,4.69,0,0,1,1.62-1.14A4.89,4.89,0,0,1,389.34,15.43Z"/><path class="cls-1" d="M402.75,15.43a4.86,4.86,0,0,1,3.58,1.25,4.84,4.84,0,0,1,1.25,3.56v6.83h-2.14v-6a4.21,4.21,0,0,0-.67-2.69,2.69,2.69,0,0,0-2.2-.81,3.17,3.17,0,0,0-2.42.92,3.73,3.73,0,0,0-.85,2.64v5.94h-2.14V10.62h2.14V16.9A4.6,4.6,0,0,1,402.75,15.43Z"/><path class="cls-1" d="M423.24,27.29a10.7,10.7,0,0,1-3.4-.53,9.61,9.61,0,0,1-2.95-1.56L418.76,22A9.49,9.49,0,0,0,421,23.26a6.34,6.34,0,0,0,2.23.39,3.27,3.27,0,0,0,1.7-.38,1.23,1.23,0,0,0,.61-1.08,1.28,1.28,0,0,0-.15-.63,1.48,1.48,0,0,0-.47-.51,4.11,4.11,0,0,0-.89-.43,13.18,13.18,0,0,0-1.4-.41,12.63,12.63,0,0,1-2.35-.79,5.63,5.63,0,0,1-1.59-1.05,3.83,3.83,0,0,1-.9-1.38,5.13,5.13,0,0,1-.29-1.77,4.81,4.81,0,0,1,.45-2.09,4.55,4.55,0,0,1,1.24-1.61,5.74,5.74,0,0,1,1.93-1,7.84,7.84,0,0,1,2.49-.37,10.38,10.38,0,0,1,2.89.37,11.06,11.06,0,0,1,2.72,1.22l-1.84,3.22a9.27,9.27,0,0,0-1.93-.9,6,6,0,0,0-1.8-.27,3.32,3.32,0,0,0-1.59.31,1,1,0,0,0-.56.9,1,1,0,0,0,.13.53,1.3,1.3,0,0,0,.46.44,6,6,0,0,0,.87.42c.37.14.85.29,1.42.46a9.11,9.11,0,0,1,3.9,2A4.27,4.27,0,0,1,429.54,22a5.17,5.17,0,0,1-.45,2.17,4.88,4.88,0,0,1-1.28,1.67,5.69,5.69,0,0,1-2,1.08A8,8,0,0,1,423.24,27.29Z"/><path class="cls-1" d="M439.57,10.12a9.69,9.69,0,0,1,2.26.28,7.57,7.57,0,0,1,2.12.84.82.82,0,0,0,.62-.57,3.41,3.41,0,0,0,.15-1.05V8.27h3.36V9.64a3.91,3.91,0,0,1-.47,1.77,6.15,6.15,0,0,1-1.33,1.7,8.41,8.41,0,0,1,1.84,5.6,8.63,8.63,0,0,1-2.48,6.1,8.3,8.3,0,0,1-2.7,1.82,8.62,8.62,0,0,1-3.37.66,8.52,8.52,0,0,1-3.35-.66,8.41,8.41,0,0,1-4.5-4.55,8.48,8.48,0,0,1-.67-3.37,8.67,8.67,0,0,1,.66-3.38,8.24,8.24,0,0,1,1.81-2.73,8.4,8.4,0,0,1,2.7-1.82A8.52,8.52,0,0,1,439.57,10.12Zm0,13.26a4.44,4.44,0,0,0,4.21-2.81,5.29,5.29,0,0,0,0-3.73,4.49,4.49,0,0,0-.95-1.47,4.65,4.65,0,0,0-5.06-1,4.28,4.28,0,0,0-1.44,1,4.47,4.47,0,0,0-.94,1.47,5.29,5.29,0,0,0,0,3.73,4.49,4.49,0,0,0,.95,1.47,4.55,4.55,0,0,0,3.23,1.34Z"/><path class="cls-1" d="M465.43,27.52l-11.1-9.47v9h-3.77V9.89l11.1,9.47v-9h3.77Z"/><path class="cls-1" d="M475.93,27.07V10.34h6.53a8.32,8.32,0,0,1,2.81.46,6.28,6.28,0,0,1,2.17,1.3,5.47,5.47,0,0,1,1.38,2,6.68,6.68,0,0,1,.49,2.62,6.72,6.72,0,0,1-.49,2.62,5.64,5.64,0,0,1-1.38,2,6.42,6.42,0,0,1-2.17,1.29,8.08,8.08,0,0,1-2.81.46h-2.65v4Zm3.88-7.74h2.8a2.73,2.73,0,0,0,2-.71,2.5,2.5,0,0,0,.75-1.89,2.5,2.5,0,0,0-.75-1.89,2.69,2.69,0,0,0-2-.72h-2.8Z"/><path class="cls-1" d="M491.53,27.07V10.34h3.89v6.18h6.85V10.34h3.89V27.07h-3.89V20.35h-6.85v6.72Z"/><path class="cls-1" d="M516.35,27.32a8.51,8.51,0,0,1-3-.5,6.38,6.38,0,0,1-2.26-1.39,6.19,6.19,0,0,1-1.44-2.18,7.7,7.7,0,0,1-.51-2.86v-10H513v9.94a3,3,0,0,0,.89,2.31,3.34,3.34,0,0,0,2.42.86,3.28,3.28,0,0,0,2.4-.86,3.06,3.06,0,0,0,.88-2.31V10.34h3.89V20.39a7.51,7.51,0,0,1-.52,2.86,6.19,6.19,0,0,1-1.44,2.18,6.43,6.43,0,0,1-2.25,1.39A8.39,8.39,0,0,1,516.35,27.32Zm-.18-23.43a2.73,2.73,0,0,1,2,.61,2.26,2.26,0,0,1,.61,1.66,3.27,3.27,0,0,1-.36,1.4A3.94,3.94,0,0,1,517.23,9H515a3.47,3.47,0,0,0,.52-.44A4.15,4.15,0,0,0,516,8a3.5,3.5,0,0,0,.32-.6,1.39,1.39,0,0,0,.12-.54.75.75,0,0,0-.19-.48.78.78,0,0,0-.56-.28.88.88,0,0,0-.59.09,4.85,4.85,0,0,0-.46.34l-.84-1.94a4.16,4.16,0,0,1,1.18-.5A4.93,4.93,0,0,1,516.17,3.89Z"/><path class="cls-1" d="M528.11,30.69l-3.2-1,1.45-6.86h4.15Z"/><path class="cls-1" d="M548.48,27.29a9.77,9.77,0,0,1-3.57-.63,8,8,0,0,1-2.78-1.76,7.86,7.86,0,0,1-1.81-2.72,9.16,9.16,0,0,1-.65-3.47,8.67,8.67,0,0,1,.67-3.38,8.3,8.3,0,0,1,1.83-2.73,8.65,8.65,0,0,1,2.73-1.82,8.53,8.53,0,0,1,3.36-.66,10.59,10.59,0,0,1,3.76.63,8.11,8.11,0,0,1,2.92,1.88l-3,2.75A5,5,0,0,0,548.26,14a4.58,4.58,0,0,0-1.82.36,4.45,4.45,0,0,0-1.45,1,4.69,4.69,0,0,0-1,1.48,4.91,4.91,0,0,0-.35,1.85,5.63,5.63,0,0,0,.35,2,4.53,4.53,0,0,0,1,1.54,4.44,4.44,0,0,0,1.59,1,6.24,6.24,0,0,0,2.09.33,6.52,6.52,0,0,0,1.83-.23,4.21,4.21,0,0,0,1.41-.76V20.82H549v-3.1h6.48V24.8a8.31,8.31,0,0,1-3,1.83A11.85,11.85,0,0,1,548.48,27.29Z"/><path class="cls-1" d="M558.29,27.07V10.34h3.89V27.07Z"/><path class="cls-1" d="M576.6,27.07l-1.22-2.54H569.3l-1.22,2.54h-4.35l8.59-17.18L581,27.07Zm-4.28-19.9L569,9.1l-1.26-2.27,4.61-2.65,4.62,2.65L575.67,9.1Zm1.78,14.21-1.78-3.78-1.75,3.78Zm6.3-19.11-4.68,2.65-1.29-2.27L579.11,0Z"/><path class="cls-1" d="M589.21,10.34h4.42l-5.73,10.3v6.43H584V20.64l-5.73-10.3h4.42L586,16.88Z"/><path class="cls-1" d="M595.23,30.69l-3.2-1,1.44-6.86h4.15Z"/><path class="cls-1" d="M615.38,27.29a8.53,8.53,0,0,1-3.36-.66,8.3,8.3,0,0,1-2.73-1.83,8.73,8.73,0,0,1-1.83-9.47,8.3,8.3,0,0,1,1.83-2.73A8.43,8.43,0,0,1,612,10.78a8.53,8.53,0,0,1,3.36-.66,8.69,8.69,0,0,1,3.6.74A8.26,8.26,0,0,1,621.84,13l-3,2.63a4.13,4.13,0,0,0-1.54-1.17,4.75,4.75,0,0,0-2-.4,4.58,4.58,0,0,0-1.82.36,4.49,4.49,0,0,0-1.46,1,4.84,4.84,0,0,0-1,1.48,4.91,4.91,0,0,0,0,3.69,4.84,4.84,0,0,0,1,1.48,4.49,4.49,0,0,0,1.46,1,4.58,4.58,0,0,0,1.82.36,4.75,4.75,0,0,0,2-.4,4.13,4.13,0,0,0,1.54-1.17l3,2.63A8.26,8.26,0,0,1,619,26.55,8.69,8.69,0,0,1,615.38,27.29Z"/><path class="cls-1" d="M635.27,27.07,634,24.53H628l-1.22,2.54h-4.35L631,9.89l8.64,17.18Zm-2.51-5.69L631,17.6l-1.75,3.78Z"/><path class="cls-1" d="M647.92,27.29a8.53,8.53,0,0,1-3.36-.66,8.36,8.36,0,0,1-2.69-1.82,8.68,8.68,0,0,1-2.48-6.1,8.67,8.67,0,0,1,.66-3.38,8.24,8.24,0,0,1,1.81-2.73,8.54,8.54,0,0,1,13.95,2.72,8.79,8.79,0,0,1,.65,3.39,8.6,8.6,0,0,1-.66,3.38A8.8,8.8,0,0,1,654,24.81a8.45,8.45,0,0,1-2.71,1.82A8.57,8.57,0,0,1,647.92,27.29Zm0-3.91a4.53,4.53,0,0,0,1.81-.36,4.4,4.4,0,0,0,2.39-2.45,5.14,5.14,0,0,0,0-3.73,4.4,4.4,0,0,0-2.39-2.45,4.73,4.73,0,0,0-3.62,0,4.14,4.14,0,0,0-1.43,1,4.49,4.49,0,0,0-.95,1.47,5.29,5.29,0,0,0,0,3.73,4.36,4.36,0,0,0,1,1.47,4.28,4.28,0,0,0,1.44,1A4.44,4.44,0,0,0,647.92,23.38Z"/><path class="cls-1" d="M671.58,27.29a10.66,10.66,0,0,1-3.4-.53,9.61,9.61,0,0,1-2.95-1.56L667.09,22a9.54,9.54,0,0,0,2.26,1.27,6.34,6.34,0,0,0,2.23.39,3.2,3.2,0,0,0,1.69-.38,1.21,1.21,0,0,0,.61-1.08,1.27,1.27,0,0,0-.14-.63,1.63,1.63,0,0,0-.48-.51,3.89,3.89,0,0,0-.89-.43,12.92,12.92,0,0,0-1.39-.41,12.75,12.75,0,0,1-2.36-.79A5.43,5.43,0,0,1,667,18.37a3.83,3.83,0,0,1-.9-1.38,5.13,5.13,0,0,1-.29-1.77,5,5,0,0,1,.44-2.09,4.58,4.58,0,0,1,1.25-1.61,5.65,5.65,0,0,1,1.93-1,7.82,7.82,0,0,1,2.48-.37,10.46,10.46,0,0,1,2.9.37,11.06,11.06,0,0,1,2.72,1.22l-1.84,3.22a9.51,9.51,0,0,0-1.93-.9,6,6,0,0,0-1.8-.27,3.32,3.32,0,0,0-1.59.31,1,1,0,0,0-.57.9,1,1,0,0,0,.14.53,1.35,1.35,0,0,0,.45.44,6.73,6.73,0,0,0,.88.42c.37.14.84.29,1.42.46a9.11,9.11,0,0,1,3.9,2A4.27,4.27,0,0,1,677.88,22a5,5,0,0,1-.46,2.17,4.85,4.85,0,0,1-1.27,1.67,5.69,5.69,0,0,1-2,1.08A8.12,8.12,0,0,1,671.58,27.29Z"/><path class="cls-1" d="M687.13,27.32a8.49,8.49,0,0,1-3-.5,6.38,6.38,0,0,1-2.26-1.39,6.08,6.08,0,0,1-1.45-2.18,7.7,7.7,0,0,1-.51-2.86v-10h3.89v9.94a3,3,0,0,0,.89,2.31,3.81,3.81,0,0,0,4.82,0,3.06,3.06,0,0,0,.88-2.31V10.34h3.88V20.39a7.7,7.7,0,0,1-.51,2.86,6.19,6.19,0,0,1-1.44,2.18,6.43,6.43,0,0,1-2.25,1.39A8.41,8.41,0,0,1,687.13,27.32Z"/><path class="cls-1" d="M712.13,15.63h2.4l-5.77,11.68L703,15.63h2.39l3.39,7Z"/><path class="cls-1" d="M724.5,15.63h1.9V27.07h-1.9l-.2-1.48a5.24,5.24,0,0,1-1.64,1.23,4.84,4.84,0,0,1-2.09.45,5.61,5.61,0,0,1-4.09-1.72,6,6,0,0,1-1.22-1.89,6.08,6.08,0,0,1,1.22-6.51,5.61,5.61,0,0,1,4.09-1.72,4.84,4.84,0,0,1,2.09.45,5.15,5.15,0,0,1,1.64,1.25Zm-3.85,9.5a3.91,3.91,0,0,0,1.46-.28,3.44,3.44,0,0,0,1.93-2,3.89,3.89,0,0,0,.28-1.5,4,4,0,0,0-.28-1.51,3.72,3.72,0,0,0-.76-1.2,3.66,3.66,0,0,0-1.17-.79,3.91,3.91,0,0,0-1.46-.28,3.86,3.86,0,0,0-1.45.28,3.45,3.45,0,0,0-1.17.79,3.74,3.74,0,0,0-.77,1.2,4,4,0,0,0-.28,1.51,3.89,3.89,0,0,0,.28,1.5,3.68,3.68,0,0,0,.77,1.21,3.45,3.45,0,0,0,1.17.79A3.86,3.86,0,0,0,720.65,25.13Zm1.9-11.88-1.32,1.09-2.61-3.42L720,9.83Z"/><path class="cls-1" d="M751,27.52l-11.1-9.47v9h-3.77V9.89l11.1,9.47v-9H751Z"/><path class="cls-1" d="M754.13,27.07V10.34H758v6.18h6.86V10.34h3.88V27.07h-3.88V20.35H758v6.72Z"/><path class="cls-1" d="M775.64,10.34v9.94a3.06,3.06,0,0,0,.88,2.31,3.34,3.34,0,0,0,2.42.86,3.3,3.3,0,0,0,2.41-.86,3.1,3.1,0,0,0,.88-2.31V10.34h2.44a.44.44,0,0,0,.3-.1c.08-.07.12-.27.12-.62V8.27h3.35V9.64a4,4,0,0,1-.59,2,6.25,6.25,0,0,1-1.72,1.87l0,0v6.83a7.7,7.7,0,0,1-.51,2.86,6.19,6.19,0,0,1-1.44,2.18,6.38,6.38,0,0,1-2.26,1.39,8.35,8.35,0,0,1-3,.5,8.49,8.49,0,0,1-3-.5,6.52,6.52,0,0,1-2.27-1.39,6.19,6.19,0,0,1-1.44-2.18,7.7,7.7,0,0,1-.51-2.86v-10ZM778.94,33a2,2,0,0,1-.82-.17,2.32,2.32,0,0,1-.67-.45,2.08,2.08,0,0,1-.45-.67,2.05,2.05,0,0,1-.17-.83,2.11,2.11,0,0,1,.17-.82,2,2,0,0,1,.45-.67,2.32,2.32,0,0,1,.67-.45,2.09,2.09,0,0,1,1.65,0,2.12,2.12,0,0,1,.68.45,2,2,0,0,1,.46.67,2.1,2.1,0,0,1,.16.82,2,2,0,0,1-.16.83,2.13,2.13,0,0,1-1.14,1.12A2.05,2.05,0,0,1,778.94,33Z"/><path class="cls-1" d="M800.2,27.07,799,24.53H792.9l-1.22,2.54h-4.35l8.59-17.18,8.64,17.18Zm-2.5-5.69-1.78-3.78-1.75,3.78Z"/><path class="cls-1" d="M819.7,26.66a3.61,3.61,0,0,1-1.14.47,6,6,0,0,1-1.27.14,3.17,3.17,0,0,1-2.42-.92,3.45,3.45,0,0,1-.87-2.47V17.67h-1.82v-2H814v-2.1l2.15-.4v2.5h3.08v2h-3.08v5.94a2,2,0,0,0,.32,1.2,1.2,1.2,0,0,0,1,.42,2.63,2.63,0,0,0,.72-.09,2.77,2.77,0,0,0,.64-.29Z"/><path class="cls-1" d="M830.38,15.63h1.89V27.07h-1.89l-.2-1.48a5.4,5.4,0,0,1-1.65,1.23,4.77,4.77,0,0,1-2.08.45,5.56,5.56,0,0,1-4.09-1.72,6.05,6.05,0,0,1-1.23-1.89,6.05,6.05,0,0,1,1.23-6.51,5.56,5.56,0,0,1,4.09-1.72,4.77,4.77,0,0,1,2.08.45,5.3,5.3,0,0,1,1.65,1.25Zm-3.85,9.5a3.86,3.86,0,0,0,1.45-.28,3.55,3.55,0,0,0,1.17-.79,3.68,3.68,0,0,0,.77-1.21,4.08,4.08,0,0,0,.28-1.5,4.18,4.18,0,0,0-.28-1.51,3.74,3.74,0,0,0-.77-1.2,3.55,3.55,0,0,0-1.17-.79,3.86,3.86,0,0,0-1.45-.28,3.91,3.91,0,0,0-1.46.28,3.66,3.66,0,0,0-1.17.79,3.72,3.72,0,0,0-.76,1.2,4,4,0,0,0-.28,1.51,3.89,3.89,0,0,0,.28,1.5,3.44,3.44,0,0,0,1.93,2A3.91,3.91,0,0,0,826.53,25.13Zm.34,3.8a1.38,1.38,0,0,1,1,.41,1.36,1.36,0,0,1,.42,1,1.38,1.38,0,0,1-.42,1,1.33,1.33,0,0,1-1,.43,1.36,1.36,0,0,1-1-.43,1.38,1.38,0,0,1-.42-1,1.36,1.36,0,0,1,.42-1A1.42,1.42,0,0,1,826.87,28.93Z"/><path class="cls-1" d="M836.48,13.81a1.39,1.39,0,0,1-1-.42,1.43,1.43,0,0,1-.41-1,1.37,1.37,0,0,1,.41-1,1.39,1.39,0,0,1,1-.42,1.36,1.36,0,0,1,1,.42,1.34,1.34,0,0,1,.42,1,1.4,1.4,0,0,1-.42,1A1.36,1.36,0,0,1,836.48,13.81Zm-1.1,13.26V15.63h2.14V27.07Z"/><path class="cls-1" d="M856.83,12h2.45L852.4,27.31,845.52,12H848l4.43,10.29Z"/><path class="cls-1" d="M861.74,13.81a1.43,1.43,0,0,1-1.44-1.43,1.34,1.34,0,0,1,.42-1,1.39,1.39,0,0,1,1-.42,1.43,1.43,0,0,1,1.41,1.42,1.4,1.4,0,0,1-.42,1A1.34,1.34,0,0,1,861.74,13.81Zm-1.1,13.26V15.63h2.13V27.07Z"/><path class="cls-1" d="M876.26,20.72v.53a3.22,3.22,0,0,1,0,.33c0,.09,0,.16,0,.2a.81.81,0,0,0,0,.16H867.4a3.89,3.89,0,0,0,.4,1.33,3.5,3.5,0,0,0,.83,1,3.64,3.64,0,0,0,1.19.67,4.8,4.8,0,0,0,3.14-.07,3.76,3.76,0,0,0,1.31-.85l1.37,1.51a5.94,5.94,0,0,1-4.39,1.7,6.43,6.43,0,0,1-2.39-.43,5.79,5.79,0,0,1-1.9-1.22,5.52,5.52,0,0,1-1.24-1.85,6,6,0,0,1-.45-2.34,6.15,6.15,0,0,1,.45-2.35,6.07,6.07,0,0,1,1.22-1.91,5.75,5.75,0,0,1,1.83-1.28,5.81,5.81,0,0,1,4.36-.07,5,5,0,0,1,1.65,1.1,5.13,5.13,0,0,1,1.09,1.68A5.67,5.67,0,0,1,876.26,20.72ZM871,12.3l-2.33,2.08L867.54,13,871,9.91,874.44,13l-1.11,1.36Zm3.14,7.84a2.32,2.32,0,0,0-.25-1.05,2.62,2.62,0,0,0-.67-.84,3.25,3.25,0,0,0-1-.56,3.67,3.67,0,0,0-1.22-.2,3.44,3.44,0,0,0-2.19.73,3.57,3.57,0,0,0-1.28,1.92Zm-3.08,8.79a1.39,1.39,0,0,1,1,.41,1.36,1.36,0,0,1,.42,1,1.38,1.38,0,0,1-.42,1,1.39,1.39,0,0,1-2,0,1.38,1.38,0,0,1-.42-1,1.36,1.36,0,0,1,.42-1A1.38,1.38,0,0,1,871.05,28.93Z"/><path class="cls-1" d="M885,26.66a3.77,3.77,0,0,1-1.15.47,6,6,0,0,1-1.27.14,3.19,3.19,0,0,1-2.42-.92,3.45,3.45,0,0,1-.87-2.47V17.67h-1.81v-2h1.81v-2.1l2.16-.4v2.5h3.07v2h-3.07v5.94a1.94,1.94,0,0,0,.32,1.2,1.18,1.18,0,0,0,1,.42,2.63,2.63,0,0,0,.72-.09,2.59,2.59,0,0,0,.64-.29Z"/><path class="cls-1" d="M906,27.31,895.63,16.94V27.07h-2.15V11.79l10.33,10.37V12H906Z"/><path class="cls-1" d="M918.23,15.63h1.9V27.07h-1.9l-.2-1.48a5.24,5.24,0,0,1-1.64,1.23,4.84,4.84,0,0,1-2.09.45,5.61,5.61,0,0,1-4.09-1.72A5.85,5.85,0,0,1,909,23.66,6.18,6.18,0,0,1,909,19a5.81,5.81,0,0,1,1.22-1.88,5.61,5.61,0,0,1,4.09-1.72,4.84,4.84,0,0,1,2.09.45A5.15,5.15,0,0,1,918,17.13Zm-3.85,9.5a3.91,3.91,0,0,0,1.46-.28,3.44,3.44,0,0,0,1.93-2,3.89,3.89,0,0,0,.28-1.5,4,4,0,0,0-.28-1.51,3.72,3.72,0,0,0-.76-1.2,3.66,3.66,0,0,0-1.17-.79,3.91,3.91,0,0,0-1.46-.28,3.86,3.86,0,0,0-1.45.28,3.45,3.45,0,0,0-1.17.79,3.74,3.74,0,0,0-.77,1.2,4,4,0,0,0-.28,1.51,3.89,3.89,0,0,0,.28,1.5,3.68,3.68,0,0,0,.77,1.21,3.45,3.45,0,0,0,1.17.79A3.86,3.86,0,0,0,914.38,25.13Z"/><path class="cls-1" d="M923.24,27.07V15.63h1.87l.18,1.29a4.43,4.43,0,0,1,3.4-1.49,4.06,4.06,0,0,1,3.87,2,4.23,4.23,0,0,1,1.65-1.46,5,5,0,0,1,2.24-.5,4.27,4.27,0,0,1,3.29,1.27,5,5,0,0,1,1.17,3.54v6.83h-2.15v-6a4.45,4.45,0,0,0-.63-2.67,2.33,2.33,0,0,0-2-.83q-3,0-3,3.56v5.94H931v-6a4.45,4.45,0,0,0-.63-2.67,2.33,2.33,0,0,0-2-.83q-3,0-3,3.56v5.94Z"/></g></g></svg>