<svg xmlns="http://www.w3.org/2000/svg" viewBox="0 0 168.42 51.83"><defs><style>.cls-1{fill:#65c1cf;}.cls-2{fill:#cc202c;}.cls-3{fill:#efc31a;}.cls-4{fill:#05bcc4;}.cls-5{fill:#84c442;}.cls-6{fill:#7c489c;}.cls-7{fill:#437dc0;}.cls-8{fill:#f48030;}.cls-9{fill:#bc4a9a;}.cls-10{fill:#038d8d;}.cls-11{fill:#fff;}.cls-12{fill:#231f20;}.cls-13{fill:#eb2127;}.cls-14{fill:#f06724;}</style></defs><g id="Layer_2" data-name="Layer 2"><g id="Layer_1-2" data-name="Layer 1"><g id="logos"><g id="coasting"><path class="cls-1" d="M56.29,45.05c-.16,0-.39.11-.47,0-.68-.57-1.41-.18-2.22-.19.28.43.53.54,1,.33s.38-.11.38.3c0,.2.09.14.17.15.55.06,1.1.13,1.65.16a1.93,1.93,0,0,1,.89.16,2.39,2.39,0,0,0,2,.22c.1,0,.61-.14.59.2s-.35,0-.53.07c-.94.09-1.89.15-2.83.24-.59.06-1.12.2-1.66-.37-.89-1-2.21-.78-3.41-.89-.8-.07-1.6-.08-2.4-.14-.35,0-.5-.28-.52-.6a.68.68,0,0,1,.79-.66c.52,0,1-.29,1.56-.07.34.14.47-.23.48-.5s-.15-.24-.31-.07l-.5,0c0-.8-.69-.41-1.07-.45-.57-.07-1-.14-.59-.83,1.06.08,1.92-.82,3-.53a5.42,5.42,0,0,0-1.92,0,1.77,1.77,0,0,1-1.48-.25.64.64,0,0,0-.28-.48c-.24-.23-.79-.29-.62-.73s.58-.2.9-.23.41,0,.48-.23a.56.56,0,0,0-.22-.57,1,1,0,0,0-.54-.19c-.21-.05-.5-.09-.48-.36s.26-.25.46-.28.49-.07.56-.37c-.62-.12-.74-.14-1-.06a12.83,12.83,0,0,1-5.2.1.4.4,0,0,1-.42-.33c-.05-.2.1-.28.25-.36s.44-.26.36-.56-.36-.41-.62-.48a4.8,4.8,0,0,0-.67,0c-.14,0-.29,0-.32-.19s.13-.28.31-.28c.34,0,.61-.08.65-.47.14-.74-.47-.25-.7-.38-.68-.38-.24.19-.29.35L40,35c-.14,0-.29,0-.33-.19s0-.25.14-.25c.67,0,1.36-.39,1.89-.35.78.06.59-.16.51-.57a5,5,0,0,1-.07-.56l1-.06c-.39-.41-1.15-.15-1.28-.8A.69.69,0,0,0,42,31.1c.43-.5.94-.34,1.43-.13a.76.76,0,0,0,.88-.22c.25-.26,0-.52-.2-.78a9.13,9.13,0,0,0,2.39.71c.81.15,1.72.39,2.58.61,0,.21-.28,0-.35.18a28.54,28.54,0,0,0,7.58.12,7.5,7.5,0,0,0-2.86-.37c.44-.44.94-.25,1.33-.31a5,5,0,0,1,2.74,0c.88.42,1.81-.46,2.52.33a.25.25,0,0,0,.23,0c.26-.27.57-.45.76,0s-.42.29-.59.49c1.15.68,1.15.68,3.8.3a5.72,5.72,0,0,0-2.44-.55,1.6,1.6,0,0,1,1.14-.32c1.07,0,2.14.06,3.2,0a1.18,1.18,0,0,1,1.18.69.47.47,0,0,1-.45.77,21.18,21.18,0,0,1-2.52.16c-.46-.07-.89-.19-1.34-.29a1.17,1.17,0,0,0-.72.13c-.55.23-1.12.45-1.58-.22-.22-.33-.66-.13-1-.17a9.71,9.71,0,0,0-2.07.17,2.47,2.47,0,0,0,2.44.76.59.59,0,0,1,.75.64c.14.53-.47.88-.34,1.41-.2.07-.29.36-.54.3s-.24-.32-.36,0,.12.37.27.41a1.93,1.93,0,0,0,.63,0c0,.28-.24.41-.37.61s0,.28.17.33c.51.12,1.52-.51,1.54-1a.72.72,0,0,1,.5-.68c.23-.09.45-.11.6.11s.31.44.11.8c-.31.55,0,.91.66,1,.76.11,1.67,0,2.07.91.09.19.15.35-.06.49s-.4.23-.63.09-.18-.3,0-.48c.29-.42,0-.56-.35-.56a3.2,3.2,0,0,0-1.74.74c-.21.15-.12.47.12.63a1.68,1.68,0,0,0,1,.39,3.23,3.23,0,0,1,2.18.92,11.66,11.66,0,0,0,2.47,1c.15.06.33.06.44.2a.43.43,0,0,1,0,.46c0,.07-.24.14-.27.11-.59-.5-1.38-.11-2-.42a4.66,4.66,0,0,0-2.48-.35c-.39,0-.83.07-.82.49s.49.53.84.47c.9-.13,1.82.44,2.7-.08a.45.45,0,0,1,.39,0,4.2,4.2,0,0,0,3.57.39c0,.56-.37.63-.83.65s-.81-.18-1,.32c-.58.11-1.31-.31-1.7.46-.11,0-.29,0-.29.19s.18.15.29.19v.43a6.46,6.46,0,0,1-2.43-.27,2,2,0,0,0-.91,0c-.38.06-.84.35-1.11.22-.75-.36-1.28.48-2,.22-.28-.1-.16.21-.15.33s.13.16.24.09c.9-.58,1.87-.23,2.81-.18.46,0,1.17.38,1.33.31a5.46,5.46,0,0,1,2.55-.38v.43a16.45,16.45,0,0,1-4.09.06,17,17,0,0,0-3.48.16c-.73,0-1.37-.33-2.08-.35-.09,0-.24,0-.18-.19.18-.59-.3-.5-.58-.44s-.9-.33-1.16.24Zm-4-12.67c-.24.07-.65-.18-.84.18s.27.39.36.65.42.38.6,0a.57.57,0,0,1,.59-.34c.08,0,.29.12.26-.13-.33,0-.05-.32-.24-.34A5.75,5.75,0,0,0,52.3,32.38ZM46.77,33c.26-.06.72.14.8-.18s-.44-.22-.65-.37l-.19-.15c-.37-.33-.51.15-.76.2s-.2.12-.13.28c.14.32.42.18.65.21Zm-2.49.34c1.52.29,1.52.29,1.87-.15A5.05,5.05,0,0,0,44.28,33.37Zm23,9.23H67c-.2,0-.53-.09-.51.23s.35.27.56.2a1,1,0,0,1,.64-.07c.19.06.34,0,.38-.14s-.18-.21-.33-.22Zm-3,.64c-.26,0-.64-.05-.64.32s.36.15.55.17.65.06.65-.31S64.46,43.31,64.26,43.24ZM51.13,44.91c-.64,0-1.26-.35-2-.13C49.82,45.28,50.48,45,51.13,44.91Zm5.81-.73c-.88-.52-1.52-.09-2.17,0Zm-7-12c-.42-.05-.67-.47-1.1-.45-.26,0-.28.17-.3.3s.17.15.29.15ZM61.44,43.42c-.41,0-.77,0-1.12,0s-.32.08-.28.29.16.16.31.1C60.69,43.69,61.1,43.73,61.44,43.42ZM44.81,31.61c0,.09,0,.18,0,.27.67-.27,1.38-.07,2.06-.27Zm9,11.94c-.47.08-.87-.11-1.21.16,0,0,0,.24.06.28.44.28.63-.36,1-.28C53.75,43.71,53.77,43.67,53.86,43.55Zm1.49-8.73a1.61,1.61,0,0,0,1.45-.1C56.16,34.66,55.75,34.55,55.35,34.82ZM49.93,39.7c.3.18.54.2.74,0a.17.17,0,0,0-.05-.28C50.35,39.3,50.15,39.45,49.93,39.7Zm-7-8s-.11-.07-.14-.05,0,.08-.07.12.11.07.14,0S42.92,31.73,42.94,31.69ZM60.79,45.24l0,0h.06Z"/><path class="cls-1" d="M141.38,38.65c-.23.44-.72.09-1.09.29a8.75,8.75,0,0,1-1.24.29,4,4,0,0,1-2.57.14c-.49-.19-.9.15-1.4.21.27.21.61,0,.9.27-1.14.23-2.26.88-3.3.56a9.76,9.76,0,0,0-2.14-.08.45.45,0,0,0-.53.22c.21.2.51,0,.91.21-1.34.32-2.39,1.22-3.74.9a4.18,4.18,0,0,0-2.39.32,7.61,7.61,0,0,1-3.46.63,2,2,0,0,0-1.37-.34c-.3-.61-.74-.28-1.14-.15h-.2v-.63c.61,0,1.19.4,1.86.16a2.45,2.45,0,0,0-2.69-.19,1,1,0,0,0-.24,0c-.32.08-.73.24-.85-.14s.27-.43.58-.52c.6-.19,0-.41,0-.62,1.1-.35,2.3,0,3.39-.54H119.3a.55.55,0,0,0-.54-.53c-.75-.08-1.5,0-1.62-1.06,0-.2-.4-.39-.17-.72a.38.38,0,0,0,0-.52c-.13-.15-.25-.33,0-.48a.42.42,0,0,1,.55,0c.32.37.79.37,1.2.5a.52.52,0,0,0,.56-.08c.15-.19,0-.34-.12-.51a1.36,1.36,0,0,0-1.57-.57c-.19,0-.73.1-.43-.23.5-.57,0-.58-.28-.75a2.51,2.51,0,0,0-2.24-.25c-.68.29-1.07-.61-1.75-.3-.11,0,.11-.42,0-.65s-.37-.19-.58-.2l-1.82-.08c.3-.25.73-.25.76-.71.48-.09,1,.08,1.46-.19a5.63,5.63,0,0,0-1.64,0,.94.94,0,0,1-1.17-.31c0-.31-.23-.29-.49-.25s-.58,0-.6-.25.29-.42.59-.45a4.65,4.65,0,0,0,.75-.06c.86-.24,1-.64.59-1.38a43.71,43.71,0,0,1,9-.47c-.38.24-.77,0-1.1.17a1.46,1.46,0,0,0,1.48-.17c.29-.14.49.28.82.11.11-.06.34,0,.44-.14s-.09-.27-.22-.34a.24.24,0,0,1-.12-.34c.06-.16.24-.16.36-.13a11.64,11.64,0,0,0,3.12.08,3.67,3.67,0,0,0,1-.23c-.54-.31-1-.12-1.38-.24l2.54-.45c.06.49-.48.37-.55.66.62.3.62.3.81-.39a2.31,2.31,0,0,1,1.7-.6,2.18,2.18,0,0,0,1.77,0,12.55,12.55,0,0,1,1.68-.43c.51-.06,1.22-.27,1.19.67,0,.13.24.07.37.08s.63,0,.61.36-.33.28-.58.3l-2.22.16c-.26-.17-.58,0-.86-.14a.4.4,0,0,0-.52.14c-.12.23.19.29.23.47s-.21.17-.37.17c-.09-.26-.4-.06-.54-.23.06-.15.37,0,.33-.32-.73.09-1.42.65-2.2.26,0,0-.2.06-.2.08s0,.23.11.27.45.2.67.3c-.16.54-.76.16-1,.47-.15,0-.24.15-.45.08-.37-.11-1-.46-1.11-.22-.3.51-.69.19-1,.3-.1,0-.22,0-.2.15h3.14l-.44.54c.62.65,1.23-.45,1.91.17-.14-.38-.17-.63-.56-.44a.55.55,0,0,1-.77-.27,11,11,0,0,1,3.23-.34c.46-.56.9-.32,1.33,0,.1.4.38.27.66.22.64-.11,1.54-.13,1.81.24a1.18,1.18,0,0,0,1.5.5c.3-.08.53.1.57.44s-.09.51-.43.57a4.54,4.54,0,0,1-.74.1,4.08,4.08,0,0,0-1.75.51c.47.22,1,.26.92.81.23.13.46.38.68.37s.9.43.81-.38c.63-.42,1.13.32,1.75.18.19,0,.5.06.53.29s-.31.29-.54.36a2.41,2.41,0,0,1-1.06.13c0-.3-.12-.83-.39-.49-.42.53-.88.21-1.28.36a1.33,1.33,0,0,0-.91-.5c-.4,0-.89-.12-.94.5s0,.91.73,1,1.21.69,1.79,1.08c-.22,0-.48.05-.64,0-.59-.39-1-.22-1.26.35.37.18.68-.42,1.06-.08,0,.4.22.51.56.45a8.06,8.06,0,0,1,1.77,0,.37.37,0,0,0,.3.33c.18,0,.75-.28.46.36,0,0,0,.06,0,0a3.16,3.16,0,0,1,1.3,0c.36.1.86.35,1.09-.31.08-.22.53-.21.75-.08a.72.72,0,0,1,.31.79c-.23,0-.35.12-.35.35a.46.46,0,0,0,.17.39Zm-29-8.47c2.88,0,5.75.41,8.59-.17a5.25,5.25,0,0,0-.67-.22,3.38,3.38,0,0,0-1.85-.12,4.91,4.91,0,0,1-2.89.34A6.34,6.34,0,0,0,112.4,30.18Zm8,1.67a2.55,2.55,0,0,0-.35-.12c-.78,0-1.57.05-2.34,0-.5-.05-.25.31-.35.45s-.12.41.23.55c.65.27,1.23-.14,1.86-.09C119.89,32.66,119.84,32,120.38,31.85Zm-10.06-.1a31.61,31.61,0,0,0,4.46,0l-1.16-.09c.41-.23.82,0,1.19-.24A9.22,9.22,0,0,0,110.32,31.75Zm23.58,6.51c.94-.09,1.87.66,2.8,0a.74.74,0,0,1,.63-.14c.19.06.42.13.44-.14s-.28-.18-.45-.2c-.83-.09-1.65.31-2.47.14A.89.89,0,0,0,133.9,38.26Zm-1.51-1.65a13.82,13.82,0,0,1-1.45.44c-.53.09-1,.33-1.5.46-.21.06-.51.05-.43.28s.34.13.6,0a9.66,9.66,0,0,1,2.23-.59c.64-.06.88-.55,1.33-.82a3.25,3.25,0,0,0-1.31-.1C131.94,36.69,132.21,36.36,132.39,36.61Zm-7.61,4.1a8.07,8.07,0,0,0,4.1-.16A27.62,27.62,0,0,0,124.78,40.71Zm4.65-.6,0-.22-2.8-.38C127.51,40.36,128.48,40.18,129.43,40.11Zm-.23-1a6.68,6.68,0,0,0,2.83.14,9.64,9.64,0,0,1-2.06-.41C129.49,38.65,129.36,38.78,129.2,39.12Zm-10.95-5.33c-.67.13-1.24-.08-1.74.26C117,34,117.65,34.59,118.25,33.79Zm11.57-1.47c-.2-.51-.6-.48-1-.37-.08,0-.21.12-.13.23.24.34.6.15.91.19A.79.79,0,0,0,129.82,32.32Zm-3.51,6c.62.28,1,.54,1.59.37C127.5,38.25,127,38.41,126.31,38.37Z"/><path class="cls-1" d="M96.37,45.19c-.24.48-.69.49-1.14.49l-4.53.06c-.39,0-.62-.1-.35-.51-.52.11-.61-.64-1.14-.53a1.6,1.6,0,0,1-.48-.05c-.23.19.1.39,0,.6s0,.34-.17.19c-.63-.47-.26.34-.6.3a.86.86,0,0,0,0-.39.3.3,0,0,0-.49-.09c-.36.41-.34.43-1,.42h-.63c.09-.08.13-.13.17-.14.21,0,.18-.07.4-.29A1.57,1.57,0,0,1,87.1,45c.09,0,.22.08.31.06.38-.09,1-.13,1-.46s-.6-.09-.83-.05a17.42,17.42,0,0,0-5.42,1.36c-.35.17-.45-.31-.74-.21-.06-.49-.11-1-.17-1.46a4.07,4.07,0,0,0,1.4-.39c-.41-.4-.9-.15-1.36-.12-.21-.5-1.06-.65-.85-1.42,0-.1-.25-.15-.43-.12a20.08,20.08,0,0,1-4.1-.09c-.24,0-.37-.14-.35-.35s.23-.12.37-.15c.41-.1,1,.22,1.16-.45.05-.27.11-.43.37-.43s.44.19.33.5.07.36.27.42a.45.45,0,0,0,.53-.14,1.07,1.07,0,0,0,.2-.91A.72.72,0,0,0,78,40.2c-1,.1-2.09.07-3.13.27a1.72,1.72,0,0,1-1.37-.23c-.35-.26-.35-.48,0-.79.53-.52,1.13-.2,1.54,0,.77.44,1.34-.16,2-.18.23,0,.17-.29,0-.46a.75.75,0,0,0-.9-.26.61.61,0,0,1-.92-.38c-.19-.45.05-.66.45-.78.17-.05.33-.11.27-.33s-.21-.16-.35-.17a.76.76,0,0,0-.79.33c-.17.3-.41.57-.61.86s-.35.38-.44.17c-.32-.8-1-.5-1.57-.54s-1.21,0-1.16-.59.79-.44,1.27-.46a2.7,2.7,0,0,1,.41.06,1.22,1.22,0,0,0,.81-.18.42.42,0,0,0,.26-.38c0-.21-.2-.21-.37-.24-.55-.1-1.1-.21-1.64-.33-.26-.06-.62-.08-.6-.43s.4-.33.6-.33c.82,0,1.08-.31.7-1,.29-.18.44.59.62.17s.51-.53,1-.41c.14,0,.29-.12.31-.4a10.12,10.12,0,0,1-2.75,0V33a.35.35,0,0,1,.42-.38c.76.32,1.32-.24,2-.32a16.74,16.74,0,0,1,2.35,0c-.1.39-.52,0-.69.3a4.49,4.49,0,0,0,3.88.24c-.74-.14-1.5-.06-2.23-.23-.2,0-.53,0-.55-.27s.36-.1.51-.23.42,0,.37-.23c-.25-.95.51-.64.86-.58a5.38,5.38,0,0,0,1.27,0c.36,0,.79.32.91.19.37-.39.78-.13,1.15-.2.19,0,.55-.11.52.21s-.14.61-.57.59H80.26a1,1,0,0,0,1.2.25c.93-.23,2,.09,2.81-.68.17-.16.63,0,1-.06.6-.08,1.22.19,1.81-.41.33-.35,1.14.09,1.74,0,.17,0,.09.15.06.23A.83.83,0,0,0,89,32s0,.14-.05.22a2,2,0,0,1-1.8.1.54.54,0,0,0-.67.32c-.15.29,0,.51.27.65l.52.25c-.08.34-.69.27-.63.77a8.37,8.37,0,0,0,1,0c.77-.15,1.5.24,2.25.07.21,0,.52-.11.6.15s-.25.29-.44.37a.83.83,0,0,0-.48.31c-.29,0-.51.09-.75.55.62-.42,1.12,0,1.6-.21-.22.61,0,.87.67.8a3,3,0,0,1,.82.14c.39.4.8,0,1.2,0,.5.67.68,1.63,1.85,1.69-.45.48-1.24.28-1.45.93.35.2.62-.12.93,0s.67-.14.74.16-.37.26-.6.37-.46,0-.56.34c.35.32.86.33,1.24.61s.41.93.77,1.2c.58.42.45.85.28,1.35a6.5,6.5,0,0,0-2.06.14c.85-.11,1.69.28,2.55,0h.21c.13.64.67.2,1,.35,0,.16,0,.32,0,.48a14,14,0,0,0-2.24.09c-.44.09-.29.21-.11.4v.11a12.87,12.87,0,0,0-3.16-.14c.48.2.61.5,1,.44.76-.11,1.53-.09,2.29-.13A.49.49,0,0,0,96.37,45.19ZM81.08,41.51a2.06,2.06,0,0,0,1.68.31c.34-.07-.06-.48.31-.4.06,0,0-.14-.06-.11C82.39,41.49,81.68,40.74,81.08,41.51ZM79.7,40.24c.75,0,1.48.4,2.25.1.19-.08.5,0,.42-.33s-.34-.21-.48-.14A6.3,6.3,0,0,1,79.7,40.24Zm-.48-6.33a10,10,0,0,0-3,0A12.1,12.1,0,0,0,79.22,33.91ZM91.4,43.52c.4,0,.82.21,1-.13,0-.13-.35-.63-.56-.64C91.11,42.72,92.19,43.49,91.4,43.52Zm-1.05-.79a1.88,1.88,0,0,0-1.88-.37C89.16,42.18,89.64,43,90.35,42.73Zm-2.46.57c.2.17.65.21.3.49-.15.13-.24.17-.16.33s.14.08.21.08c.24,0,.2-.2.24-.35C88.59,43.4,88.53,43.12,87.89,43.3Zm5-3.47c0,.18.19.16.33.16s.22-.06.21-.18a.25.25,0,0,0-.28-.23A.26.26,0,0,0,92.92,39.83Z"/><path class="cls-1" d="M96.37,45.19a.49.49,0,0,1-.49-.34l-.16-.17v-.11A9.17,9.17,0,0,1,98,44.7c.19,0,.48.12.56-.18s-.27-.35-.49-.44c0-.16,0-.32,0-.48a4.24,4.24,0,0,1,1.23,0c.15,0,.43,0,.4-.28s-.19-.16-.39-.15c-.74,0-1.49,0-2.23,0h-.21l-.49-.19c.17-.5.3-.93-.28-1.35-.36-.27-.33-.87-.77-1.2s-.89-.29-1.24-.61c.1-.3.38-.25.56-.34s.69,0,.6-.37-.49-.11-.74-.16-.58.25-.93,0c.21-.65,1-.45,1.45-.93-1.17-.06-1.35-1-1.85-1.69A8.11,8.11,0,0,0,95,36.19c-1.14-.21-2.15-.44-3.05.24a3,3,0,0,0-.82-.14c-.69.07-.89-.19-.67-.8l0-.06a.08.08,0,0,0,0-.07c-.27-.19-.65.1-.89-.21a.83.83,0,0,1,.48-.31c.19-.08.52-.07.44-.37s-.39-.11-.6-.15c0-.53-.24-.91-.75-.77a9.35,9.35,0,0,1-1.91,0l-.52-.25c-.3-.14-.42-.36-.27-.65a.54.54,0,0,1,.67-.32,2,2,0,0,0,1.8-.1c.45.15.6-.48,1.1-.3-.2-.25-.52-.18-.65-.48,2.1.15,4-1.21,6-.58l-1.54.42c.85,0,1.68.41,2.53-.15A2.06,2.06,0,0,1,98.39,31a1.71,1.71,0,0,0,.85.13c.65,0,1.24-.38,1.94-.13l0-.24-1.48-.09c-.05-.25.1-.27.24-.27a15.68,15.68,0,0,0,2.16-.15,1.29,1.29,0,0,1,1.43.36c.18.25.64.06,1,.13v.76c-.69-.12-1.44.22-2.08-.3a.47.47,0,0,0-.47,0,1.82,1.82,0,0,1-1.26.29c-.16,0-.36,0-.38.2s.22.11.34.15c1,.37,2.07-.15,3.12-.05.58.06,1.43.21,1.52.49.3.89.89.47,1.39.49a1.12,1.12,0,0,0,.8.35c.72.11,1,.63,1,1.29s-.21,1-1,1.09a1,1,0,0,0-1,1,.32.32,0,0,0,0,.14c-.62,0-1.07.44-1.65.56-.2,0-.48.17-.32.45s.33,0,.51,0a4.52,4.52,0,0,1,2.07,0c.4.12.74.23.25.68s.07.43.27.55c.84.5,1.93.44,2.72,1.09a1.27,1.27,0,0,0,1.33.19,1.21,1.21,0,0,1,1.11.21c.48.45,1,.3,1.46.23s1.27,0,1.9,0c.3,0,.94.45.78-.41h.33c0,.21.61.43,0,.62-.31.09-.69.2-.58.52s.53.22.85.14a1,1,0,0,1,.24,0l.83,0c0,.21,0,.42,0,.63-.43-.08-.86-.35-1.35,0,.49.38.92.65,1.34,0h.21c.27.46.36.48.39.38.12-.53.49-.2.75-.23a2,2,0,0,1,1.37.34,49.35,49.35,0,0,1-8.42.31c-.64,0-1.32-.35-1.89.29l.91.09c-1.92-.06-3.8.36-5.71.37.46.37,1.09.17,1.57.51-2.42.17-4.77,1-7.23.33.19.19,0,.44.3.55s0,.3-.09.42c-.44-.5-.86.06-1.29,0-.59,0-1.18,0-1.77,0,0-.17.16-.16.27-.16s.6,0,.53-.34-.37-.08-.56-.06A4.42,4.42,0,0,0,96.37,45.19Zm11.87-2.76-.36-.06c-.16,0-.29,0-.28.17s.09.17.24.15a9.31,9.31,0,0,1,3,.23c.08,0,.25.09.18-.18s.21-.43,0-.65-.15-.08-.28,0A7.8,7.8,0,0,1,108.24,42.43ZM95.56,32.3c1.25.83,2.51.41,3.82.36-.12-.13-.17-.23-.22-.23a5.79,5.79,0,0,0-1.44,0c-.63.16-.64.14-.87-.44-.07-.17-.3-.16-.33-.1C96.33,32.3,95.94,32.16,95.56,32.3Zm2.49,8.13a14.73,14.73,0,0,1,2.1,0c.21,0,.41-.09.39-.32s-.27-.16-.41-.15A6,6,0,0,0,98.05,40.43Zm9.36.66c-.25-.7-.72-.2-1.08-.26-.17,0-.34,0-.31.26a.24.24,0,0,0,.38.17C106.71,41.07,107.06,41.2,107.41,41.09ZM93.94,33.25c.41.28.74-.09,1.11-.1a.38.38,0,0,0,0-.21,1.32,1.32,0,0,0-1,0C94,33,94,33.14,93.94,33.25Zm9.84,8.86c-.27,0-.56,0-.83,0s-.47-.1-.43.21.32.32.54.25S103.49,42.18,103.78,42.11ZM92.29,31.93c.28.69.64.22,1,.12.13,0,.17,0,.07-.18C92.9,31.26,92.64,32,92.29,31.93Zm23.32,10.81c-.61-.88-1.06.3-1.38,0Zm-13.08-9.17a1.2,1.2,0,0,0-1.4,0C101.72,33.62,102.09,34,102.53,33.57Zm.2,2.54c-.45.11-1-.21-1.4.26A1.59,1.59,0,0,0,102.73,36.11Zm.35-5.52c-.51-.09-.73,0-.91.14,0,0,0,.16.1.18C102.55,31,102.68,30.76,103.08,30.59Z"/><path class="cls-1" d="M49.25,42.11c-.43.69,0,.76.59.83.38,0,1-.35,1.07.45-.53.11-1.12-.12-1.76.21.88.38,1.55-.07,2.26-.17.16-.17.32-.18.31.07s-.14.64-.48.5c-.56-.22-1,.12-1.56.07a.68.68,0,0,0-.79.66h-1c.06-.41.12-.77.17-1.14s.42-.36.2-.61a.59.59,0,0,0-.76-.11c-.23.11-.43,0-.63-.12a5.26,5.26,0,0,0-2.69-.43c-.13,0-.14.14-.14.25,0,.52-.38.94-.87.8a7.55,7.55,0,0,0-1.41-.13c-.17,0-.47.19-.48-.22s.35-.23.53-.24c.5,0,1,0,1.6,0-.17-.22-.23-.54-.49-.45-1.17.37-2.32,0-3.48-.06-.79,0-1.52.27-2.31.21-.16,0-.27,0-.41-.1s-.14-.08-.2.17a.31.31,0,0,1-.22.2,4.86,4.86,0,0,1-2.93-.51.3.3,0,0,1-.09-.28c.13-.2.45-.28.56-.18s.45.17.68.25c.35.65.85.15,1.29.13l-1.2-.2c-1.12-1-2.49-.74-3.82-.68-.45,0-.9,0-1.34,0s-.77.07-.66-.43c.05-.29-.07-.69.7-.65,1.05.05,2.14,0,3.22,0,.35,0,.63.35,1,.27H34c.54.46.57.24,1.11.31a5.19,5.19,0,0,0,1.67.17s0,0,0,.06c-.14.84.48.4.79.41.5,0,1-.3,1.53-.13-.28-.41-.35-.63.25-.67,1-.07,2.07.35,3.19,0-.49-.18-3-.19-3.5-.27-1.32-.19-2.6.2-3.91.11a.78.78,0,0,1-.65-.39c-.08-.39.24-.91-.31-1.16-.37-.17-.81-.11-1-.65-.1-.25-.68-.22-.69.35-.5.08-1-.08-1.51.16-.17-.33-.52-.24-.8-.33s-.83,0-.84-.51.45-.32.72-.42.41,0,.37-.32-.2-.31-.41-.33a1.44,1.44,0,0,1-.65-.14c-.12-.08-.23-.3-.1-.29.69,0,.81-1,1.54-.79a.73.73,0,0,0,.73-.28.3.3,0,0,0,0-.29A.68.68,0,0,0,30.8,35a2.61,2.61,0,0,1-1.92-.28c-.42-.16-.5-.42-.09-.71.18-.12.43-.2.3-.48a.52.52,0,0,0-.53-.34c-1,.18-1.67-.66-2.56-.82-.31,0-.51-.25-.16-.46.58-.35.19-.45-.1-.65-.49-.34-1.07-.61-1.1-1.31l.5,0c.22,0,.54,0,.57-.21s-.32-.19-.49-.29A2.3,2.3,0,0,0,23.47,29c-.11,0-.77-.11-.68-.64h0c.82.39,1.7-.07,2.53.16a4.62,4.62,0,0,0,.57.07l-.81.66c.42.21.69-.18,1-.19a7.1,7.1,0,0,1,3.89.75c.45.26.72-.25,1.18-.35-1.63-.33-3.11-1-4.92-.72.42-.59.83-.25,1.15-.33a5.77,5.77,0,0,1,2.46-.1c1.26.34,2.56,0,3.81.53.68.29,1.67.08,2.47.33a6.8,6.8,0,0,0,3.58.4c-.62.78-1.33.65-1.94.84a21.18,21.18,0,0,0,3.56-.08c0,.22.15.3.36.31.1.17.21.34.32.5a.69.69,0,0,1-.17,1.09l-.49,0H41c-.15,0-.36-.06-.42.12s.14.17.25.2c0,.22-.24.53.28.49.35,0,.7,0,1,0a5,5,0,0,0,.07.56c.08.41.27.63-.51.57-.53,0-1.22.32-1.89.35-.1,0-.17.12-.14.25s.19.17.33.19l1.49.16,1,0c0,.39-.31.46-.65.47-.18,0-.35.06-.31.28s.18.18.32.19a4.8,4.8,0,0,1,.67,0c.26.07.54.17.62.48s-.12.44-.36.56-.3.16-.25.36a.4.4,0,0,0,.42.33,12.83,12.83,0,0,0,5.2-.1c.26-.08.38-.06,1,.06-.07.3-.33.33-.56.37s-.44.06-.46.28.27.31.48.36a1,1,0,0,1,.54.19.56.56,0,0,1,.22.57c-.07.24-.29.21-.48.23s-.77-.14-.9.23.38.5.62.73a.64.64,0,0,1,.28.48H46.8C47.57,41.8,48.54,41.53,49.25,42.11Zm-4.14-1.42c-.23,0-.49-.35-.66-.09s.15.34.37.38c.14.23.4.12.6.19s.7,0,.71-.33-.39-.14-.61-.18A1.89,1.89,0,0,0,45.11,40.69ZM33.43,30c1.15-.34,2.17.38,3.3,0-.53-.36-.82-.9-1.55-.74S33.87,29.08,33.43,30Zm7.06,9c.47.09.71-.09.79-.46s-.13-.51-.34-.43c-.43.14-1.16-.14-1.24.49C39.64,39,40.3,38.8,40.49,39Zm3.66-.1a2.91,2.91,0,0,0,2.11.45c.21,0,.52,0,.5-.25a.43.43,0,0,0-.55-.37A11,11,0,0,1,44.15,38.9ZM33,31.92c.33.45.71.72,1.2.29.1-.09.41,0,.3-.23a.54.54,0,0,0-.31-.24C33.79,31.63,33.43,31.92,33,31.92ZM31.3,34c0-.89,0-.89-1.28-.72ZM29.36,29.9c-.57-.54-1.09,0-1.63,0C28.28,30.22,28.81,29.77,29.36,29.9Zm-3.29.66h1.14C26.6,29.86,26.41,29.85,26.07,30.56Zm10.26,5.56a2.67,2.67,0,0,0,1.33-.37A1,1,0,0,0,36.33,36.12Zm-3.54-4.76c.19.28.49.2.75.2s.29,0,.26-.19c0-.07.05-.19,0-.22s-.3-.11-.36,0C33.29,31.5,33,31.11,32.79,31.36Zm-.39,4.81a1.15,1.15,0,0,0-.86.3C32,36.65,32.14,36.49,32.4,36.17Zm4.84-4.12c-.09-.06-.14-.12-.2-.13a.29.29,0,0,0-.19.09c0,.13.07.18.18.17S37.15,32.11,37.24,32.05Zm3.12,4.22c-.06.06-.14.11-.14.16s.09.12.14.13.23,0,.19-.16S40.44,36.32,40.36,36.27Zm3,3.31c.05-.13,0-.18-.1-.18a.26.26,0,0,0-.2.05c-.06.11,0,.2.13.2A.38.38,0,0,0,43.4,39.58Zm-10.87-8c-.07.21-.12.29-.1.34s.12.06.18.07.07-.09.06-.13A2.28,2.28,0,0,0,32.53,31.58Zm-.26-.1.06,0v-.05Zm.16-.3,0,0v-.06Z"/><path class="cls-1" d="M8.79,28.8c-.11.11-.29.21-.31.34s-.67.07-.34.43.44.6.91.41a7,7,0,0,1,1.17-.38c.3-.05.64-.65.94,0,.09.2.4,0,.51-.09a2.88,2.88,0,0,1,2.45-.16c1,.28,1.94.28,2.87.59.57.19,1.2-.29,1.75.15.12.36-.31.95.35,1.08.43.09.88.1,1.32.17a.56.56,0,0,0,.65-.51c.05-.35-.25-.39-.55-.45a10.8,10.8,0,0,1-1.11-.32s-.06-.1-.1-.12c-.33-.18-1.06-.11-.9-.58s.77,0,1.09.13c1.33.55,2.85.49,4.09,1.27.19.12.22-.08.31-.15.18.33.57.29.85.47s.43.19.38.47c-.08.5-.31.54-.74.24-.26-.17-.71-.27-.86.11s.26.41.52.48a2.51,2.51,0,0,1,1.28,1c.12.16.46.25.22.5s-.48,0-.56-.14c-.4-.87-1.27-.69-2-.85a8.22,8.22,0,0,1-1.12-.39,3.94,3.94,0,0,0-2.45,0c-.23.06-.58.39-.56.55.07.48,1,.62.62,1.35a.57.57,0,0,0,.31.22,7.23,7.23,0,0,0,1.73.11.88.88,0,0,1,1.09.59c-.35.33-.84,0-1.3.26.72.13,1.36.26,2,.36.27,0,.6.07.41.38s.64.18.28.65c-.09.11.66,0,.66-.11.05-.6.47-.39.8-.4.09.93.35,1.12,1.2.76.7-.29,1.28.06,2,.13-.35.3-.72.28-.88.56-.44-.09-.56.44-1.1.36.49.45.75.9,1.27,1.07l.06.1c-.35.28-.42.55.15.81a14.94,14.94,0,0,0-2.72.15c-.1,0-.21.07-.32.08-.45.06-1.13,0-1.21-.26-.16-.46.53-.37.81-.6a2.4,2.4,0,0,1,.26-.18,4.66,4.66,0,0,0-3.6-.17c-1.51.42-2.82-.08-4.22-.22-.69-.06-1.4,0-2.09-.08a11.87,11.87,0,0,1-2.68-.82c.83-.35.83-.35-.15-1.11.42,0,.81.32,1.12-.09,0-.05.32.29.4.52s-.33.11-.06.25a.48.48,0,0,0,.31,0c0-.73.72-.3,1-.51,0-.36-.23-.43-.55-.43a2.68,2.68,0,0,1-1.65-.29c-.38-.25-.59.28-.86.47a2.35,2.35,0,0,0-.45.59l.94.26c-1.09.29-1.46.14-2-.86-.11.18-.2.34-.3.49s-.24.29-.38.47c-.53-1.48-2.07-.53-3-1.16.27-.26.68,0,1-.31-1-.16-1.85-.32-2.75-.44-.32,0-.58-.13-.56-.44s.23-.33.59-.29.73-.44,1.18-.14c-.08-.57.33-.45.66-.44l.1.1c.07-.07,0-.13,0-.17-.07-.33.18-.47.41-.63-.15-.19-.47-.17-.5-.07-.14.36-.2.35-.31,0s-.21-.44-.54-.28c-.72.33-.81-.33-1.09-.67a.23.23,0,0,1,.07-.35.28.28,0,0,1,.37.08,1.69,1.69,0,0,0,1.82.47s.06,0,.08,0c1.48.59,3.08,0,4.59.4a.91.91,0,0,1,.42.24c.27.26.41.35.64-.1s.77,0,1.16-.24c-.27-.24-.89,0-.82-.63,0,0-.17-.09-.22-.06-1.15.55-2.38.08-3.57.2a5.46,5.46,0,0,1-2.84-.83,5.77,5.77,0,0,0-2.15-.44,6,6,0,0,1-1.13-.34,2.81,2.81,0,0,1,1.88.16,1.83,1.83,0,0,0,2.09-.32c-1.09-.12-2.26-.28-3.44-.38-.23,0-.48.17-.72.25s-.4-.12-.54-.27-.08-.24,0-.36.36-.05.52,0c.48.26.51.06.77-.35s1-.36.69-1.06c.13,0,.28.11.39.07.34-.12.8-.09,1-.75-.65.49-1.32.27-1.95.51s-1.39.73-2.21.31c-.4-.21-.54-.68-1.25-.83.56-.08.87.07,1.15-.12.07-.05.21,0,.32,0,0,.49.49.24.66.46a.11.11,0,0,0,.08,0c.51-.81,1.37-.21,2-.46.14-.05.27-.1.29-.27-1.39.2-2.57-.56-3.87-.77A.25.25,0,0,1,1.14,27c-.12-.52-.11-.52-.71-.6A2,2,0,0,1,0,26.17c.7-.13,1.27.09,1.86-.2s1.23.46,1.44,1.18c.1.35.41.17.62.17,1.77,0,3.53.28,5.3.23.11,0,.23.13.38.22-.11.08-.21.21-.28.2-.87-.22-1.58.47-2.43.39-.09,0-.37.06-.33.26a.32.32,0,0,0,.35.27,1.48,1.48,0,0,1,.86.08c.32.1.4.22.22-.23-.08-.2.52.13.81.07ZM13.32,36v.09l.57.06c1,.16,1,.16,1.38-.42a.28.28,0,0,1,.21-.07c.37.48,1.4-.47,1.53.72,0,.33.87.19,1.26,0a4.82,4.82,0,0,1,2.53.05H19.06a3,3,0,0,0,2.52-.07c-1.14-1.09-2.91,0-4.11-1.07-1.36.66-2.77-.3-4.37.1.77.08,1.37-.08,1.94.43Zm5.2,2.48c-2.58-.7-2.58-.7-3.27,0ZM8,31.07c.66.5,1.6-.23,2.23.52.16.2.63-.13.69-.44s-.35-.32-.59-.39c-.44-.14-.88.25-1.29,0S8.32,30.72,8,31.07Zm6.86-.35c-.3-.22-.63,0-.94-.31s-.68-.06-1-.15-.31.41-.61.35c0,.29.29.22.41.28C13.49,31.23,14.17,30.62,14.9,30.72ZM7.67,30c-.43-.12-.85-.26-1.28-.37a.35.35,0,0,0-.47.21c-.19.49.26.12.38.26C6.73,30.56,7.19,30,7.67,30Zm17,8.08a3.71,3.71,0,0,0-2.35.23A3.43,3.43,0,0,0,24.64,38.08ZM7,31.61a2.61,2.61,0,0,0,1.61,0A2.14,2.14,0,0,0,7,31.61Zm.32,3.08.19.09s.06-.09,0-.09a.75.75,0,0,0-.17-.14Z"/><path class="cls-1" d="M72.48,33.82c.38.73.12,1-.7,1-.2,0-.58,0-.6.33s.34.37.6.43c.54.12,1.09.23,1.64.33.17,0,.35,0,.37.24a.42.42,0,0,1-.26.38,1.22,1.22,0,0,1-.81.18,2.7,2.7,0,0,0-.41-.06c-.48,0-1.22-.06-1.27.46s.66.55,1.16.59,1.25-.26,1.57.54c.09.21.32,0,.44-.17s.44-.56.61-.86a.76.76,0,0,1,.79-.33c.14,0,.3,0,.35.17s-.1.28-.27.33c-.4.12-.64.33-.45.78a.61.61,0,0,0,.92.38.75.75,0,0,1,.9.26c.12.17.18.45,0,.46-.67,0-1.24.62-2,.18-.41-.23-1-.55-1.54,0-.32.31-.32.53,0,.79a1.72,1.72,0,0,0,1.37.23c1-.2,2.09-.17,3.13-.27a.72.72,0,0,1,.78.35,1.07,1.07,0,0,1-.2.91.45.45,0,0,1-.53.14c-.2-.06-.35-.19-.27-.42s0-.49-.33-.5-.32.16-.37.43c-.12.67-.75.35-1.16.45-.14,0-.35-.09-.37.15s.11.35.35.35a20.08,20.08,0,0,0,4.1.09c.18,0,.46,0,.43.12-.21.77.64.92.85,1.42-.12.06-.31,0-.36.2l-.11.1c-.34,0-.68.15-1,0-.17-.09-.19.12-.2.25-.08.35-.23.46-.53.17-.08-.19-.32-.4-.42-.28-.46.53-1,.11-1.44.13s-.64,0-.84.21c.3.61.84-.07,1.19.26-.09.43.28.6.52.85-1.18.84-2.51.39-3.79.4-.51,0-1-.34-1.5-.27-.21,0-.59.14-.34-.34.06-.11-.17-.15-.25-.11-.61.27-1.14-.06-1.71-.12a2.8,2.8,0,0,0-1.88.31.85.85,0,0,1-.64.08v-.43l.58-.09c-.34-.16-.68,0-.92-.29v-.43c.62-.27,1.29.45,1.91-.13-.66.05-1.26-.27-1.91-.25.39-.77,1.12-.35,1.7-.46.53.3,1.1-.22,1.64.08,0,0,.29-.14.3-.23,0-.46.39-.31.66-.34s.39,0,.35-.19-.28-.12-.43-.11c0-.21-.07-.44-.36-.17h-.31a4.2,4.2,0,0,1-3.57-.39.45.45,0,0,0-.39,0c-.88.52-1.8,0-2.7.08-.35.06-.84-.06-.84-.47s.43-.46.82-.49a4.66,4.66,0,0,1,2.48.35c.63.31,1.42-.08,2,.42,0,0,.23,0,.27-.11a.43.43,0,0,0,0-.46c-.11-.14-.29-.14-.44-.2a11.66,11.66,0,0,1-2.47-1,3.23,3.23,0,0,0-2.18-.92,1.68,1.68,0,0,1-1-.39c-.24-.16-.33-.48-.12-.63a3.2,3.2,0,0,1,1.74-.74c.35,0,.64.14.35.56-.14.18-.16.35,0,.48s.43,0,.63-.09.15-.3.06-.49c-.4-.93-1.31-.8-2.07-.91-.61-.09-1-.45-.66-1,.2-.36,0-.56-.11-.8s-.37-.2-.6-.11a.72.72,0,0,0-.5.68c0,.5-1,1.13-1.54,1-.21,0-.31-.14-.17-.33s.38-.33.37-.61c.23,0,.55-.11.55-.32s-.28-.36-.55-.38c-.13-.53.48-.88.34-1.41.2-.09.48.22.6-.05C62,32.49,63,33,63.88,32.89c.23.43.45.43.68,0l6.18,0a1.72,1.72,0,0,1,.89.15v.15a1.73,1.73,0,0,1-.36.18,20.55,20.55,0,0,1-2.92.33c-.12,0-.12,0-.09.19v.44l-1.21.06a5.31,5.31,0,0,0,2.38,0V34A14.05,14.05,0,0,1,72.48,33.82Zm4,9.56c.47.14,1-.45,1.41,0s.59-.16.9-.07c0,0,.17-.17.15-.23s-.19-.2-.23-.18C78,43.29,77.07,42.46,76.48,43.38Zm-2.22-.63a.39.39,0,0,0-.44-.3c-.24,0-.44.09-.47.35s.13.28.31.27A.6.6,0,0,0,74.26,42.75Zm.51,2C74.4,44,74,44,73.08,44.34A2.11,2.11,0,0,1,74.77,44.8Zm-7.22-8.45a.25.25,0,0,0-.28-.23c-.14,0-.29,0-.31.19s.13.27.31.27A.25.25,0,0,0,67.55,36.35Zm-6.24-2-.06.14s.1.06.14,0,0-.09.06-.13Z"/><path class="cls-1" d="M131.41,28.32l2.22-.16c.25,0,.57,0,.58-.3s-.34-.33-.61-.36c-.28-.51-.13-.8.48-.69a16.73,16.73,0,0,0,2.74.07c0,.35,0,.64.43.74.14,0,.29.05.35-.1.16-.39-.42-.27-.43-.56,0,0,0-.05,0-.08l.66,0,0-.11a5.15,5.15,0,0,0-1.58-.18c-.4.09-.52-.19-.79-.25.23-.19.5-.57.68-.54.63.12,1.25-.16,1.86,0-.12.48-.85,0-.91.54.13.14.31.09.45.06.48-.09.95-.26,1.08.46a.45.45,0,0,0,.66.25,1,1,0,0,1,.88-.06l.06.08c-.07.34-.41.19-.62.32.49.33,1.18,0,1.61.55.22.28.57-.25.89-.1.54.25.36-.2.4-.4s.2-.11.29-.11l1.76,0c0,.45.11,1-.65.95a5.06,5.06,0,0,0-1.4-.16c-.23,0-.49.1-.41.36s.36.37.54.22c.35-.31.7-.13,1.06-.1a2.25,2.25,0,0,0,1.44,1s.07.19.1.29c.19.44-.22.47-.42.42-.87-.2-.87.26-.76.84v.2c-.2.28-.6.22-1,.47a4.57,4.57,0,0,0,1.69-.14c.07,0,.26-.13.31.09.16.69.16.65.82.71s1.11-.23,1.67,0v.16c-.77-.07-1.26.67-2,.62-.26,0-.55.05-.82,0,0-.22.28-.44,0-.66s-.53,0-.77.08c-.42.1,0,.39-.08.58l-2.48.21c0-.11,0-.21,0-.32.47-.09,1.07.17,1.36-.49a.74.74,0,0,1-.86-.49c0,.57,0,.57-.65.8-.2,0-.53-.1-.57.12s.29.3.51.36a1.75,1.75,0,0,0,.24,0c-.28.34-.47.74-1.09.64s.43.35-.06.28c-.27,0-.49.38-.89-.08s-1.14,0-1.72.17c-.13,0,.07.19.17.25l.2.1c.23.28.09.45-.2.54s-.46,0-.56.08-.73-.14-.65.37.5.11.72.24c0,.16,0,.32,0,.48a.4.4,0,0,1,0,.15,8.06,8.06,0,0,0-1.77,0c-.34.06-.6,0-.56-.45.32-.08.67.16,1,0s-.09-.11-.12-.18c-.58-.39-1.08-1-1.79-1.08s-.77-.46-.73-1,.54-.5.94-.5a1.33,1.33,0,0,1,.91.5c-.11.33-.48.26-.91.46h1.23c1,.68,1.27.62,1.35-.33h0a2.41,2.41,0,0,0,1.06-.13c.23-.07.57,0,.54-.36s-.34-.33-.53-.29c-.62.14-1.12-.6-1.75-.18h-1.49c.07-.55-.45-.59-.92-.81a4.08,4.08,0,0,1,1.75-.51,4.54,4.54,0,0,0,.74-.1c.34-.06.48-.24.43-.57s-.27-.52-.57-.44a1.18,1.18,0,0,1-1.5-.5c-.27-.37-1.17-.35-1.81-.24-.28,0-.56.18-.66-.22s.84.07.51-.54a.81.81,0,0,0-1.35,0c-.35,0-.58.1-.49.5a11,11,0,0,0-3.23.34H127v-.31c.27-.31.87.07,1-.47a3.41,3.41,0,0,0,1.83-.36c.16,0,.29,0,.37-.17A3.49,3.49,0,0,0,131.41,28.32Zm4.39,1a3.27,3.27,0,0,0-2-.49c-.3.25-.45.51,0,.69a4,4,0,0,0,1.36.3C135.56,29.78,135.79,29.65,135.8,29.28Zm2.49,1.2c1,.72,2.05.32,3.28.26A7.06,7.06,0,0,0,138.29,30.48Zm.86-.67c-.35-.91-1.57-1.08-2.59-.57C137.38,29.56,138.29,29.08,139.15,29.81Zm2.25.44c.29.38.56-.07.83,0l.32.08c.3.11.26,0,.17-.21-.17-.34-.41-.14-.63-.06S141.59,30,141.4,30.25Zm.4-1.41c-.12,0-.22,0-.23.17s0,.24.16.21A.37.37,0,0,0,142,29C142,28.94,141.94,28.84,141.8,28.84Zm-3.35-1.17c.06-.06.14-.12.13-.16s-.09-.12-.14-.13-.22,0-.19.17S138.37,27.62,138.45,27.67Z"/><path class="cls-1" d="M145.25,30c0-.1-.05-.28-.1-.29a2.25,2.25,0,0,1-1.44-1l.21-.32c.76,0,.64-.5.65-.95a1,1,0,0,1,1.31-.22c.77.57,1.61.24,2.47.4-.35.11-.64.19-.93.3a.22.22,0,0,0-.11.33c0,.05.17.1.18.09.58-.67,1.1.1,1.65.1a5,5,0,0,1,1.68.09c-.61-.58-1.47-.05-2.12-.46.12-.3.37-.09.49-.1.4,0,.27-.34.33-.47.15-.32-.19-.23-.34-.24-.35,0-.73,0-.72-.47s.48-.32.76-.34c.67,0,1.45.2,2-.06a10.34,10.34,0,0,1,1.92-.34c1-.3,2,.2,3,.1.24,0,.47.27.48.46s-.29.29-.5.31c-.63,0-1.23-.07-1.78.48s-1.13.16-1.71.17c-.77,0-1.55,0-2.38,0a.41.41,0,0,0,.52.19,17.39,17.39,0,0,1,3,.1,8.81,8.81,0,0,1,2.69.35c.32-.62.71.1,1.07-.06A4.44,4.44,0,0,1,159,28a4.17,4.17,0,0,1,.5,0c.19,0,.46.09.45.26s-.24.21-.43.11-.31.08-.46.13-.1.58-.47.44c-.81-.3-1.69.35-2.47-.19-.06-.11-.11-.22-.17-.34a.26.26,0,0,0,.08.41.25.25,0,0,1,0,.07c-.24.26-.93.29-.81.58s.8.22,1.2.18c1.12-.12,2.23-.34,3.34-.53.46-.08.81.15,1.36.45a2.65,2.65,0,0,0,1.78,0,1,1,0,0,1,1.34.61,7.58,7.58,0,0,0-2.07-.11,7.51,7.51,0,0,1-1.84-.17c-.16.43.68.29.42.62s-.62-.19-1-.09c0,.25.09.52.38.42.51-.17,1.28.55,1.6-.43a7.6,7.6,0,0,1,1.34.16c-.17.24-.46,0-.68.27.47-.08.75.23,1.12.35h0c.19.85.89.46,1.35.44s.64-.15.93.16c-.93.48-1.87.05-2.77,0a20.74,20.74,0,0,0-3-.26c-.33,0-.35,0-.25-.34s-.1-.13-.15-.14-.34-.19-.36.12,0,.35-.24.35c-1,0-1.95.61-3,.16s-1.83.21-2.76.07a7.93,7.93,0,0,1,2.47.5c-.07.16-.34.06-.38.26h0c-.75-.37-1.47,0-2.2.12l-.54-.22c-.18.18.36.47-.05.56-.22,0-.49-.12-.74-.19.29-.14-.46-.71.33-.71.23,0,.93,0,.55-.67.58-.12,1.32.11,1.87-.44-1.16.14-2.35-.45-3.51.37-.48.33-1.32.2-2.18.31a5.14,5.14,0,0,0,2.05.4c.17,0,.46-.1.47.17s-.26.3-.49.31h-1c-.51,0-.47,0-.77.56-.1.16-.47.2-.73.24s-.38.09-.37-.25a.41.41,0,0,0-.43-.41v-.16c.12-.07.4-.13.12-.28a3.37,3.37,0,0,0-.87-.23c.4-.41.9-.14,1.36-.19-.22-.35-.53-.2-.79-.26-.67-.17-1.17.49-1.83.35,0-.07,0-.13,0-.2-.39-.62-1-.17-1.5-.29v-.2c.15-.15.34-.44.44-.42.78.19,1.07-.59,1.9-.66A2,2,0,0,0,145.25,30Zm7.9-1c-.15,0-.3-.24-.43-.06s.07.35.18.48.3.08.46.05l-.15-.39a2.52,2.52,0,0,1,1.28,0A1.14,1.14,0,0,0,153.15,29ZM156,30.58l.07.08c.15.58.95.76,1.77.38-.31-.2-.68.14-1-.1.14-.34.53-.05.78-.41-.72.39-.72-.52-1.36-.46-1,.11-1,0-1.49.31C155.17,30.69,155.6,30.57,156,30.58Zm-7.41-.3c-.14.07-.42.19-.37.25a2.17,2.17,0,0,0,1.27.53c.08,0,.17,0,.2-.15.13-.62-.53-.4-.91-.78h4.56v-.21c-1.18.17-2.31-.25-3.49-.14-.43,0-.91,0-1.19.43ZM160,30.11c-.47-.42-.94-.45-1.13-.23s-.11.77-.37,1.11c0,0,.2.22.32.33.08-.14.25-.29.22-.4C158.85,30.27,159.14,30,160,30.11Zm-1.37-1.63c-.75-.4-1.51-.08-2.26-.08A3.2,3.2,0,0,0,158.6,28.48Zm-4.08-1.83a3.38,3.38,0,0,0-2.18-.11C153.18,26.9,153.85,26.6,154.52,26.65Zm-4.2,2.45c.57.42.57.42,1.05.11C151.06,28.88,150.7,29,150.32,29.1Zm7.89,1.35-.08-.1s0,0,0,0a.5.5,0,0,0,0,.13Z"/><path class="cls-1" d="M27.83,37.91c.16-.28.53-.26.88-.56-.75-.07-1.33-.42-2-.13-.85.36-1.11.17-1.2-.76.39.15.58-.15.82-.34a2.88,2.88,0,0,1,.81-.09c.38.06.79.18.86-.31s-.41-.64-.81-.74-.72.12-1-.11c-.75-.68-.89-.13-1.05.44h-.49c-.11-.18-.23-.18-.35,0h-.66a.41.41,0,0,0-.69,0h-.32a.88.88,0,0,0-1.09-.59,7.23,7.23,0,0,1-1.73-.11.57.57,0,0,1-.31-.22c.4-.73-.55-.87-.62-1.35,0-.16.33-.49.56-.55a3.94,3.94,0,0,1,2.45,0,8.22,8.22,0,0,0,1.12.39c.71.16,1.58,0,2,.85.08.16.36.36.56.14s-.1-.34-.22-.5a2.51,2.51,0,0,0-1.28-1c-.26-.07-.66-.14-.52-.48s.6-.28.86-.11c.43.3.66.26.74-.24.05-.28-.2-.35-.38-.47s-.67-.14-.85-.47a5.43,5.43,0,0,0-2.46-1.06l-.16-.27c.21-.17.25-.35,0-.52h0c-1.48-1.19-3.38-1.45-5-2.17A1.61,1.61,0,0,1,18,26.7c.41.46.89.24,1.34.34a6.25,6.25,0,0,1,1.41.5,4.92,4.92,0,0,0,1.92.4c.78,0,0,.27.07.38h0c-.15,0-.25.2-.46.11-.47-.2-.48-.18-.77.28a6.1,6.1,0,0,1,1.8.51c.5.19.68.79,1.28.76,0,.7.61,1,1.1,1.31.29.2.68.3.1.65-.35.21-.15.41.16.46.89.16,1.54,1,2.56.82a.52.52,0,0,1,.53.34c.13.28-.12.36-.3.48-.41.29-.33.55.09.71A2.61,2.61,0,0,0,30.8,35a.68.68,0,0,1,.78.12.3.3,0,0,1,0,.29.73.73,0,0,1-.73.28c-.73-.17-.85.8-1.54.79-.13,0,0,.21.1.29a1.44,1.44,0,0,0,.65.14c.21,0,.38.11.41.33s-.19.26-.37.32-.72,0-.72.42.52.41.84.51.63,0,.8.33l-.39.06c.67.11,1.36.46,1.9-.22,0-.57.59-.6.69-.35.21.54.65.48,1,.65.55.25.23.77.31,1.16a.63.63,0,0,0-.53.35h-.33l-.12-.2c-.11-.14-.41-.12-.35-.39s.33-.06.48-.19.24,0,.37-.14c-.5-.07-1-.11-1.5-.21s-.72.41-1.25.42-1.32,0-2,0c.06-.26.11-.51.17-.77.11,0,.27,0,.32,0s-.08-.09-.14-.13C29.12,38.46,28.25,38.59,27.83,37.91Zm.71-4.35c-.44,0-.77.2-1.09.07s-.84-.59-1-.06.55.18.83.4C27.74,34.36,28.15,34.12,28.54,33.56Zm-7.45.33c1,.46,1.67-.06,2.38-.15C22.76,33.76,22,33.41,21.09,33.89Zm8.17,1.73c0-.14-.14-.15-.24-.15s-.24,0-.24.15.12.15.23.15S29.24,35.76,29.26,35.62Zm-5.18-1.88-.06.14c.05,0,.11.06.14,0s0-.08.06-.13Zm4.54,2.9s0-.12-.06-.13-.1,0-.14.05,0,.11.06.13S28.57,36.66,28.62,36.64Z"/><path class="cls-1" d="M104.48,31.54v-.76c.5,0,1-.17,1.46.34.19.21.81-.13,1.28-.11a2.36,2.36,0,0,0-1.93-.54l-.46.1a.29.29,0,0,1-.39-.29c0-.27.23-.18.36-.17a18.27,18.27,0,0,0,2.88-.11c1-.09,2-.18,3-.36.44.74.27,1.14-.59,1.38a4.65,4.65,0,0,1-.75.06c-.3,0-.61.17-.59.45s.37.28.6.25.45-.06.49.25c-.59,0-1.26.25-1.75-.18a.92.92,0,0,0-.78-.23A15.2,15.2,0,0,1,104.48,31.54Z"/><path class="cls-1" d="M46.85,42.75c.2.09.4.23.63.12a.59.59,0,0,1,.76.11c.22.25-.28.36-.2.61-.8,1.12-2,.76-3,.59a6.73,6.73,0,0,0-2.77.24,6.77,6.77,0,0,1-3.2-.22c-.1,0,0-.32-.15-.43a3.2,3.2,0,0,1,.95-.28c.23,0-.07.37.14.59.3-.58.61-1,1.26-.34.13.14.57,0,.87,0L45,43.57c.17,0,.38,0,.34-.25s-.21-.14-.37,0-.2,0-.22-.13c-.05-.27.19-.27.32-.23A3.41,3.41,0,0,0,46.85,42.75Z"/><path class="cls-1" d="M73.7,46.26a.6.6,0,0,1-.22.06c-2-.11-4,.23-6,.17h-.59c-.16,0-.26-.08-.26-.25s.12-.17.28-.18a13,13,0,0,1,3.85-.12A9.45,9.45,0,0,0,73.7,46.26Z"/><path class="cls-1" d="M78,45.54c-.24-.25-.61-.42-.52-.85.45-.35,1.08.07,1.51-.32.3.29.45.18.53-.17.39,0,.75.28,1.16.17.33.68.26.8-.57.82a1.82,1.82,0,0,0-1,.18C78.78,45.24,78.47,45.79,78,45.54Z"/><path class="cls-1" d="M137.33,36.61c0-.16,0-.32,0-.48a7.81,7.81,0,0,1,3.6-.67c.24,0,.46,0,.44.33h0l-2.37.5c-.47-.71-.81,0-1.22,0,.42.07.86.32,1.24-.07.14.33.51.05.7.24l-.63.58c-.15.14-.12.11-.36-.1a1.26,1.26,0,0,0-.64-.27C137.75,37.15,137.58,36.63,137.33,36.61Z"/><path class="cls-1" d="M108.29,44.06a15,15,0,0,1,4.38.21c-1.51.9-3.11.39-4.73.42.31-.28.76,0,1-.33C108.79,44.08,108.37,44.62,108.29,44.06Z"/><path class="cls-1" d="M70,31.76c-.19-.46,0-.53.28-.53.93,0,1.86,0,2.78,0,.16,0,.36,0,.4.19s-.29.23-.4.24A2.59,2.59,0,0,0,72,32c-.62.41-1.26.1-1.9,0C69.69,32,70,31.77,70,31.76Z"/><path class="cls-1" d="M19.4,30.1a10.8,10.8,0,0,0,1.11.32c.3.06.6.1.55.45a.56.56,0,0,1-.65.51c-.44-.07-.89-.08-1.32-.17-.66-.13-.23-.72-.35-1.08Z"/><path class="cls-1" d="M79.2,45.37a1.82,1.82,0,0,1,1-.18c.83,0,.9-.14.57-.82,0-.13.22-.22.08-.38l.11-.1.32.31c.06.49.11,1,.17,1.46a.94.94,0,0,1-1.29,0C79.84,45.48,79.44,45.62,79.2,45.37Z"/><path class="cls-1" d="M35.26,43.8c-.09,0-.33-.09-.55-.18s-.3-.08-.25-.26a.32.32,0,0,1,.37-.26,16.31,16.31,0,0,0,1.85,0c.2,0,.35.09.37.25s-.21.18-.36.2Z"/><path class="cls-1" d="M141.38,38.65v0c.09-.18,0-.31-.17-.39,0-.23.12-.34.35-.35s.57.19.95.08c.22-.07.59.3,1,.51A6.61,6.61,0,0,1,141.38,38.65Z"/><path class="cls-1" d="M155.34,32.54c.17.29.51.13.94.28a7.72,7.72,0,0,1-3.05.35c-.35,0-.15-.26-.08-.41.67,0,1.34.07,2,.08.18,0,.18-.17.19-.31Z"/><path class="cls-1" d="M29.52,39.05c-.06.26-.11.51-.17.77a2.11,2.11,0,0,1-1.29-.38l-.06-.1C28.4,38.72,29,39,29.52,39.05Z"/><path class="cls-1" d="M146.26,35.88c-.88-.12-1.74.39-2.63.08A3.67,3.67,0,0,1,146.26,35.88Z"/><path class="cls-1" d="M101.59,45.08h2.48v.23a9.88,9.88,0,0,1-2.49,0Z"/><path class="cls-1" d="M111.7,43.66c1,0,1.92-.49,2.85,0C113.65,44.14,112.68,43.63,111.7,43.66Z"/><path class="cls-1" d="M141.36,35.79h.51c.18,0,.38,0,.41.21s-.13.29-.33.24-.23.13-.25.27,0,.44-.27.39c-.51-.08,0-.35,0-.37-.54-.24,0-.5,0-.74Z"/><path class="cls-1" d="M143.89,33.32c.07-.19-.34-.48.08-.58.24-.06.5-.28.77-.08s0,.44,0,.66Z"/><path class="cls-1" d="M166.41,30.92a1.57,1.57,0,0,1,2-.23Z"/><path class="cls-1" d="M32.62,42.13c-.38.58-1.09,0-1.48.51a.75.75,0,0,1-.14-.17c-.08-.13,0-.13.12-.2C31.59,41.82,32.11,42.19,32.62,42.13Z"/><path class="cls-1" d="M163.44,31.24a.82.82,0,0,1,1.23-.22.46.46,0,0,1-.07.07c-.36.3-.73.49-1.17.15Z"/><path class="cls-1" d="M106,44.76c.41,0,.72-.44,1.1,0a.25.25,0,0,1,0,.22A1,1,0,0,1,106,44.76Z"/><path class="cls-1" d="M143.55,37.71c.29-.25.71,0,1-.31C144.35,38,143.87,37.56,143.55,37.71Z"/><path class="cls-1" d="M140.12,36.68c.21-.32.45-.27.8-.12C140.62,36.84,140.35,36.56,140.12,36.68Z"/><path class="cls-1" d="M64.56,32.89c-.23.43-.45.43-.68,0Z"/><path class="cls-1" d="M107.65,44.92h1.08V45h-1.11Z"/><path class="cls-1" d="M144.85,37.67c.06-.2.17-.33.4-.16s.18.2.1.24-.29,0-.43,0Z"/><path class="cls-1" d="M107.29,45.25a.91.91,0,0,1-.82,0Z"/><path class="cls-1" d="M138,34.9l-.2-.1c.16-.24.32-.08.48,0s.14.11,0,.14A.74.74,0,0,1,138,34.9Z"/><path class="cls-1" d="M56.66,45.05c0-.1,0-.15.11-.15a1.5,1.5,0,0,1,.29.06.83.83,0,0,1-.15.17C56.8,45.21,56.72,45.15,56.66,45.05Z"/><path class="cls-1" d="M41.67,30.6c-.21,0-.34-.09-.36-.31C41.53,30.28,41.77,30.25,41.67,30.6Z"/><path class="cls-1" d="M164.67,31c.06.05.1.1,0,.16l-.09-.09A.46.46,0,0,0,164.67,31Z"/><polygon class="cls-1" points="107.39 44.64 107.44 44.62 107.44 44.68 107.39 44.64"/><path class="cls-1" d="M144.92,37.74l-.1.1c-.07-.07,0-.12,0-.17Z"/><path class="cls-1" d="M56.36,45c.08.05.1.1,0,.17l-.1-.09Z"/><path class="cls-1" d="M49.93,39.7c.22-.25.42-.4.69-.27a.17.17,0,0,1,.05.28C50.47,39.9,50.23,39.88,49.93,39.7Z"/><path class="cls-1" d="M42.94,31.69s0,.11-.07.12-.09,0-.14,0,0-.11.07-.12S42.89,31.67,42.94,31.69Z"/><path class="cls-1" d="M106.51,36.61a1,1,0,0,1,1-1c.75-.09,1-.33,1-1.09s-.28-1.18-1-1.29a1.12,1.12,0,0,1-.8-.35.28.28,0,0,0,0-.13c0-.11,0-.21,0-.32l4.55.16c0,.46-.46.46-.76.71l1.82.08c.21,0,.47-.08.58.2s-.14.69,0,.65c.68-.31,1.07.59,1.75.3a2.51,2.51,0,0,1,2.24.25c.3.17.78.18.28.75-.3.33.24.26.43.23a1.36,1.36,0,0,1,1.57.57c.09.17.27.32.12.51a.52.52,0,0,1-.56.08c-.41-.13-.88-.13-1.2-.5a.42.42,0,0,0-.55,0c-.22.15-.1.33,0,.48a.38.38,0,0,1,0,.52c-.23.33.15.52.17.72.12,1,.87,1,1.62,1.06a.55.55,0,0,1,.54.53,5.16,5.16,0,0,0-2.56.19c-.84.22-1.65.53-2.47.81-.51.07-1,.22-1.46-.23a1.21,1.21,0,0,0-1.11-.21,1.27,1.27,0,0,1-1.33-.19c-.79-.65-1.88-.59-2.72-1.09-.2-.12-.66-.19-.27-.55s.15-.56-.25-.68a4.52,4.52,0,0,0-2.07,0c-.18,0-.39.23-.51,0s.12-.4.32-.45c.58-.12,1-.58,1.65-.56.4.28.86.09,1.29.14.22,0,0-.18,0-.28s.08-.44-.21-.44a.44.44,0,0,0-.46.4Zm7.36.61c-.54-.32-1,0-1.46.05a.27.27,0,0,0-.27.26c0,.22.22.19.38.2A1.58,1.58,0,0,0,113.87,37.22Zm2.1-1.88c-.59,0-1-.14-1.41.17-.11.08-.07.2,0,.26C115.1,36,115.49,35.81,116,35.34Zm-1.82,3.22c-.22,0-.39.15-.37.37s.31.25.51.26.41,0,.38-.2A.53.53,0,0,0,114.15,38.56Zm1,1.24c-.27-.06-.57-.26-.85.09C114.63,40,114.89,40.06,115.14,39.8Zm-5.65-.95a.2.2,0,0,0-.12-.26.19.19,0,0,0-.27.09c0,.12.05.2.14.26S109.44,39,109.49,38.85Zm-.2-1.65-.14-.06s-.06.1-.05.13.09,0,.13.07Zm3.51,2.36s.1.07.13,0,0-.08.07-.13-.11-.06-.14,0S112.82,39.52,112.8,39.56Zm4-.16s.1.06.14.05,0-.08.06-.13-.1-.06-.14,0S116.86,39.35,116.84,39.4Z"/><path class="cls-1" d="M92.92,39.83a.26.26,0,0,1,.26-.25.25.25,0,0,1,.28.23c0,.12-.1.18-.21.18S93,40,92.92,39.83Z"/><path class="cls-1" d="M40.49,39c-.19-.2-.85,0-.79-.4.08-.63.81-.35,1.24-.49.21-.08.39.18.34.43S41,39.09,40.49,39Z"/><path class="cls-1" d="M32.4,36.17c-.26.32-.45.48-.86.3A1.15,1.15,0,0,1,32.4,36.17Z"/><path class="cls-1" d="M45.11,40.69l-.29.29c-.22,0-.53-.13-.37-.38S44.88,40.64,45.11,40.69Z"/><path class="cls-1" d="M37.24,32.05c-.09.06-.15.13-.21.13s-.21,0-.18-.17a.29.29,0,0,1,.19-.09C37.1,31.93,37.15,32,37.24,32.05Z"/><path class="cls-1" d="M40.36,36.27c.08,0,.18.08.19.13s-.08.18-.19.16-.14-.08-.14-.13S40.3,36.33,40.36,36.27Z"/><path class="cls-1" d="M43.4,39.58a.38.38,0,0,1-.17.07c-.12,0-.19-.09-.13-.2a.26.26,0,0,1,.2-.05C43.38,39.4,43.45,39.45,43.4,39.58Z"/><path class="cls-1" d="M41,32.22c0,.12,0,.26-.17.32s-.32,0-.25-.2S40.84,32.23,41,32.22Z"/><path class="cls-1" d="M41.33,32.22c0,.07,0,.22-.13.21s-.05-.14-.07-.21Z"/><path class="cls-1" d="M74.26,42.75a.6.6,0,0,1-.6.32c-.18,0-.33-.06-.31-.27s.23-.35.47-.35A.39.39,0,0,1,74.26,42.75Z"/><path class="cls-1" d="M68.26,33.86a3.62,3.62,0,0,1,1.18.16c0,.11,0,.21,0,.32l-1.17,0Z"/><path class="cls-1" d="M67.55,36.35a.25.25,0,0,1-.28.23c-.18,0-.34,0-.31-.27s.17-.19.31-.19A.25.25,0,0,1,67.55,36.35Z"/><path class="cls-1" d="M71.81,42.62c-.28.25-.32.06-.36-.17C71.74,42.18,71.77,42.41,71.81,42.62Z"/><path class="cls-1" d="M61.31,34.39l.14.06s0,.12-.06.13-.09,0-.14,0Z"/><path class="cls-1" d="M135.8,29.28c0,.37-.24.5-.59.5a4,4,0,0,1-1.36-.3c-.5-.18-.35-.44,0-.69C134.36,29.37,135.16,29,135.8,29.28Z"/><path class="cls-1" d="M135.46,34.48c.33-.55.9-.22,1.35-.33C136.73,35.1,136.5,35.16,135.46,34.48Z"/><path class="cls-1" d="M141.22,33l.15.18c0,.11,0,.21,0,.32h0a1.75,1.75,0,0,1-.24,0c-.22-.06-.56-.08-.51-.36S141,33.06,141.22,33Z"/><path class="cls-1" d="M145.59,31.91l-.09.19c-.05,0-.12-.08-.14-.13s.1-.21.21-.26S145.58,31.84,145.59,31.91Z"/><path class="cls-1" d="M26.3,36.12H25.1c.44-.32.44-.32,0-.81.16-.57.3-1.12,1.05-.44.26.23.66,0,1,.11s.88.22.81.74-.48.37-.86.31A2.88,2.88,0,0,0,26.3,36.12Z"/><path class="cls-1" d="M28.54,33.56c-.39.56-.8.8-1.29.41-.28-.22-1,0-.83-.4s.68-.09,1,.06S28.1,33.59,28.54,33.56Z"/><path class="cls-1" d="M29.26,35.62c0,.14-.14.15-.25.15s-.24,0-.23-.15.13-.15.24-.15S29.24,35.48,29.26,35.62Z"/><path class="cls-1" d="M23.63,35.31a.44.44,0,0,1-.69,0A.41.41,0,0,1,23.63,35.31Z"/><path class="cls-1" d="M24.08,33.74l.14.06c0,.05,0,.12-.06.13s-.09,0-.14,0Z"/><path class="cls-1" d="M28.62,36.64c-.05,0-.11.06-.14,0s0-.09-.06-.13.1-.06.14-.05S28.6,36.59,28.62,36.64Z"/><path class="cls-1" d="M24,35.3c-.07.14-.14.14-.2,0Z"/><path class="cls-1" d="M113.87,37.22a1.58,1.58,0,0,1-1.35.51c-.16,0-.37,0-.38-.2a.27.27,0,0,1,.27-.26C112.88,37.24,113.33,36.9,113.87,37.22Z"/><path class="cls-1" d="M116,35.34c-.48.47-.87.67-1.37.43-.11-.06-.15-.18,0-.26C115,35.2,115.38,35.3,116,35.34Z"/><path class="cls-1" d="M114.15,38.56a.53.53,0,0,1,.52.43c0,.21-.22.2-.38.2s-.49.07-.51-.26S113.93,38.6,114.15,38.56Z"/><path class="cls-1" d="M115.14,39.8c-.25.26-.51.23-.85.09C114.57,39.54,114.87,39.74,115.14,39.8Z"/><path class="cls-1" d="M106.66,32.72l-1.08-.13a1.4,1.4,0,0,1,1.09-.19C106.67,32.51,106.66,32.61,106.66,32.72Z"/><path class="cls-1" d="M107.84,36.61l-.67,0a.44.44,0,0,1,.46-.4C107.92,36.17,107.82,36.44,107.84,36.61Z"/><path class="cls-1" d="M109.49,38.85c0,.11-.14.16-.25.09s-.19-.14-.14-.26a.19.19,0,0,1,.27-.09A.2.2,0,0,1,109.49,38.85Z"/><path class="cls-1" d="M109.29,37.2l-.06.14s-.12,0-.13-.07,0-.08.05-.13Z"/><path class="cls-1" d="M112.8,39.56s0-.11.06-.13.09,0,.14,0,0,.12-.07.13S112.84,39.58,112.8,39.56Z"/><path class="cls-1" d="M116.84,39.4s0-.12.06-.13.09,0,.14,0,0,.12-.06.13S116.89,39.42,116.84,39.4Z"/><polygon class="cls-1" points="108.94 32.23 108.97 32.29 108.92 32.29 108.94 32.23"/><path class="cls-1" d="M148.67,30.21c.07,0,.1.1,0,.17l-.1-.1Z"/><path class="cls-1" d="M156,30.58c.05-.1.17-.18.23-.09s-.09.13-.16.17Z"/><path class="cls-2" d="M7.93,14.89a15.21,15.21,0,0,1,3.85-5.64,24.37,24.37,0,0,1,6.46-4.71A39.57,39.57,0,0,1,27,1.18a35.91,35.91,0,0,1,9-1.18q5.2,0,6.85.81c1.1.54,1.65,1.65,1.65,3.34a3,3,0,0,1-.59,2,2.1,2.1,0,0,1-1.65.67,3.86,3.86,0,0,1-1.5-.43,30.86,30.86,0,0,0-9.94-1.62q-8.37,0-13.61,3.71a11.38,11.38,0,0,0-5.24,9.73q0,5.85,5.38,10.18a20.19,20.19,0,0,0,13.08,4.33,25.43,25.43,0,0,0,11.72-3l1-.43.61.16.22.48a1.82,1.82,0,0,1-.72,1.21,17.08,17.08,0,0,1-2.69,1.79,32.08,32.08,0,0,1-7.77,3.13,31.94,31.94,0,0,1-8.1,1.09q-8.38,0-14-4.46a13.54,13.54,0,0,1-5.59-11,10.29,10.29,0,0,1,.64-3.82A8.15,8.15,0,0,1,7.93,14.89Z"/><path class="cls-3" d="M33.11,16.17A1.86,1.86,0,0,1,34,15.3a3.31,3.31,0,0,1,1.17-.43c.34,0,.81.35,1.42,1A3.21,3.21,0,0,1,37.45,18l-.06.48-.11.67a6,6,0,0,1-.48,2.48,6.59,6.59,0,0,1-1.36,2.05,9.18,9.18,0,0,1-2.73,2,6.51,6.51,0,0,1-2.81.79,2.69,2.69,0,0,1-1.94-.7,2.13,2.13,0,0,1-.74-1.61,7.59,7.59,0,0,1,1.59-4.43A11.9,11.9,0,0,1,33.11,16.17Zm.28,1.93a13.17,13.17,0,0,0-1.69,3,7.52,7.52,0,0,0-.65,2.55,1.09,1.09,0,0,0,.15.68.77.77,0,0,0,.54.26,2.84,2.84,0,0,0,1.68-1,8.87,8.87,0,0,0,1.79-2.72A4,4,0,0,1,34,19.67l-.36-.76Z"/><path class="cls-4" d="M46.58,22.33a20.12,20.12,0,0,1-1.84,1.73,8.08,8.08,0,0,1-1.87,1l-2.07.62-1.15.25a1.23,1.23,0,0,1-1-.56,2,2,0,0,1-.43-1.3,3.41,3.41,0,0,1,.33-1.16l.14-.34a2.7,2.7,0,0,1,.31-.47l.61-.94a11.44,11.44,0,0,1,2-2.34l1.26-1,1.62-1.1L45.74,16l1.15-.48a5.93,5.93,0,0,1,1.87-.41,3.73,3.73,0,0,1,1.93.46c.56.27.84.58.84.92l-.33,1.26-.54,2.07-.75,3.23-.28,1.62a1.15,1.15,0,0,0,.14.57l.14.42a.75.75,0,0,1-.29.52,1.07,1.07,0,0,1-.74.27l-.45-.11L48,26.29l-.28,0-.25.05a.81.81,0,0,1-.74-.58,5,5,0,0,1-.27-1.93v-1Zm-4,1.29a3.77,3.77,0,0,0,1.86-1,14.84,14.84,0,0,0,2.43-2.46c.53-.68,1-1.34,1.39-2a3,3,0,0,0,.61-1.36l-.06-.14h-.22a4.05,4.05,0,0,0-1.82,1A16.47,16.47,0,0,0,44.24,20l-.79.91-.64,1a3.07,3.07,0,0,0-.5,1.42v.3Z"/><path class="cls-5" d="M54.19,19.83h-.26a1.67,1.67,0,0,1-.61-.08.32.32,0,0,1-.17-.3c0-.11.2-.35.59-.73a14.93,14.93,0,0,1,1.53-1.2l1.26-2.41.76-1.36c.33-.52.59-.82.78-.89l.36-.08.4-.09.41-.18a3,3,0,0,1,.79-.27.75.75,0,0,1,.44.16.64.64,0,0,1,.28.43l.06.29,0,.19a8.12,8.12,0,0,1-.76,1.46L59.38,16l-.64,1.35.87.08a2,2,0,0,1,.82.14c.2.09.3.2.32.35a1.52,1.52,0,0,1-.48.91l-.27.35-.11.16a1.07,1.07,0,0,1-1,.49H57.57a8.09,8.09,0,0,0-.76,1.54,3.79,3.79,0,0,0-.25,1.27,1.14,1.14,0,0,0,.31.88,1.06,1.06,0,0,0,.87.29h.52a2,2,0,0,0,.38-.08,4.14,4.14,0,0,0,.55-.21,2.71,2.71,0,0,1,.84-.25.62.62,0,0,1,.41.17.54.54,0,0,1,.2.43q0,.57-1.62,1.53a6.46,6.46,0,0,1-3.38,1,2.58,2.58,0,0,1-1.93-.91,3,3,0,0,1-.78-2,6.43,6.43,0,0,1,.5-1.69l.45-1.07Z"/><path class="cls-6" d="M63.8,26.37a1.73,1.73,0,0,1-1.34-.59,2.25,2.25,0,0,1-.53-1.57,3.21,3.21,0,0,1,.19-1l.67-1.76.92-2.21q.9-2.1,1.05-2.31a2.5,2.5,0,0,1,1-.47l.58-.21.59-.33a3.5,3.5,0,0,1,.61-.21A.53.53,0,0,1,68,16a.85.85,0,0,1,.19.59,4.08,4.08,0,0,1-.62,1.51l-.7,1.32-.45,1-.33.94-.25.89-.09.67a1.09,1.09,0,0,0,.2.62.7.7,0,0,0,.53.25,2.44,2.44,0,0,0,1-.42,2.89,2.89,0,0,1,.87-.42.55.55,0,0,1,.33.16.62.62,0,0,1,.23.38q0,.36-.81,1.14a4,4,0,0,1-1.61.95A12.72,12.72,0,0,0,64.9,26,3.07,3.07,0,0,1,63.8,26.37Zm1.79-11.12a.53.53,0,0,1-.42-.28,1.06,1.06,0,0,1-.2-.61,2.8,2.8,0,0,1,.45-.86l.34-.48a2.73,2.73,0,0,1,1-.68,4.86,4.86,0,0,1,1.45-.29.76.76,0,0,1,.56.19.93.93,0,0,1,.25.59l-.11.59-.33.83c-.1.22-.46.45-1.1.7a5.37,5.37,0,0,1-.92.22A6.33,6.33,0,0,1,65.59,15.25Z"/><path class="cls-7" d="M73.61,22.14l1.28-1.91,1.26-1.64a12.46,12.46,0,0,1,2.23-2.15,2.61,2.61,0,0,1,.7-.54,2.24,2.24,0,0,1,.93-.25,1.16,1.16,0,0,1,.92.48,2,2,0,0,1,.39,1.31,12.09,12.09,0,0,1-.56,3.29,11.89,11.89,0,0,0-.56,2.5,1,1,0,0,0,.23.73l.22.43c0,.24-.37.6-1.1,1.1a3.54,3.54,0,0,1-1.87.74.92.92,0,0,1-.83-.54A3.86,3.86,0,0,1,76.57,24l.17-.76.61-1.84.58-1.74.23-.87,0-.08-.12,0-.22.17-.59.59-.67.78-.92,1.16-1.06,1.42-1,1.32-1,1.32-.86.38-.92.37-.14-.08a1.31,1.31,0,0,1-.41-.37,2.36,2.36,0,0,1-.38-.62l.37-1.4.36-1.35c.06-.23.11-.43.14-.6a5.59,5.59,0,0,1,.31-.85l1-3a6.75,6.75,0,0,1,.62-1.46,3,3,0,0,1,.87-.46,7.49,7.49,0,0,1,1-.37,1.78,1.78,0,0,1,1,.31.93.93,0,0,1,.5.72l-.92,1.67A18.33,18.33,0,0,0,73.61,22.14Z"/><path class="cls-8" d="M90.37,22.52A14.42,14.42,0,0,1,87,25a6.87,6.87,0,0,1-3,.95,1.81,1.81,0,0,1-.92-.48,1.3,1.3,0,0,1-.62-.92,5.71,5.71,0,0,1,.6-2.43,10.76,10.76,0,0,1,1.72-2.52,16.32,16.32,0,0,1,1.59-1.48l.9-.65,1.18-.78a9.88,9.88,0,0,1,1-.58q.45-.23.84-.39a3.57,3.57,0,0,1,1.29-.35l.86.11,1,.13.31,0h.36a2.13,2.13,0,0,1,.86.16c.23.14.34.29.34.46l-.42,1.56-.81,3.12L94,21.5c-.44,1.86-.91,3.55-1.39,5.05a41.79,41.79,0,0,1-1.51,4l-.23.54a2.81,2.81,0,0,1-1.2,1.56l-1.28.54-.4.11-.5.08a8.83,8.83,0,0,1-1.89-.3,4.8,4.8,0,0,1-1.62-.58A4.15,4.15,0,0,1,83,31.15a3.82,3.82,0,0,1-.58-1.58A1.69,1.69,0,0,1,82.6,29l.62-1.27.28-.46.25-.29a1.32,1.32,0,0,1,.59-.19c.35,0,.68.39,1,1.18l.06.31a2,2,0,0,0,.16.34l.25.62a7.9,7.9,0,0,0,1,1.79,1.45,1.45,0,0,0,.87.6c.29,0,.69-1.09,1.18-3.28S89.83,24.19,90.37,22.52Zm-3.66.73.06.11.17.05a3.88,3.88,0,0,0,1.65-1,11.07,11.07,0,0,0,1-1c.38-.4.76-.85,1.14-1.33a13.65,13.65,0,0,0,1.17-1.85,4.34,4.34,0,0,0,.47-1.17l-.08-.16-.2-.08a4.33,4.33,0,0,0-1.77.79,7.74,7.74,0,0,0-2.11,1.9,5.45,5.45,0,0,0-.58.89l-.51,1A5.07,5.07,0,0,0,86.71,23.25Z"/><path class="cls-9" d="M101.55,17.78l-.17.32-.08.33a5.92,5.92,0,0,0,1,1.83,5,5,0,0,1,1,2.52,3.5,3.5,0,0,1-1.68,2.7,6.12,6.12,0,0,1-3.77,1.27,4.6,4.6,0,0,1-2.1-.38,1,1,0,0,1-.75-1,2.37,2.37,0,0,1,.82-1.48c.55-.57,1-.86,1.36-.86s.75.32,1.13,1,.72,1,1,1a.36.36,0,0,0,.27-.1,1.1,1.1,0,0,0,.18-.47,4.83,4.83,0,0,0-1-2.9,4.18,4.18,0,0,1-1-1.95,1.79,1.79,0,0,1,0-.48,2.87,2.87,0,0,1,.18-.42,4.29,4.29,0,0,1,.81-1A12.7,12.7,0,0,1,100.91,16a4.39,4.39,0,0,1,1.79-.75,1.46,1.46,0,0,1,.81.29.79.79,0,0,1,.45.6,4.37,4.37,0,0,1-.25,1.64,1,1,0,0,1-.87.54,1.94,1.94,0,0,1-.73-.14A1.3,1.3,0,0,1,101.55,17.78Z"/><path class="cls-10" d="M116.21,19.62a10.21,10.21,0,0,1-1.07-1.54,2.35,2.35,0,0,1-.33-1.08,1.34,1.34,0,0,1,.23-.77,2.35,2.35,0,0,1,.7-.61A3.52,3.52,0,0,1,116.8,15a4.44,4.44,0,0,1,1.32-.2l.47,0a1.1,1.1,0,0,1,.4.08.5.5,0,0,1,.3.29l0,.22.08.35.17.4.12.39a.35.35,0,0,1-.07.23.79.79,0,0,1-.24.1,1.88,1.88,0,0,1-.62-.3l-.54-.31-.32-.15-.27-.13-.37-.11a.32.32,0,0,0-.26.1,1,1,0,0,0-.09.34,1.75,1.75,0,0,0,.15.58,4.28,4.28,0,0,0,.64,1l.64.82a3,3,0,0,1,.72,1.19.59.59,0,0,1-.21.44,1.39,1.39,0,0,1-.61.29l-.4.05a1.41,1.41,0,0,0-.39,0l-.18.06-.22.06-.26-.06a4.18,4.18,0,0,0-1.33-.23,3.68,3.68,0,0,0-2,.52,1.52,1.52,0,0,0-.8,1.32,2.25,2.25,0,0,0,1.28,1.85,5.75,5.75,0,0,0,3.09.8,5.62,5.62,0,0,0,2-.35l.3-.1a.24.24,0,0,1,.18.06.53.53,0,0,1,.1.2c0,.11-.11.22-.32.33l-.47.21-.47.19a14.42,14.42,0,0,1-1.75.47l-.8.1-.81.05a6.16,6.16,0,0,1-2.78-.58,2.41,2.41,0,0,1-1.41-1.43l-.24-.75,0-.44A2.73,2.73,0,0,1,112,20.67a6.94,6.94,0,0,1,1.86-.76A8.75,8.75,0,0,1,116.21,19.62Z"/><path class="cls-10" d="M123.16,24.63l-.46.47c-1,1-1.52,1.48-1.7,1.48a.39.39,0,0,1-.3-.17.49.49,0,0,1-.15-.32l0-.36a.8.8,0,0,1,.32-.71l.13-.11.22-.45c.09-.25.22-.37.38-.37a.49.49,0,0,1,.27.16l.15.12,0,0a.52.52,0,0,0,.3-.15l.18-.15.43-.4v-.2c-.16-.83-.32-1.24-.49-1.27a.94.94,0,0,0-.65.4c-.24.26-.42.39-.52.39a.36.36,0,0,1-.22-.07.71.71,0,0,1-.08-.21,1.58,1.58,0,0,1,.51-.93,3.09,3.09,0,0,1,1.24-.85l.43-.18.46-.22.3-.14a1.28,1.28,0,0,1,.23-.08.52.52,0,0,1,.41.17.75.75,0,0,1,.14.47l0,.63-.14.89a7.26,7.26,0,0,1,1.4-1.42,2.26,2.26,0,0,1,1.14-.54.65.65,0,0,1,.45.19.88.88,0,0,1,.14.53,1,1,0,0,1-.32.68l-.2.22-.19.35q-.19.46-.51.51a.68.68,0,0,1-.5-.29.67.67,0,0,0-.18-.2l-.08-.08-.13.08-.23.15-.74.73v.26a1.22,1.22,0,0,0,.43.94,1.39,1.39,0,0,0,1,.41,1.34,1.34,0,0,0,.67-.19,2.6,2.6,0,0,1,.53-.22.28.28,0,0,1,.2.06.34.34,0,0,1,.1.18.42.42,0,0,1-.11.25,3.14,3.14,0,0,1-.54.41,6.21,6.21,0,0,1-1.23.7,2.74,2.74,0,0,1-1,.28,1.51,1.51,0,0,1-1.12-.4,1.7,1.7,0,0,1-.36-1.16v-.3Z"/><path class="cls-10" d="M130.22,24.8l.38-1,.31-1,.2-.69.08-.38,0-.12,0-.05a2,2,0,0,0-.94.53,3,3,0,0,0-.57.49,3.15,3.15,0,0,0-.42.61l-.06.1a.55.55,0,0,1-.57.39.29.29,0,0,1-.21-.06l-.08-.17a3.29,3.29,0,0,1,.77-1.39,11.83,11.83,0,0,1,.83-1,8.47,8.47,0,0,1,1-.85l.38-.25.37-.19a2.37,2.37,0,0,1,.76-.12.74.74,0,0,1,.54.23,1,1,0,0,1,.19.66,17.48,17.48,0,0,1-.7,2.68l-.13.41A7.05,7.05,0,0,1,134,21.6a3,3,0,0,1,1.75-.79.72.72,0,0,1,.65.34,2.21,2.21,0,0,1,.22,1.13,2.7,2.7,0,0,1-.37,1.42,4.39,4.39,0,0,1-.51.64,7.2,7.2,0,0,1-.88.8.65.65,0,0,1,.37.09.25.25,0,0,1,.13.24c0,.05-.1.12-.29.22l-.21.07-.48.22a6.66,6.66,0,0,1-2.62.71h-.27c-.43.82-.77,1.53-1,2.15a4.54,4.54,0,0,0-.38,1.22.61.61,0,0,0,.06.28l.05.26a.33.33,0,0,1-.13.28.76.76,0,0,1-.35.11,4.09,4.09,0,0,0-.75.25,2,2,0,0,1-.57.19.34.34,0,0,1-.25-.13A.36.36,0,0,1,128,31a34.11,34.11,0,0,1,1.4-4l.16-.42a2.73,2.73,0,0,1-.94-.18.38.38,0,0,1-.22-.38.58.58,0,0,1,.06-.26l.23-.25a4.42,4.42,0,0,1,.71-.49l.49-.25h.12Zm1.95.36.4,0h.85l.53-.05a5.3,5.3,0,0,0,.55-.68l.38-.65a2.29,2.29,0,0,0,.33-1,.74.74,0,0,0-.1-.35.34.34,0,0,0-.24-.18c-.3,0-.74.29-1.33.86A6,6,0,0,0,132.17,25.16Z"/><path class="cls-10" d="M140.73,20.79a1,1,0,0,1,.49-.49,1.86,1.86,0,0,1,.67-.25c.19,0,.46.2.81.59a1.83,1.83,0,0,1,.53,1.22l0,.28-.06.39a3.53,3.53,0,0,1-.27,1.42,3.81,3.81,0,0,1-.79,1.18,5.33,5.33,0,0,1-1.57,1.17,3.79,3.79,0,0,1-1.61.45,1.55,1.55,0,0,1-1.12-.4,1.27,1.27,0,0,1-.43-.93,4.41,4.41,0,0,1,.92-2.55A6.85,6.85,0,0,1,140.73,20.79Zm.17,1.12a7.38,7.38,0,0,0-1,1.74,4.32,4.32,0,0,0-.37,1.46.68.68,0,0,0,.08.4.48.48,0,0,0,.32.14,1.65,1.65,0,0,0,1-.58,5.33,5.33,0,0,0,1-1.57,2.08,2.08,0,0,1-.72-.7l-.21-.43Z"/><path class="cls-11" d="M60.45,40h2.38a1.16,1.16,0,0,0-.45-.59,1.27,1.27,0,0,0-.73-.2,1.43,1.43,0,0,0-.74.21A1,1,0,0,0,60.45,40Z"/><path class="cls-11" d="M60.44,41l-2-5.09h1l1.43,3.87,1.42-3.87h1l-2,5.09Z"/><path class="cls-11" d="M63.76,36.75v-.84h1v.84Zm0,4.25V37.19h1V41Z"/><path class="cls-11" d="M69.42,39.5H66.35a1,1,0,0,0,.39.53,1.07,1.07,0,0,0,.65.2,1.35,1.35,0,0,0,.5-.09,1.08,1.08,0,0,0,.39-.24h1a1.69,1.69,0,0,1-.73.87A2.11,2.11,0,0,1,66,40.54a1.89,1.89,0,0,1-.62-1.42,1.94,1.94,0,0,1,.61-1.45,2,2,0,0,1,1.49-.6,2,2,0,0,1,1.44.6,1.91,1.91,0,0,1,.59,1.39,1.7,1.7,0,0,1,0,.22Zm-3.09-.81h2.18a1.09,1.09,0,0,0-.41-.53,1.15,1.15,0,0,0-.67-.19,1.17,1.17,0,0,0-.67.2A1,1,0,0,0,66.33,38.69Z"/><path class="cls-11" d="M70.28,41V38h-.46v-.81h.46V35.91h1v1.28h.57V38h-.57v3Z"/><path class="cls-11" d="M72.29,41V37.19h.89v.34a1,1,0,0,1,.47-.34,1.59,1.59,0,0,1,.62-.12,1.46,1.46,0,0,1,.61.13,1.47,1.47,0,0,1,.51.34l.1.11a1.52,1.52,0,0,1,.28.66,6.07,6.07,0,0,1,0,.71v2h-.94V39.2a4.11,4.11,0,0,0,0-.53,1.07,1.07,0,0,0-.13-.38.81.81,0,0,0-.28-.24.94.94,0,0,0-.36-.08.85.85,0,0,0-.39.08.62.62,0,0,0-.27.24,1,1,0,0,0-.13.39,2.49,2.49,0,0,0,0,.47V41Z"/><path class="cls-11" d="M80.61,37.19V41h-.87v-.52a1.62,1.62,0,0,1-.59.47,1.77,1.77,0,0,1-.77.18,2,2,0,0,1-.82-.17,1.77,1.77,0,0,1-.64-.48,2,2,0,0,1-.5-1.39,2.07,2.07,0,0,1,.12-.73,1.81,1.81,0,0,1,.4-.63,1.87,1.87,0,0,1,1.47-.66,1.56,1.56,0,0,1,1.33.66v-.54Zm-.9,1.9A1.09,1.09,0,0,0,78.58,38h0a1.13,1.13,0,0,0-.83.33,1.15,1.15,0,0,0-.33.83,1,1,0,0,0,.34.78,1.16,1.16,0,0,0,2-.82Z"/><path class="cls-11" d="M81.4,41V37.19h.87v.34a.87.87,0,0,1,.42-.35,1.9,1.9,0,0,1,.63-.11,1.32,1.32,0,0,1,1.06.46l.1.13a.49.49,0,0,1,.1-.13,1.39,1.39,0,0,1,.5-.34,1.82,1.82,0,0,1,.65-.12,2,2,0,0,1,.67.11,1.49,1.49,0,0,1,.54.37,1.34,1.34,0,0,1,.33.61,2.75,2.75,0,0,1,.07.7V41h-1V38.88a2.05,2.05,0,0,0,0-.37.73.73,0,0,0-.11-.27.64.64,0,0,0-.59-.28.72.72,0,0,0-.65.33,1,1,0,0,0-.13.36,3,3,0,0,0,0,.43V41H83.9V39a3.81,3.81,0,0,0,0-.41.81.81,0,0,0-.13-.29.87.87,0,0,0-.27-.23.89.89,0,0,0-.35-.08.65.65,0,0,0-.67.41,2.26,2.26,0,0,0-.1.82V41Z"/><path class="cls-11" d="M89.22,41.07v-1l.42-.27.41-.28a5.33,5.33,0,0,0,.74-.66A2.91,2.91,0,0,0,91,38.6a2.06,2.06,0,0,0,.23-.31,1.36,1.36,0,0,0,.24-.68.43.43,0,0,0-.48-.49.5.5,0,0,0-.47.26,1.18,1.18,0,0,0-.12.53H89.17a3.09,3.09,0,0,1,.07-.6,1.45,1.45,0,0,1,.24-.54,1.71,1.71,0,0,1,.69-.58,2.19,2.19,0,0,1,.9-.18,2,2,0,0,1,.94.21,1.45,1.45,0,0,1,.68.66,1.31,1.31,0,0,1,.13.57,1.85,1.85,0,0,1-.16.76,2.93,2.93,0,0,1-.41.68,7,7,0,0,1-.55.59l-.3.27-.29.25h1.74v1.07Z"/><path class="cls-11" d="M97.24,39.28a2.07,2.07,0,0,1-.25,1,1.81,1.81,0,0,1-.8.69,2.06,2.06,0,0,1-.85.18,2.17,2.17,0,0,1-.79-.15,1.72,1.72,0,0,1-1.16-1.73V37.89a1.7,1.7,0,0,1,1.17-1.73,2.16,2.16,0,0,1,.78-.15,2.06,2.06,0,0,1,.79.16,1.71,1.71,0,0,1,1.11,1.72Zm-1.32-1.42a.92.92,0,0,0-.12-.51.54.54,0,0,0-.48-.23.56.56,0,0,0-.48.23.88.88,0,0,0-.13.51v1.45a.88.88,0,0,0,.13.51.55.55,0,0,0,.48.23.53.53,0,0,0,.48-.22,1,1,0,0,0,.12-.52Z"/><path class="cls-11" d="M97.82,41.07v-1l.43-.27.4-.28a4.91,4.91,0,0,0,.75-.66l.23-.27a3.24,3.24,0,0,0,.24-.31,1.36,1.36,0,0,0,.24-.68.43.43,0,0,0-.49-.49.51.51,0,0,0-.47.26,1.18,1.18,0,0,0-.12.53H97.77a3.09,3.09,0,0,1,.07-.6,1.86,1.86,0,0,1,.24-.54,1.71,1.71,0,0,1,.69-.58,2.19,2.19,0,0,1,.9-.18,2.11,2.11,0,0,1,1,.21,1.43,1.43,0,0,1,.67.66,1.31,1.31,0,0,1,.13.57,1.85,1.85,0,0,1-.16.76,2.93,2.93,0,0,1-.41.68,5.68,5.68,0,0,1-.55.59l-.3.27-.29.25h1.75v1.07Z"/><path class="cls-11" d="M105.4,40.2v.87h-1.26V40.2h-2.27v-.93l2.31-3.17h1.22v3.1H106v1Zm-1.18-2.55h0l-1,1.55h1Z"/><path class="cls-12" d="M111.75,43.82a.35.35,0,0,1-.29-.13.49.49,0,0,1-.12-.34.69.69,0,0,1,0-.22l.15-.38.2-.49c.13-.3.21-.47.23-.5a.44.44,0,0,1,.22-.1l.13,0,.13-.07.13,0a.09.09,0,0,1,.09,0,.17.17,0,0,1,0,.13.84.84,0,0,1-.13.33l-.15.28-.1.22-.07.2-.06.2,0,.15a.33.33,0,0,0,0,.13.16.16,0,0,0,.12,0,.61.61,0,0,0,.22-.09.55.55,0,0,1,.19-.09s0,0,.07,0a.14.14,0,0,1,0,.08s-.06.14-.18.25a.88.88,0,0,1-.35.21,2,2,0,0,0-.34.12A.93.93,0,0,1,111.75,43.82Zm.39-2.44a.12.12,0,0,1-.09-.06.2.2,0,0,1,0-.13.55.55,0,0,1,.09-.19l.08-.11a.63.63,0,0,1,.22-.14.93.93,0,0,1,.32-.07.22.22,0,0,1,.13,0,.32.32,0,0,1,.05.13l0,.13-.08.18c0,.05-.1.1-.24.16l-.2,0Z"/><path class="cls-12" d="M113.9,42.89l.28-.42.27-.36a3.46,3.46,0,0,1,.49-.47l.16-.12a.53.53,0,0,1,.2-.05.26.26,0,0,1,.2.11.39.39,0,0,1,.09.28,2.39,2.39,0,0,1-.13.72,2.61,2.61,0,0,0-.12.55.22.22,0,0,0,0,.16l0,.1s-.08.13-.24.24a.86.86,0,0,1-.41.16.19.19,0,0,1-.18-.12.9.9,0,0,1-.06-.36l0-.17.14-.4.13-.38.05-.19v0h0l0,0-.13.13-.15.17-.2.25-.23.32-.21.28-.21.29-.19.09-.2.08,0,0a.28.28,0,0,1-.09-.08.34.34,0,0,1-.08-.14l.08-.3.07-.3a.93.93,0,0,0,0-.13.93.93,0,0,1,.06-.19l.23-.66a1.93,1.93,0,0,1,.13-.32l.19-.1.22-.08a.35.35,0,0,1,.21.07.22.22,0,0,1,.11.16l-.21.36A4.21,4.21,0,0,0,113.9,42.89Z"/><path class="cls-12" d="M119.14,43.08l.25-.23a.25.25,0,0,1,.11-.05l.06,0,0,.06a.49.49,0,0,1-.13.28,1.64,1.64,0,0,1-.33.31,2.9,2.9,0,0,1-.46.26,1.31,1.31,0,0,1-.39.11h-.11l-.14,0,0,0h0a.65.65,0,0,1-.4-.12.4.4,0,0,1-.15-.31.89.89,0,0,1,0-.22,1,1,0,0,1,0-.16.74.74,0,0,1,.08-.16,2.35,2.35,0,0,1,.41-.63,3.38,3.38,0,0,1,.67-.52l.35-.18.22-.06a.43.43,0,0,1,.26.09.32.32,0,0,1,.15.19.36.36,0,0,1-.07.22c0,.06-.07.1-.12.1l-.08,0h-.11a.59.59,0,0,0-.32.11,1.89,1.89,0,0,0-.31.35,2.82,2.82,0,0,0-.22.42.91.91,0,0,0-.09.33.16.16,0,0,0,0,.08l0,0h.05a1.27,1.27,0,0,0,.29-.09A1.82,1.82,0,0,0,119.14,43.08Z"/><path class="cls-12" d="M121.09,41.58a.42.42,0,0,1,.19-.19.81.81,0,0,1,.26-.09c.07,0,.17.08.3.22a.68.68,0,0,1,.2.47v.11l0,.14a1.35,1.35,0,0,1-.11.55,1.33,1.33,0,0,1-.3.44,1.89,1.89,0,0,1-.59.45,1.38,1.38,0,0,1-.62.17.58.58,0,0,1-.42-.15.47.47,0,0,1-.17-.35,1.65,1.65,0,0,1,.35-1A2.64,2.64,0,0,1,121.09,41.58Zm.07.43a2.67,2.67,0,0,0-.37.66,1.61,1.61,0,0,0-.15.56.21.21,0,0,0,0,.15.14.14,0,0,0,.12,0,.6.6,0,0,0,.36-.22,2,2,0,0,0,.39-.59.87.87,0,0,1-.27-.27l-.08-.17Z"/><path class="cls-12" d="M123.12,42.89l.28-.42.28-.36a3,3,0,0,1,.49-.47l.15-.12a.53.53,0,0,1,.2-.05.24.24,0,0,1,.2.11.39.39,0,0,1,.09.28,2.69,2.69,0,0,1-.12.72,2.9,2.9,0,0,0-.13.55.22.22,0,0,0,0,.16l0,.1s-.08.13-.24.24a.86.86,0,0,1-.41.16.21.21,0,0,1-.18-.12.9.9,0,0,1-.06-.36l0-.17.13-.4.13-.38.05-.19v0h0l0,0-.13.13-.15.17-.2.25-.23.32-.21.28-.21.29-.19.09-.2.08,0,0a.28.28,0,0,1-.09-.08.34.34,0,0,1-.08-.14l.08-.3.08-.3,0-.13a1.2,1.2,0,0,1,.07-.19l.22-.66a1.57,1.57,0,0,1,.14-.32l.19-.1.21-.08a.35.35,0,0,1,.21.07.22.22,0,0,1,.11.16l-.2.36A3.65,3.65,0,0,0,123.12,42.89Z"/><path class="cls-12" d="M126.32,43.41a4.66,4.66,0,0,1,.35-.41c.09-.1.16-.14.2-.14l.07,0,0,.08a3.52,3.52,0,0,1-.31.48,7.59,7.59,0,0,0-.57,1l-.13.26-.12.35c-.08.22-.14.33-.19.34a.32.32,0,0,1-.1.14.29.29,0,0,1-.14,0c-.05,0-.1,0-.17-.14a.48.48,0,0,1-.1-.28,3.3,3.3,0,0,1,.21-.69l.22-.62c.08-.24.15-.42.2-.56s.14-.35.2-.5l.21-.51a.08.08,0,0,0,0,0h0c-.05,0-.14.06-.29.2a1.34,1.34,0,0,0-.34.43l-.06.19c0,.13-.08.19-.14.19a.1.1,0,0,1-.09,0,.32.32,0,0,1,0-.14,1.24,1.24,0,0,1,.06-.31,1,1,0,0,1,.13-.34,1.81,1.81,0,0,1,.44-.44l.2-.17a2.11,2.11,0,0,1,.4-.26.86.86,0,0,1,.38-.12.22.22,0,0,1,.18.11.76.76,0,0,1,.06.35,2.11,2.11,0,0,1-.26.67Zm.27-2.16a.45.45,0,0,1-.29-.14c-.1-.1-.15-.17-.15-.23s.06-.12.19-.23a.53.53,0,0,1,.29-.16.39.39,0,0,1,.23.11.29.29,0,0,1,.14.22.41.41,0,0,1-.12.3A.35.35,0,0,1,126.59,41.25Z"/><path class="cls-12" d="M129,42.6a6,6,0,0,1-.48.62l-.21.21-.14.11-.08,0-.09,0-.09.05a.66.66,0,0,1-.24.12.35.35,0,0,1-.22-.14.46.46,0,0,1-.11-.23l.07-.28.06-.22.08-.25.11-.29.17-.41a1,1,0,0,1,.22-.37.31.31,0,0,1,.1-.08l.06,0,.06-.05a.52.52,0,0,1,.29-.13s.09,0,.15.14a1,1,0,0,1,.07.2.35.35,0,0,1,0,.06l0,.07-.14.3,0,.06-.17.35a2.22,2.22,0,0,0-.21.47V43l.05,0c.09,0,.28-.23.59-.69l.39-.59a.44.44,0,0,1,.19-.15l.21-.09c.05,0,.1,0,.14.11a.46.46,0,0,1,0,.22v0a2.29,2.29,0,0,1-.13.58,2.58,2.58,0,0,0-.12.57v0l0,.16v.13s-.06.14-.2.26a.64.64,0,0,1-.33.17c-.05,0-.1,0-.16-.11a.34.34,0,0,1-.08-.18l.11-.53Z"/><path class="cls-12" d="M130.74,42.89l.28-.42.28-.36a3,3,0,0,1,.49-.47.76.76,0,0,1,.15-.12.53.53,0,0,1,.2-.05.24.24,0,0,1,.2.11.39.39,0,0,1,.09.28,2.69,2.69,0,0,1-.12.72,2.26,2.26,0,0,0-.13.55.22.22,0,0,0,0,.16l.05.1s-.08.13-.24.24a.86.86,0,0,1-.41.16.2.2,0,0,1-.18-.12.9.9,0,0,1-.06-.36l0-.17.13-.4.13-.38.05-.19v0h0l-.05,0-.13.13-.15.17-.2.25-.23.32-.21.28-.21.29-.19.09-.2.08,0,0a.28.28,0,0,1-.09-.08.34.34,0,0,1-.08-.14l.08-.3.08-.3,0-.13a1.2,1.2,0,0,1,.07-.19l.22-.66a1.57,1.57,0,0,1,.14-.32l.19-.1.21-.08a.35.35,0,0,1,.21.07.22.22,0,0,1,.11.16l-.2.36A3.65,3.65,0,0,0,130.74,42.89Z"/><path class="cls-12" d="M134.41,43.08l.25-.23a.25.25,0,0,1,.11-.05l.06,0,0,.06a.49.49,0,0,1-.13.28,1.64,1.64,0,0,1-.33.31,2.9,2.9,0,0,1-.46.26,1.31,1.31,0,0,1-.39.11h-.11l-.14,0,0,0h0a.63.63,0,0,1-.4-.12.4.4,0,0,1-.15-.31.89.89,0,0,1,0-.22,1,1,0,0,1,.05-.16,1.28,1.28,0,0,1,.07-.16,2.66,2.66,0,0,1,.42-.63,3.38,3.38,0,0,1,.67-.52l.35-.18.22-.06a.43.43,0,0,1,.26.09.32.32,0,0,1,.15.19.44.44,0,0,1-.07.22c0,.06-.07.1-.12.1l-.08,0h-.11a.59.59,0,0,0-.32.11,1.89,1.89,0,0,0-.31.35,2.82,2.82,0,0,0-.22.42.91.91,0,0,0-.09.33.16.16,0,0,0,0,.08l0,0h0a1.27,1.27,0,0,0,.29-.09A1.82,1.82,0,0,0,134.41,43.08Z"/><path class="cls-12" d="M135.41,42.39h-.06l-.13,0a.08.08,0,0,1,0-.07s0-.07.13-.16.17-.14.34-.26l.27-.53.17-.29a.52.52,0,0,1,.17-.2l.08,0,.09,0,.09,0,.17-.06a.16.16,0,0,1,.1,0,.17.17,0,0,1,.06.09V41a2.08,2.08,0,0,1-.17.32l-.15.27-.14.29.19,0a.48.48,0,0,1,.18,0,.13.13,0,0,1,.07.08.37.37,0,0,1-.11.2l-.06.07,0,0a.25.25,0,0,1-.22.11h-.29a2.62,2.62,0,0,0-.17.33,1.11,1.11,0,0,0,0,.28.22.22,0,0,0,.07.19.21.21,0,0,0,.19.07h.11l.09,0a.34.34,0,0,0,.11-.05.76.76,0,0,1,.19,0,.12.12,0,0,1,.09,0,.1.1,0,0,1,0,.09c0,.08-.12.2-.35.34a1.46,1.46,0,0,1-.74.21.56.56,0,0,1-.42-.2.64.64,0,0,1-.18-.44,1.53,1.53,0,0,1,.11-.37l.1-.24Z"/><path class="cls-12" d="M137.52,43.82a.38.38,0,0,1-.3-.13.48.48,0,0,1-.11-.34.69.69,0,0,1,0-.22l.14-.38.21-.49a3.9,3.9,0,0,1,.23-.5.39.39,0,0,1,.21-.1l.13,0,.13-.07.14,0a.11.11,0,0,1,.09,0,.17.17,0,0,1,0,.13,1,1,0,0,1-.13.33l-.16.28-.1.22-.07.2,0,.2,0,.15a.22.22,0,0,0,0,.13.13.13,0,0,0,.12,0,.52.52,0,0,0,.21-.09.65.65,0,0,1,.19-.09.09.09,0,0,1,.07,0,.1.1,0,0,1,.05.08s-.06.14-.17.25a.85.85,0,0,1-.36.21,1.85,1.85,0,0,0-.33.12A.93.93,0,0,1,137.52,43.82Zm.39-2.44a.12.12,0,0,1-.1-.06.28.28,0,0,1,0-.13.47.47,0,0,1,.1-.19l.07-.11a.84.84,0,0,1,.23-.14.88.88,0,0,1,.32-.07.21.21,0,0,1,.12,0,.23.23,0,0,1,.06.13l0,.13-.07.18c0,.05-.1.1-.24.16l-.2,0Z"/><path class="cls-12" d="M140.16,41.58a.44.44,0,0,1,.18-.19.9.9,0,0,1,.26-.09c.07,0,.18.08.31.22a.72.72,0,0,1,.2.47v.11l0,.14a1.35,1.35,0,0,1-.1.55,1.33,1.33,0,0,1-.3.44,2.06,2.06,0,0,1-.6.45,1.35,1.35,0,0,1-.62.17.6.6,0,0,1-.42-.15.46.46,0,0,1-.16-.35,1.59,1.59,0,0,1,.35-1A2.56,2.56,0,0,1,140.16,41.58Zm.06.43a3,3,0,0,0-.37.66,1.55,1.55,0,0,0-.14.56.28.28,0,0,0,0,.15.14.14,0,0,0,.12,0,.64.64,0,0,0,.37-.22,2,2,0,0,0,.39-.59.89.89,0,0,1-.28-.27l-.08-.17Z"/><path class="cls-12" d="M142.18,42.89l.29-.42.27-.36a3.46,3.46,0,0,1,.49-.47l.15-.12a.63.63,0,0,1,.21-.05.27.27,0,0,1,.2.11.39.39,0,0,1,.08.28,2.69,2.69,0,0,1-.12.72,2.61,2.61,0,0,0-.12.55.22.22,0,0,0,.05.16l0,.1s-.08.13-.24.24a.9.9,0,0,1-.41.16.22.22,0,0,1-.19-.12.9.9,0,0,1-.06-.36l0-.17.13-.4.13-.38.05-.19v0h0l-.05,0-.13.13-.14.17-.2.25-.24.32-.21.28-.2.29-.19.09-.21.08,0,0a.19.19,0,0,1-.08-.08.55.55,0,0,1-.09-.14l.08-.3.08-.3,0-.13a1.2,1.2,0,0,1,.07-.19l.23-.66a1.93,1.93,0,0,1,.13-.32l.19-.1.22-.08a.35.35,0,0,1,.2.07.19.19,0,0,1,.11.16l-.2.36A4.87,4.87,0,0,0,142.18,42.89Z"/><path class="cls-12" d="M147.22,42.79l-.49.56-.35.34a.74.74,0,0,1-.43.21.28.28,0,0,1-.16,0,.31.31,0,0,1,0-.17,1.24,1.24,0,0,1,.06-.31l0-.16a.79.79,0,0,0,0-.13l.09-.24.15-.4.12-.31a2.65,2.65,0,0,1,.16-.35.81.81,0,0,1,.2-.16.74.74,0,0,1,.27-.12s.1,0,.15.13a.38.38,0,0,1,.07.18l-.19.44a4.5,4.5,0,0,0-.19.42,3.89,3.89,0,0,0-.17.41,5.07,5.07,0,0,0,.66-.63,1,1,0,0,0,.27-.46.38.38,0,0,1,.21-.28.63.63,0,0,1,.29-.13.19.19,0,0,1,.12.06.32.32,0,0,1,0,.13,1.87,1.87,0,0,1-.14.48c0,.11-.07.22-.1.33a1.81,1.81,0,0,0,0,.29.66.66,0,0,0,.08.32c.05.08.1.12.17.12a.35.35,0,0,0,.19-.11.77.77,0,0,0,.19-.27,1.83,1.83,0,0,1-.12-.39l0-.23v-.26a.67.67,0,0,1,.15-.44.47.47,0,0,1,.35-.18s.11.06.17.17a1,1,0,0,1,.07.39v.27a1.45,1.45,0,0,1-.05.48.25.25,0,0,1-.15.19,3.15,3.15,0,0,1-.24.38,2.56,2.56,0,0,1-.28.3,1,1,0,0,1-.59.24.46.46,0,0,1-.22,0,1.1,1.1,0,0,1-.21-.17.39.39,0,0,1-.1-.16.46.46,0,0,1,0-.22V43Z"/><path class="cls-12" d="M149.83,43.82a.38.38,0,0,1-.3-.13.53.53,0,0,1-.11-.34.69.69,0,0,1,0-.22l.15-.38.2-.49c.13-.3.21-.47.23-.5a.4.4,0,0,1,.22-.1l.13,0,.12-.07.14,0a.09.09,0,0,1,.09,0,.17.17,0,0,1,0,.13.84.84,0,0,1-.13.33l-.15.28-.1.22-.08.2,0,.2,0,.15a.22.22,0,0,0,0,.13.15.15,0,0,0,.12,0,.52.52,0,0,0,.21-.09l.19-.09a.12.12,0,0,1,.08,0,.14.14,0,0,1,.05.08s-.06.14-.18.25a.88.88,0,0,1-.35.21,2,2,0,0,0-.34.12A.93.93,0,0,1,149.83,43.82Zm.39-2.44a.12.12,0,0,1-.09-.06.2.2,0,0,1,0-.13.55.55,0,0,1,.09-.19l.08-.11a.63.63,0,0,1,.22-.14.93.93,0,0,1,.32-.07.19.19,0,0,1,.12,0,.23.23,0,0,1,.06.13l0,.13-.07.18c0,.05-.1.1-.24.16l-.2,0Z"/><path class="cls-12" d="M151.52,42.39h-.06l-.13,0a.07.07,0,0,1,0-.07s0-.07.13-.16l.34-.26.27-.53.17-.29a.52.52,0,0,1,.17-.2l.08,0,.08,0,.1,0,.17-.06a.12.12,0,0,1,.09,0s.05,0,.07.09V41a1.57,1.57,0,0,1-.16.32l-.15.27-.15.29.19,0a.5.5,0,0,1,.19,0A.13.13,0,0,1,153,42a.37.37,0,0,1-.11.2l-.06.07,0,0a.25.25,0,0,1-.22.11h-.29a1.74,1.74,0,0,0-.17.33A1.11,1.11,0,0,0,152,43a.25.25,0,0,0,.06.19.22.22,0,0,0,.19.07h.12l.08,0,.12-.05a.76.76,0,0,1,.19,0,.12.12,0,0,1,.09,0,.1.1,0,0,1,0,.09c0,.08-.12.2-.35.34a1.46,1.46,0,0,1-.74.21.6.6,0,0,1-.43-.2.67.67,0,0,1-.17-.44,1.53,1.53,0,0,1,.11-.37l.1-.24Z"/><path class="cls-12" d="M154.27,42.36a4.66,4.66,0,0,1,.63-.63.88.88,0,0,1,.42-.25.23.23,0,0,1,.16.08.26.26,0,0,1,.07.19l-.05.35-.1.52-.07.43,0,.17a.15.15,0,0,0,.1.16c.07,0,.11,0,.11.07a.51.51,0,0,1,0,.13.12.12,0,0,1-.07.07l-.31.14-.17.08a.37.37,0,0,1-.27-.12.36.36,0,0,1-.11-.28,1.6,1.6,0,0,1,0-.3,2.32,2.32,0,0,1,.11-.41,3.41,3.41,0,0,0,.14-.56.06.06,0,0,0,0-.05v0c-.05,0-.19.13-.44.39l-.16.19-.17.22c-.08.14-.18.3-.28.49a.23.23,0,0,1-.14.11h0l-.17.08-.13.06a.11.11,0,0,1-.1-.05.38.38,0,0,1-.05-.14.6.6,0,0,1,0-.12l.1-.24a4.24,4.24,0,0,0,.18-.46c0-.13.07-.24.09-.32s.06-.19.11-.32.16-.42.24-.61l0-.08.46-1.07a2.51,2.51,0,0,1,.21-.44l.09-.07.34-.18.1,0a.19.19,0,0,1,.1,0,.14.14,0,0,1,.13.13,9.11,9.11,0,0,1-.53,1.33Z"/><path class="cls-13" d="M106.91,46.68a2,2,0,0,1,.45-.7,2.76,2.76,0,0,1,.75-.59,3.79,3.79,0,0,1,1-.42,3.92,3.92,0,0,1,1.05-.15,2,2,0,0,1,.8.1.43.43,0,0,1,.19.42.37.37,0,0,1-.07.25.21.21,0,0,1-.19.08.35.35,0,0,1-.17-.05,3.54,3.54,0,0,0-1.16-.2,2.52,2.52,0,0,0-1.59.46,1.47,1.47,0,0,0-.62,1.22,1.64,1.64,0,0,0,.63,1.28,2.27,2.27,0,0,0,1.53.54,2.73,2.73,0,0,0,1.37-.38l.12,0,.07,0,0,.06a.22.22,0,0,1-.08.15,1.93,1.93,0,0,1-.32.23,3.83,3.83,0,0,1-.9.39,3.56,3.56,0,0,1-1,.13,2.44,2.44,0,0,1-1.63-.55,1.78,1.78,0,0,1-.65-1.38,1.43,1.43,0,0,1,.07-.48A1.12,1.12,0,0,1,106.91,46.68Z"/><path class="cls-14" d="M112.79,47.19A.42.42,0,0,1,113,47a.59.59,0,0,1,.27-.11c.08,0,.19.08.33.26a.81.81,0,0,1,.21.53v.12l0,.17a1.52,1.52,0,0,1-.11.62,1.41,1.41,0,0,1-.32.51,2,2,0,0,1-.63.51,1.37,1.37,0,0,1-.66.2.61.61,0,0,1-.45-.17.57.57,0,0,1-.18-.41,2,2,0,0,1,.38-1.11A2.84,2.84,0,0,1,112.79,47.19Zm.07.49a2.9,2.9,0,0,0-.4.76,2.08,2.08,0,0,0-.15.64.34.34,0,0,0,0,.17.23.23,0,0,0,.13.06c.1,0,.23-.08.39-.25a2.26,2.26,0,0,0,.42-.69.76.76,0,0,1-.29-.3l-.09-.19Z"/><path class="cls-3" d="M116,45.63a.11.11,0,0,1,.08,0,.24.24,0,0,1,0,.13,4.77,4.77,0,0,1-.36,1l0,.1c-.14.34-.27.63-.36.87s-.18.42-.24.58a1.82,1.82,0,0,0-.13.57.22.22,0,0,0,0,.16.26.26,0,0,0,.15.06.82.82,0,0,0,.48-.2,1.35,1.35,0,0,1,.28-.2.12.12,0,0,1,.08,0l0,.12a.41.41,0,0,1-.11.22l-.13.14-.17.15a2,2,0,0,1-.26.18l-.28.16-.22.11-.14,0a.28.28,0,0,1-.15-.08l-.13-.09-.07,0q-.27-.12-.27-.24v-.1l0-.15v-.06a4.68,4.68,0,0,1,.33-1.08l.06-.14.24-.6a4.31,4.31,0,0,0,.34-1V46l0,0,.32-.14.29-.13.11,0,.08,0Z"/><path class="cls-5" d="M117.67,47.19a.48.48,0,0,1,.2-.21.59.59,0,0,1,.27-.11c.08,0,.19.08.33.26a.81.81,0,0,1,.21.53v.12l0,.17a1.52,1.52,0,0,1-.11.62,1.41,1.41,0,0,1-.32.51,2,2,0,0,1-.63.51,1.37,1.37,0,0,1-.66.2.61.61,0,0,1-.45-.17.56.56,0,0,1-.17-.41,2,2,0,0,1,.37-1.11A2.93,2.93,0,0,1,117.67,47.19Zm.07.49a3.23,3.23,0,0,0-.4.76,2.08,2.08,0,0,0-.15.64.25.25,0,0,0,0,.17.17.17,0,0,0,.12.06c.1,0,.23-.08.39-.25a2.26,2.26,0,0,0,.42-.69.84.84,0,0,1-.29-.3l-.09-.19Z"/><path class="cls-6" d="M120.58,48.27a2.94,2.94,0,0,0-.41.66l-.21.45a1.12,1.12,0,0,1-.27.24.83.83,0,0,1-.29.13.41.41,0,0,1-.28-.15.52.52,0,0,1-.14-.28s0-.11.13-.18a.73.73,0,0,0,.16-.14,1.24,1.24,0,0,0,.14-.37l0-.25v-.32a.31.31,0,0,0,0-.11.25.25,0,0,0-.11,0,.25.25,0,0,1-.16,0,.11.11,0,0,1-.06-.1c0-.08,0-.15.15-.23l.15-.08a.53.53,0,0,1,.17,0,.56.56,0,0,0,.22-.06l.16-.07a.14.14,0,0,1,.13.1.72.72,0,0,1,0,.28v.18l0,.24a.72.72,0,0,1,0,.17s0,.11-.06.2l-.08.31.1-.19a3.35,3.35,0,0,1,.4-.65l0-.17,0-.17V47.4a.49.49,0,0,1,.05-.18.43.43,0,0,1,.15-.2l.27-.2.15-.07s.11.06.18.17a.68.68,0,0,1,.09.28l-.09.2a.71.71,0,0,0-.09.31.32.32,0,0,0,.07.18.29.29,0,0,1,.09.23v.11l0,.07-.18.09-.22.07a.25.25,0,0,1-.11-.05A.58.58,0,0,1,120.58,48.27Z"/><path class="cls-7" d="M124.85,48.74a4.36,4.36,0,0,1-.43.43,1.58,1.58,0,0,1-.44.24l-.48.16-.27.06a.29.29,0,0,1-.22-.14.52.52,0,0,1-.1-.33.74.74,0,0,1,.08-.29l0-.08a.57.57,0,0,1,.07-.12l.14-.23a3.09,3.09,0,0,1,.48-.59l.29-.25.38-.28.28-.16.26-.12a1.27,1.27,0,0,1,.44-.1.88.88,0,0,1,.45.11c.13.07.2.15.2.23l-.08.32-.13.52-.17.81-.07.4a.21.21,0,0,0,0,.14l0,.11a.17.17,0,0,1-.07.13.22.22,0,0,1-.17.07l-.11,0-.1,0h-.13a.2.2,0,0,1-.17-.14,1.42,1.42,0,0,1-.06-.49v-.25Zm-.94.32a.89.89,0,0,0,.43-.24,4.06,4.06,0,0,0,.57-.62,5.81,5.81,0,0,0,.32-.49.7.7,0,0,0,.14-.34v0h0a.94.94,0,0,0-.43.24,4.54,4.54,0,0,0-.58.58l-.18.23-.15.24a.76.76,0,0,0-.12.36v.07Z"/><path class="cls-8" d="M127.12,48.69l.3-.48.29-.41a3,3,0,0,1,.52-.54.67.67,0,0,1,.17-.13.47.47,0,0,1,.21-.07.31.31,0,0,1,.22.12.54.54,0,0,1,.09.33,3.6,3.6,0,0,1-.13.83,3,3,0,0,0-.13.62.26.26,0,0,0,.05.19l0,.11c0,.06-.09.15-.26.27a.75.75,0,0,1-.43.19.23.23,0,0,1-.2-.14,1.15,1.15,0,0,1-.06-.41l0-.19.14-.47.14-.43.05-.22v0h0l-.05,0L128,48l-.16.2-.21.29-.25.36-.22.33-.23.33-.2.09-.21.1,0,0a.3.3,0,0,1-.09-.1.6.6,0,0,1-.09-.15l.09-.35.08-.34q0-.09,0-.15a1.19,1.19,0,0,1,.08-.21l.24-.76a2.2,2.2,0,0,1,.14-.37.92.92,0,0,1,.2-.11l.23-.1a.4.4,0,0,1,.22.08.21.21,0,0,1,.12.18l-.21.42A3.94,3.94,0,0,0,127.12,48.69Z"/><path class="cls-9" d="M131,47.06a3.53,3.53,0,0,0-.35-.77,1.54,1.54,0,0,0-.4-.48,1,1,0,0,0-.37-.18c-.16-.06-.25-.11-.25-.16s.08-.13.26-.22a.94.94,0,0,1,.42-.13,1.05,1.05,0,0,1,.43.14,2.33,2.33,0,0,1,.46.37,2.19,2.19,0,0,1,.42.71,2.49,2.49,0,0,1,.15.87,2.56,2.56,0,0,1,0,.39c0,.13,0,.26-.08.38a3.37,3.37,0,0,1-.13.38c-.05.11-.12.24-.2.38s-.19.22-.38.42l-.07.06a2,2,0,0,1-.25.2,1.6,1.6,0,0,1-.27.16,1.25,1.25,0,0,1-.47.14.52.52,0,0,1-.42-.18.63.63,0,0,1-.16-.46,2.73,2.73,0,0,1,.08-.43l.08-.25a.9.9,0,0,1,.08-.21,1.83,1.83,0,0,1,.54-.6A4,4,0,0,1,131,47.06Zm.07.33a3.7,3.7,0,0,0-.67.8,1.6,1.6,0,0,0-.27.74.28.28,0,0,0,0,.15.26.26,0,0,0,.15.06c.19,0,.37-.13.54-.41a1.69,1.69,0,0,0,.25-.92v-.28Z"/><path class="cls-5" d="M133.53,49.7a18.75,18.75,0,0,0,3.28-.67c.8-.26,1.21-.51,1.21-.77s-.11-.26-.32-.34a2.78,2.78,0,0,0-.94-.12H136a3.28,3.28,0,0,1-.6,0,.86.86,0,0,1-.34-.13l-.13-.14-.14-.15a.65.65,0,0,0-.29-.09h-.11a.19.19,0,0,1-.17-.09.29.29,0,0,1-.06-.21,1,1,0,0,1,.19-.52,2.69,2.69,0,0,1,.56-.56,6.38,6.38,0,0,1,1-.57,4.24,4.24,0,0,1,.57-.24l.68-.24.34-.09.38-.08.31-.05.29,0a.81.81,0,0,1,.39.08.31.31,0,0,1,.12.26c0,.08-.08.21-.24.4l-.18.21-.09.13c-.08.12-.15.18-.23.18a.15.15,0,0,1-.11,0,.46.46,0,0,1,0-.15v-.09a.12.12,0,0,0,0-.09l-.12,0-.32,0-.52.1-.87.22-.28.07-.33.12a2.26,2.26,0,0,0-.61.32.43.43,0,0,0-.2.33.27.27,0,0,0,.18.24,1.78,1.78,0,0,0,.59.07l.41,0h.61a5.38,5.38,0,0,1,1.78.22.74.74,0,0,1,.54.71.86.86,0,0,1-.1.41,1,1,0,0,1-.33.36l-.17.11a6.05,6.05,0,0,0-.7.49,2.69,2.69,0,0,1-.92.49l-.1,0c-.78.25-1.57.47-2.38.66a10.24,10.24,0,0,1-1.52.25.73.73,0,0,1-.23,0,.17.17,0,0,1-.08-.13c0-.07.09-.17.28-.31a1.13,1.13,0,0,0,.33-.29l0-.06a.46.46,0,0,1,.16-.23,4.34,4.34,0,0,1,.53-.4l.18-.11.1,0s.06,0,.08,0a.16.16,0,0,1,0,.07s-.09.16-.27.33Z"/><path class="cls-3" d="M140,48.94l.15-.45.13-.43.08-.3,0-.16v-.06l0,0a.86.86,0,0,0-.38.23,2.39,2.39,0,0,0-.23.22,1.45,1.45,0,0,0-.17.26l0,.05a.24.24,0,0,1-.24.17.1.1,0,0,1-.08,0l0-.07a1.44,1.44,0,0,1,.31-.61,3.21,3.21,0,0,1,.34-.41,3.41,3.41,0,0,1,.38-.38l.16-.11.15-.08a1.06,1.06,0,0,1,.31,0,.28.28,0,0,1,.22.1.48.48,0,0,1,.08.29,9.25,9.25,0,0,1-.29,1.17l-.05.17a3,3,0,0,1,.72-.9,1.17,1.17,0,0,1,.71-.34.28.28,0,0,1,.26.15,1,1,0,0,1,.09.49,1.21,1.21,0,0,1-.15.62,1.34,1.34,0,0,1-.21.28,3.83,3.83,0,0,1-.35.35.24.24,0,0,1,.15,0,.12.12,0,0,1,.05.1s0,.06-.12.1l-.08,0-.2.09a2.46,2.46,0,0,1-1.06.31h-.11c-.18.36-.31.67-.42.94a2,2,0,0,0-.15.54.27.27,0,0,0,0,.12l0,.11a.14.14,0,0,1-.06.12s0,0-.14,0a1.11,1.11,0,0,0-.3.11,1,1,0,0,1-.23.08.14.14,0,0,1-.11-.06.14.14,0,0,1,0-.13,16.81,16.81,0,0,1,.57-1.75l.06-.19a1.09,1.09,0,0,1-.38-.07.19.19,0,0,1-.09-.17.2.2,0,0,1,0-.11l.09-.11a1.69,1.69,0,0,1,.29-.22l.2-.11h0Zm.79.16h.51l.21,0a1.91,1.91,0,0,0,.22-.3l.16-.28a1,1,0,0,0,.13-.45.28.28,0,0,0,0-.15.15.15,0,0,0-.1-.08c-.12,0-.3.13-.54.38A2.58,2.58,0,0,0,140.76,49.1Z"/><path class="cls-13" d="M143.89,49.12a.56.56,0,0,0,.23.2,1.35,1.35,0,0,0,.45,0h.12l.13,0a.41.41,0,0,0,.18-.07l.16-.08.09,0a.13.13,0,0,1,.1,0s0,0,.05.09-.14.2-.4.33a2.4,2.4,0,0,1-.36.14,1.12,1.12,0,0,1-.31.05l-.25,0-.2,0-.28,0h-.22a.45.45,0,0,1-.36-.2.89.89,0,0,1-.14-.52,1.52,1.52,0,0,1,.18-.64,2.47,2.47,0,0,1,.48-.68,2.77,2.77,0,0,1,.71-.54,1.51,1.51,0,0,1,.63-.22.41.41,0,0,1,.32.13.61.61,0,0,1,.12.39.68.68,0,0,1-.1.35v0l-.05.18a.44.44,0,0,1,0,.18,1.79,1.79,0,0,1-.42.56A3.21,3.21,0,0,1,143.89,49.12Zm-.09-.33.23-.1.2-.15a1.36,1.36,0,0,0,.32-.31,1.2,1.2,0,0,0,.25-.6.21.21,0,0,0,0-.12.19.19,0,0,0-.09,0,.65.65,0,0,0-.52.38l-.14.25-.13.24-.07.23Z"/><path class="cls-4" d="M147.48,48.9l.26-.26a.31.31,0,0,1,.12-.06.08.08,0,0,1,.07,0l0,.07a.56.56,0,0,1-.14.32,1.7,1.7,0,0,1-.35.36,4.53,4.53,0,0,1-.49.29,1.33,1.33,0,0,1-.42.13h-.11l-.15,0,0,0h0a.69.69,0,0,1-.43-.14.5.5,0,0,1-.16-.35.87.87,0,0,1,0-.26,1.71,1.71,0,0,1,0-.18,1.64,1.64,0,0,1,.08-.19,2.51,2.51,0,0,1,.45-.71,3.34,3.34,0,0,1,.71-.6,3,3,0,0,1,.37-.2.8.8,0,0,1,.24-.07.56.56,0,0,1,.28.1.34.34,0,0,1,.15.22.45.45,0,0,1-.07.25c0,.07-.08.11-.13.11l-.09,0h-.11a.52.52,0,0,0-.34.13,1.84,1.84,0,0,0-.33.4,2.16,2.16,0,0,0-.24.48,1.14,1.14,0,0,0-.09.37.22.22,0,0,0,0,.1l0,0h.05a1.08,1.08,0,0,0,.31-.1A1.84,1.84,0,0,0,147.48,48.9Z"/><path class="cls-6" d="M149.3,48.08a5.37,5.37,0,0,1,.68-.72c.21-.19.36-.28.45-.28a.22.22,0,0,1,.17.09.33.33,0,0,1,.08.22l-.06.39-.11.6-.07.49,0,.2a.17.17,0,0,0,.11.18c.07,0,.11,0,.11.08a.28.28,0,0,1,0,.14.13.13,0,0,1-.07.09l-.34.16-.17.09a.43.43,0,0,1-.29-.13.49.49,0,0,1-.13-.33,1.42,1.42,0,0,1,0-.34c0-.13.06-.28.11-.47a3.15,3.15,0,0,0,.16-.64.08.08,0,0,0,0-.06v0s-.21.15-.47.45l-.17.21c-.05.07-.12.16-.18.26s-.19.34-.31.56a.24.24,0,0,1-.14.12h0l-.17.09-.15.06a.11.11,0,0,1-.1,0,.26.26,0,0,1-.05-.17.39.39,0,0,1,0-.14l.11-.26c.08-.21.15-.39.19-.54s.07-.27.1-.37.06-.21.11-.36.17-.48.26-.69l0-.1.48-1.22c.13-.31.21-.48.23-.51l.1-.08.36-.2.1,0a.53.53,0,0,1,.12,0,.11.11,0,0,1,.09,0,.15.15,0,0,1,0,.11,9.5,9.5,0,0,1-.56,1.52Z"/><path class="cls-7" d="M152.05,49.12a.5.5,0,0,0,.23.2,1.35,1.35,0,0,0,.45,0h.12l.13,0a.41.41,0,0,0,.18-.07l.16-.08.08,0a.14.14,0,0,1,.11,0,.26.26,0,0,1,0,.09q0,.14-.39.33a2.4,2.4,0,0,1-.36.14,1.18,1.18,0,0,1-.31.05l-.25,0-.2,0-.28,0h-.22a.45.45,0,0,1-.36-.2A.82.82,0,0,1,151,49a1.52,1.52,0,0,1,.18-.64,2.47,2.47,0,0,1,.48-.68,2.83,2.83,0,0,1,.72-.54,1.51,1.51,0,0,1,.63-.22.41.41,0,0,1,.32.13.6.6,0,0,1,.11.39.68.68,0,0,1-.09.35v0l0,.18a.44.44,0,0,1-.05.18,1.69,1.69,0,0,1-.43.56A2.94,2.94,0,0,1,152.05,49.12Zm-.1-.33a1.33,1.33,0,0,0,.24-.1l.2-.15a1.58,1.58,0,0,0,.32-.31,1.17,1.17,0,0,0,.24-.6.37.37,0,0,0,0-.12.19.19,0,0,0-.09,0,.63.63,0,0,0-.52.38l-.14.25-.13.24-.07.23Z"/><path class="cls-8" d="M155.76,48c-.32.36-.66.77-1,1.24l-.1.14s-.07.06-.17.11l-.09,0-.14.07a.78.78,0,0,1-.29.12.18.18,0,0,1-.16-.09.45.45,0,0,1-.06-.26,2.51,2.51,0,0,1,.24-.61l.21-.48.19-.49,0-.12c.14-.44.34-.67.6-.67,0,0,.1,0,.15.11a.35.35,0,0,1,.09.22,2.26,2.26,0,0,1-.19.5l-.2.53-.11.29.7-.79c.47-.54.76-.81.85-.81a.23.23,0,0,1,.19.09.55.55,0,0,1,.07.25,4.45,4.45,0,0,1-.16.56l-.24.73a3.77,3.77,0,0,1,.39-.45l.27-.29.2-.23.2-.23.19-.19a.5.5,0,0,1,.27-.14.16.16,0,0,1,.11.05.14.14,0,0,1,.06.12l0,.1v.11a1.93,1.93,0,0,1,0,.33,3.41,3.41,0,0,1-.11.43,2.48,2.48,0,0,0-.12.41,1,1,0,0,0,0,.24.38.38,0,0,0,.05.19.3.3,0,0,1,0,.15c0,.08-.07.14-.22.19l-.1,0a.6.6,0,0,0-.23.16.35.35,0,0,1-.24.12.32.32,0,0,1-.21-.09.25.25,0,0,1-.11-.18l.14-.49c.1-.29.19-.58.26-.87l-.36.44-.22.28-.32.42a2,2,0,0,1-.3.22.83.83,0,0,1-.27.11.35.35,0,0,1-.17-.1.42.42,0,0,1-.1-.2,3.38,3.38,0,0,1,.24-.68Z"/></g></g></g></g></svg>