<svg xmlns="http://www.w3.org/2000/svg" xmlns:xlink="http://www.w3.org/1999/xlink" viewBox="0 0 271.09 47.52"><defs><style>.cls-1{fill:url(#linear-gradient);}.cls-2{fill:url(#linear-gradient-2);}.cls-3{fill:url(#linear-gradient-3);}.cls-4{fill:url(#linear-gradient-4);}.cls-5{fill:url(#linear-gradient-5);}.cls-6{fill:url(#linear-gradient-6);}.cls-7{fill:url(#linear-gradient-7);}.cls-8{fill:url(#linear-gradient-8);}.cls-9{fill:url(#linear-gradient-9);}.cls-10{fill:url(#linear-gradient-10);}.cls-11{fill:url(#linear-gradient-11);}.cls-12{fill:url(#linear-gradient-12);}.cls-13{fill:#6e6f71;}.cls-14,.cls-27{fill:#80d2f5;}.cls-14{fill-rule:evenodd;}.cls-15{fill:url(#linear-gradient-13);}.cls-16{fill:url(#linear-gradient-14);}.cls-17{fill:url(#linear-gradient-15);}.cls-18{fill:url(#linear-gradient-16);}.cls-19{fill:url(#linear-gradient-17);}.cls-20{fill:url(#linear-gradient-18);}.cls-21{fill:url(#linear-gradient-19);}.cls-22{fill:url(#linear-gradient-20);}.cls-23{fill:url(#linear-gradient-21);}.cls-24{fill:url(#linear-gradient-22);}.cls-25{fill:url(#linear-gradient-23);}.cls-26{fill:url(#linear-gradient-24);}</style><linearGradient id="linear-gradient" x1="23.27" y1="-10.83" x2="23.27" y2="24.32" gradientUnits="userSpaceOnUse"><stop offset="0" stop-color="#b9e4fa"/><stop offset="1" stop-color="#0ca6df"/></linearGradient><linearGradient id="linear-gradient-2" x1="18" y1="-10.83" x2="18" y2="24.32" xlink:href="#linear-gradient"/><linearGradient id="linear-gradient-3" x1="21.95" y1="-10.83" x2="21.95" y2="24.32" xlink:href="#linear-gradient"/><linearGradient id="linear-gradient-4" x1="26.65" y1="-10.83" x2="26.65" y2="24.32" xlink:href="#linear-gradient"/><linearGradient id="linear-gradient-5" x1="15.51" y1="-10.83" x2="15.51" y2="24.32" xlink:href="#linear-gradient"/><linearGradient id="linear-gradient-6" x1="11.48" y1="-10.83" x2="11.48" y2="24.32" xlink:href="#linear-gradient"/><linearGradient id="linear-gradient-7" x1="14.35" y1="-10.83" x2="14.35" y2="24.32" xlink:href="#linear-gradient"/><linearGradient id="linear-gradient-8" x1="18.23" y1="-10.25" x2="18.23" y2="24.53" xlink:href="#linear-gradient"/><linearGradient id="linear-gradient-9" x1="18.7" y1="-10.85" x2="18.7" y2="24.32" xlink:href="#linear-gradient"/><linearGradient id="linear-gradient-10" x1="18.31" y1="-10.91" x2="18.31" y2="24.3" xlink:href="#linear-gradient"/><linearGradient id="linear-gradient-11" x1="18.65" y1="20.48" x2="18.65" y2="27.09" xlink:href="#linear-gradient"/><linearGradient id="linear-gradient-12" x1="16.96" y1="-10.83" x2="16.96" y2="24.32" xlink:href="#linear-gradient"/><linearGradient id="linear-gradient-13" x1="45.67" y1="-7.51" x2="45.67" y2="30.07" xlink:href="#linear-gradient"/><linearGradient id="linear-gradient-14" x1="58.99" y1="-7.51" x2="58.99" y2="30.07" xlink:href="#linear-gradient"/><linearGradient id="linear-gradient-15" x1="73.2" y1="-7.51" x2="73.2" y2="30.07" xlink:href="#linear-gradient"/><linearGradient id="linear-gradient-16" x1="86.67" y1="-7.51" x2="86.67" y2="30.07" xlink:href="#linear-gradient"/><linearGradient id="linear-gradient-17" x1="101.22" y1="-7.51" x2="101.22" y2="30.07" xlink:href="#linear-gradient"/><linearGradient id="linear-gradient-18" x1="118.46" y1="-7.51" x2="118.46" y2="30.07" xlink:href="#linear-gradient"/><linearGradient id="linear-gradient-19" x1="128.32" y1="-7.51" x2="128.32" y2="30.07" xlink:href="#linear-gradient"/><linearGradient id="linear-gradient-20" x1="138.35" y1="-7.51" x2="138.35" y2="30.07" xlink:href="#linear-gradient"/><linearGradient id="linear-gradient-21" x1="151.91" y1="-7.51" x2="151.91" y2="30.07" xlink:href="#linear-gradient"/><linearGradient id="linear-gradient-22" x1="166.38" y1="-7.51" x2="166.38" y2="30.07" xlink:href="#linear-gradient"/><linearGradient id="linear-gradient-23" x1="180.36" y1="-7.51" x2="180.36" y2="30.07" xlink:href="#linear-gradient"/><linearGradient id="linear-gradient-24" x1="199.45" y1="-7.51" x2="199.45" y2="30.07" xlink:href="#linear-gradient"/></defs><g id="Layer_2" data-name="Layer 2"><g id="Layer_1-2" data-name="Layer 1"><g id="logos"><g id="paper"><path class="cls-1" d="M24.84,2.88,23.71,1.74a.61.61,0,0,0-.86,0L21.71,2.86a.61.61,0,0,0,0,.86l1.14,1.14a.6.6,0,0,0,.85,0l1.15-1.13A.59.59,0,0,0,24.84,2.88Z"/><path class="cls-2" d="M19.45,4.67,18.4,3.61a.56.56,0,0,0-.79,0l-1.06,1a.56.56,0,0,0,0,.79l1,1.06a.57.57,0,0,0,.8,0l1.06-1A.56.56,0,0,0,19.45,4.67Z"/><path class="cls-3" d="M23.82,8.32,22.47,7a.72.72,0,0,0-1,0L20.09,8.3a.72.72,0,0,0,0,1l1.35,1.36a.72.72,0,0,0,1,0l1.36-1.34A.72.72,0,0,0,23.82,8.32Z"/><path class="cls-4" d="M29.13,12.88l-1.78-1.79a1,1,0,0,0-1.36,0l-1.81,1.78a1,1,0,0,0,0,1.35L26,16a1,1,0,0,0,1.36,0l1.81-1.78A1,1,0,0,0,29.13,12.88Z"/><path class="cls-5" d="M17.74,10.56,16.13,8.94a.86.86,0,0,0-1.22,0l-1.63,1.6a.85.85,0,0,0,0,1.21l1.61,1.62a.87.87,0,0,0,1.22,0l1.62-1.6A.87.87,0,0,0,17.74,10.56Z"/><path class="cls-6" d="M13.26,6.41,12,5.12a.68.68,0,0,0-1,0L9.7,6.39a.69.69,0,0,0,0,1L11,8.66a.7.7,0,0,0,1,0l1.3-1.29A.68.68,0,0,0,13.26,6.41Z"/><path class="cls-7" d="M15.7,1.13l-1-1a.53.53,0,0,0-.74,0l-1,1a.52.52,0,0,0,0,.74l1,1a.53.53,0,0,0,.74,0l1-1A.51.51,0,0,0,15.7,1.13Z"/><path class="cls-8" d="M18.26,44h0Z"/><path class="cls-9" d="M18.68,23.82l0,0h0Z"/><path class="cls-10" d="M18.36,44h0Z"/><polygon class="cls-11" points="18.64 23.79 18.65 23.79 18.64 23.79 18.64 23.79"/><path class="cls-12" d="M33.38,29.09a12.88,12.88,0,0,0-1.45-3.39,15,15,0,0,0-1.46-2.06c-.49-.59-1-1.19-1.64-1.8l-7.2-7.17a2.38,2.38,0,0,0-3.38,0l-2.63,2.62-5.56-5.53a2.37,2.37,0,0,0-3.37,0c-3.8,3.88-11.15,13.28-3,26.1C0,31.1.26,20.75,7.1,14.44a1.59,1.59,0,0,1,2.2,0c3.09,3.07,8.66,8.63,9.34,9.31h0l0,0h0l0,0-.05-.06s0,.05,0,.06a9.29,9.29,0,0,0-4.82.93,11.37,11.37,0,0,0-5.78,7,11,11,0,0,0,1.1,8.76,9.45,9.45,0,0,0,.59.87l-.12-.11h0C6.36,38.4,3,33.53,4.13,27.36a15.08,15.08,0,0,1,4.14-7.48c-5.2,4.33-9,14.66-.38,22.79a16.64,16.64,0,0,0,9.48,4.71,14.51,14.51,0,0,0,16-18.29Zm-14.7-5.27Zm2.82,3.6a6.71,6.71,0,0,1,2.3,2.78,4.74,4.74,0,0,1-.31,4.44,4.5,4.5,0,0,1-3,2,3.67,3.67,0,0,1-3.57-1.49,2.5,2.5,0,0,1,.23-3.35,2.75,2.75,0,0,1,3.57-.24c-.11-.14-3.88-4-4.56-4.67A5.53,5.53,0,0,1,21.5,27.42Zm7.87,11.72a11.43,11.43,0,0,1-9.17,5A9.38,9.38,0,0,1,18.36,44h-.15a9.84,9.84,0,0,1-6.58-4.52c-.07-.1-.13-.2-.19-.3a8.07,8.07,0,0,1-.69-6.41l3.92,3.9c2.64,2.63,4.22,2.84,6.1,2.66a7,7,0,0,0,5-3.44,8.12,8.12,0,0,0-1.68-10.09c-1.63-1.63-3.71-3.71-6.67-6.65l2.07-2.06a.64.64,0,0,1,.92,0l6.18,6.15c.36.36,1.44,1.52,1.68,1.77A11.36,11.36,0,0,1,29.37,39.14Z"/><path class="cls-13" d="M39.94,37.38h2.27c1.66,0,2.76.79,2.76,2.4s-1.09,2.39-2.76,2.39H40.76v2.94h-.82Zm2.23,4.07c1.3,0,2-.57,2-1.67s-.66-1.68-2-1.68H40.76v3.35Z"/><path class="cls-13" d="M48.73,42.23c0-.91-.41-1.26-1.11-1.26a1.61,1.61,0,0,0-1.38.68l-.49-.44a2.25,2.25,0,0,1,1.93-.91,1.73,1.73,0,0,1,1.85,1.92v2.89h-.8l0-.71a1.75,1.75,0,0,1-1.56.8c-1,0-1.74-.46-1.74-1.43s.8-1.42,1.8-1.42h1.47ZM47.31,43c-.6,0-1.07.21-1.07.78s.4.82,1.14.82,1.35-.4,1.35-1V43Z"/><path class="cls-13" d="M50.9,40.4h.79l0,1A2,2,0,0,1,53.5,40.3a2.46,2.46,0,0,1,0,4.9,2,2,0,0,1-1.8-1.07v3.39H50.9ZM55,42.74A1.61,1.61,0,0,0,53.33,41a1.76,1.76,0,0,0,0,3.51A1.62,1.62,0,0,0,55,42.74Z"/><path class="cls-13" d="M59.15,44.53a2,2,0,0,0,1.5-.63l.49.48a2.51,2.51,0,0,1-2,.82A2.45,2.45,0,1,1,59,40.3,2.37,2.37,0,0,1,61.41,43h-4A1.64,1.64,0,0,0,59.15,44.53Zm1.46-2.12A1.47,1.47,0,0,0,59,41a1.58,1.58,0,0,0-1.63,1.44Z"/><path class="cls-13" d="M62.5,40.4h.8l0,.92a1.48,1.48,0,0,1,1.38-1,1.38,1.38,0,0,1,.83.23l-.31.69a1.14,1.14,0,0,0-.65-.18c-.68,0-1.22.48-1.22,1.58v2.48h-.8Z"/><path class="cls-13" d="M65.88,42.75a2.42,2.42,0,0,1,2.45-2.45,2.26,2.26,0,0,1,1.86.84l-.57.47A1.51,1.51,0,0,0,68.33,41a1.76,1.76,0,0,0,0,3.51,1.68,1.68,0,0,0,1.36-.62l.55.47a2.32,2.32,0,0,1-1.91.84A2.41,2.41,0,0,1,65.88,42.75Z"/><path class="cls-13" d="M71.22,36.9H72v4.42a1.81,1.81,0,0,1,1.68-1,1.73,1.73,0,0,1,1.77,1.94v2.87h-.8V42.33c0-.83-.39-1.3-1.18-1.3A1.38,1.38,0,0,0,72,42.52v2.59h-.8Z"/><path class="cls-13" d="M79.08,44.53a2,2,0,0,0,1.5-.63l.49.48a2.5,2.5,0,0,1-2,.82A2.45,2.45,0,1,1,81.35,43h-4A1.63,1.63,0,0,0,79.08,44.53Zm1.47-2.12A1.48,1.48,0,0,0,79,41a1.58,1.58,0,0,0-1.63,1.44Z"/><path class="cls-13" d="M82.43,40.4h.8l0,.89a1.58,1.58,0,0,1,1.48-1,1.43,1.43,0,0,1,1.43,1,1.81,1.81,0,0,1,1.63-1,1.61,1.61,0,0,1,1.68,1.8v3h-.79V42.2c0-.75-.3-1.17-1-1.17s-1.27.51-1.27,1.44v2.64h-.79V42.2c0-.75-.3-1.17-1-1.17a1.26,1.26,0,0,0-1.28,1.44v2.64h-.8Z"/><path class="cls-13" d="M91.06,43.69V41.07h-.73V40.4h.73V38.79h.79V40.4h1.32v.67H91.85V43.7c0,.62.22.82.56.82a.84.84,0,0,0,.67-.3l.39.54a1.51,1.51,0,0,1-1.14.45C91.61,45.21,91.06,44.8,91.06,43.69Z"/><path class="cls-13" d="M96.53,44.53A1.91,1.91,0,0,0,98,43.9l.5.48a2.53,2.53,0,0,1-2,.82,2.45,2.45,0,1,1-.12-4.9A2.38,2.38,0,0,1,98.79,43h-4A1.63,1.63,0,0,0,96.53,44.53ZM98,42.41A1.48,1.48,0,0,0,96.41,41a1.58,1.58,0,0,0-1.63,1.44Z"/><path class="cls-13" d="M99.58,42.75A2.42,2.42,0,0,1,102,40.3a2.26,2.26,0,0,1,1.86.84l-.57.47A1.5,1.5,0,0,0,102,41a1.76,1.76,0,0,0,0,3.51,1.68,1.68,0,0,0,1.36-.62l.55.47a2.32,2.32,0,0,1-1.91.84A2.41,2.41,0,0,1,99.58,42.75Z"/><path class="cls-13" d="M104.92,36.9h.8v4.42a1.81,1.81,0,0,1,1.68-1,1.73,1.73,0,0,1,1.77,1.94v2.87h-.8V42.33c0-.83-.39-1.3-1.18-1.3a1.38,1.38,0,0,0-1.47,1.49v2.59h-.8Z"/><path class="cls-13" d="M118.56,37.38h2.27c1.66,0,2.77.79,2.77,2.4s-1.1,2.39-2.77,2.39h-1.45v2.94h-.82Zm2.23,4.07c1.3,0,2-.57,2-1.67s-.66-1.68-2-1.68h-1.41v3.35Z"/><path class="cls-13" d="M127.35,42.23c0-.91-.41-1.26-1.1-1.26a1.62,1.62,0,0,0-1.39.68l-.49-.44a2.25,2.25,0,0,1,1.93-.91,1.73,1.73,0,0,1,1.85,1.92v2.89h-.8l0-.71a1.76,1.76,0,0,1-1.57.8c-1,0-1.73-.46-1.73-1.43s.8-1.42,1.79-1.42h1.47Zm-1.41.72c-.61,0-1.08.21-1.08.78s.4.82,1.15.82,1.34-.4,1.34-1V43Z"/><path class="cls-13" d="M129.52,40.4h.79l0,1a2,2,0,0,1,1.83-1.11,2.46,2.46,0,0,1,0,4.9,2,2,0,0,1-1.8-1.07v3.39h-.79Zm4.07,2.34A1.61,1.61,0,0,0,132,41a1.76,1.76,0,1,0,1.64,1.74Z"/><path class="cls-13" d="M137.78,44.53a1.94,1.94,0,0,0,1.49-.63l.49.48a2.49,2.49,0,0,1-2,.82A2.45,2.45,0,1,1,140,43h-4A1.63,1.63,0,0,0,137.78,44.53Zm1.46-2.12A1.48,1.48,0,0,0,137.66,41,1.58,1.58,0,0,0,136,42.41Z"/><path class="cls-13" d="M141.12,40.4h.8l0,.92a1.46,1.46,0,0,1,1.38-1,1.37,1.37,0,0,1,.82.23l-.31.69a1.12,1.12,0,0,0-.65-.18c-.67,0-1.22.48-1.22,1.58v2.48h-.8Z"/><path class="cls-13" d="M147.55,37.28h.11l3.61,4.5,3.58-4.5H155v7.83h-.8V40c0-.34,0-.85,0-.87s-.3.5-.54.79l-2.35,3h-.14l-2.32-3a7.21,7.21,0,0,1-.56-.79s0,.53,0,.87v5.11h-.8Z"/><path class="cls-13" d="M159.42,42.23c0-.91-.41-1.26-1.11-1.26a1.61,1.61,0,0,0-1.38.68l-.49-.44a2.25,2.25,0,0,1,1.93-.91,1.73,1.73,0,0,1,1.85,1.92v2.89h-.8l0-.71a1.77,1.77,0,0,1-1.57.8c-1,0-1.73-.46-1.73-1.43s.8-1.42,1.79-1.42h1.47ZM158,43c-.61,0-1.08.21-1.08.78s.4.82,1.14.82,1.35-.4,1.35-1V43Z"/><path class="cls-13" d="M161.28,42.75a2.42,2.42,0,0,1,2.46-2.45,2.29,2.29,0,0,1,1.86.84l-.57.47a1.52,1.52,0,0,0-1.29-.61,1.76,1.76,0,0,0,0,3.51,1.68,1.68,0,0,0,1.36-.62l.54.47a2.29,2.29,0,0,1-1.9.84A2.41,2.41,0,0,1,161.28,42.75Z"/><path class="cls-13" d="M166.63,36.9h.79v4.42a1.82,1.82,0,0,1,1.68-1,1.73,1.73,0,0,1,1.77,1.94v2.87h-.8V42.33c0-.83-.39-1.3-1.17-1.3a1.38,1.38,0,0,0-1.48,1.49v2.59h-.79Z"/><path class="cls-13" d="M172.08,38.48a.58.58,0,0,1,.57-.57.57.57,0,0,1,.57.57.56.56,0,0,1-.57.56A.57.57,0,0,1,172.08,38.48Zm.17,1.92h.8v4.71h-.8Z"/><path class="cls-13" d="M174.48,40.4h.8l0,1A1.8,1.8,0,0,1,177,40.3a1.73,1.73,0,0,1,1.77,1.94v2.87h-.8V42.33c0-.83-.39-1.3-1.18-1.3a1.38,1.38,0,0,0-1.47,1.49v2.59h-.8Z"/><path class="cls-13" d="M182.34,44.53a2,2,0,0,0,1.5-.63l.49.48a2.5,2.5,0,0,1-2,.82A2.45,2.45,0,1,1,184.61,43h-4A1.63,1.63,0,0,0,182.34,44.53Zm1.47-2.12A1.48,1.48,0,0,0,182.23,41a1.58,1.58,0,0,0-1.63,1.44Z"/><path class="cls-13" d="M185.69,40.4h.8l0,.92a1.46,1.46,0,0,1,1.38-1,1.37,1.37,0,0,1,.82.23l-.31.69a1.12,1.12,0,0,0-.65-.18c-.67,0-1.22.48-1.22,1.58v2.48h-.8Z"/><path class="cls-13" d="M191,44.71l-2-4.31h.88l1.33,2.92a4.59,4.59,0,0,1,.22.8,3.79,3.79,0,0,1,.22-.8l1.23-2.92h.82l-3.08,7.12h-.82Z"/><path class="cls-13" d="M202.56,37.38h2.27c1.66,0,2.77.79,2.77,2.4s-1.1,2.39-2.77,2.39h-1.45v2.94h-.82Zm2.23,4.07c1.3,0,2-.57,2-1.67s-.66-1.68-2-1.68h-1.41v3.35Z"/><path class="cls-13" d="M211.35,42.23c0-.91-.41-1.26-1.1-1.26a1.59,1.59,0,0,0-1.38.68l-.5-.44a2.26,2.26,0,0,1,1.93-.91,1.73,1.73,0,0,1,1.85,1.92v2.89h-.8l0-.71a1.76,1.76,0,0,1-1.57.8c-1,0-1.73-.46-1.73-1.43s.8-1.42,1.79-1.42h1.47Zm-1.41.72c-.61,0-1.07.21-1.07.78s.39.82,1.14.82,1.34-.4,1.34-1V43Z"/><path class="cls-13" d="M213.52,40.4h.79l0,1a2,2,0,0,1,1.84-1.11,2.46,2.46,0,0,1,0,4.9,2,2,0,0,1-1.8-1.07v3.39h-.79Zm4.07,2.34A1.61,1.61,0,0,0,216,41a1.76,1.76,0,1,0,1.64,1.74Z"/><path class="cls-13" d="M221.78,44.53a1.94,1.94,0,0,0,1.49-.63l.49.48a2.49,2.49,0,0,1-2,.82A2.45,2.45,0,1,1,224,43h-4A1.63,1.63,0,0,0,221.78,44.53Zm1.46-2.12A1.48,1.48,0,0,0,221.66,41,1.58,1.58,0,0,0,220,42.41Z"/><path class="cls-13" d="M225.12,40.4h.8l0,.92a1.46,1.46,0,0,1,1.38-1,1.37,1.37,0,0,1,.82.23l-.31.69a1.12,1.12,0,0,0-.65-.18c-.67,0-1.22.48-1.22,1.58v2.48h-.8Z"/><path class="cls-13" d="M231.55,37.38h2.27c1.66,0,2.76.79,2.76,2.4s-1.09,2.39-2.76,2.39h-1.45v2.94h-.82Zm2.22,4.07c1.31,0,2-.57,2-1.67s-.66-1.68-2-1.68h-1.4v3.35Z"/><path class="cls-13" d="M237.52,40.4h.8l0,.92a1.46,1.46,0,0,1,1.38-1,1.37,1.37,0,0,1,.82.23l-.31.69a1.12,1.12,0,0,0-.65-.18c-.67,0-1.22.48-1.22,1.58v2.48h-.8Z"/><path class="cls-13" d="M240.9,42.75a2.5,2.5,0,1,1,2.51,2.45A2.45,2.45,0,0,1,240.9,42.75Zm4.19,0a1.69,1.69,0,1,0-1.68,1.77A1.66,1.66,0,0,0,245.09,42.75Z"/><path class="cls-13" d="M246.71,42.74A2.32,2.32,0,0,1,249,40.3a2,2,0,0,1,1.82,1.07V36.9h.79v8.21h-.79l0-1A2,2,0,0,1,249,45.2,2.33,2.33,0,0,1,246.71,42.74Zm4.13,0A1.63,1.63,0,0,0,249.16,41a1.76,1.76,0,0,0,0,3.51A1.65,1.65,0,0,0,250.84,42.74Z"/><path class="cls-13" d="M253,43.29V40.4h.79v2.81c0,.82.39,1.27,1.17,1.27A1.38,1.38,0,0,0,256.4,43V40.4h.8v4.71h-.8l0-1a1.79,1.79,0,0,1-1.69,1.06A1.73,1.73,0,0,1,253,43.29Z"/><path class="cls-13" d="M258.31,42.75a2.42,2.42,0,0,1,2.45-2.45,2.26,2.26,0,0,1,1.86.84l-.57.47a1.5,1.5,0,0,0-1.29-.61,1.76,1.76,0,0,0,0,3.51,1.68,1.68,0,0,0,1.36-.62l.55.47a2.32,2.32,0,0,1-1.91.84A2.41,2.41,0,0,1,258.31,42.75Z"/><path class="cls-13" d="M263.93,43.69V41.07h-.73V40.4h.73V38.79h.78V40.4H266v.67h-1.33V43.7c0,.62.22.82.56.82a.84.84,0,0,0,.68-.3l.38.54a1.51,1.51,0,0,1-1.14.45C264.47,45.21,263.93,44.8,263.93,43.69Z"/><path class="cls-13" d="M266.76,44.11l.61-.35a1.52,1.52,0,0,0,1.37.79c.64,0,1-.27,1-.7s-.41-.63-1.24-.87-1.42-.51-1.42-1.4.68-1.28,1.55-1.28a1.85,1.85,0,0,1,1.58.76l-.55.42a1.21,1.21,0,0,0-1-.53c-.51,0-.82.24-.82.6s.28.57,1.12.81,1.56.53,1.56,1.44-.54,1.4-1.72,1.4A2.17,2.17,0,0,1,266.76,44.11Z"/><path class="cls-14" d="M112.57,42.42a1.11,1.11,0,1,0,1.11-1.11A1.11,1.11,0,0,0,112.57,42.42Z"/><path class="cls-14" d="M196.89,42.42A1.11,1.11,0,1,0,198,41.31,1.11,1.11,0,0,0,196.89,42.42Z"/><path class="cls-15" d="M42.6,27.86v4.67H39.88V19.6h5.69a13.49,13.49,0,0,1,2.36.19,5.64,5.64,0,0,1,1.86.66A3.15,3.15,0,0,1,51,21.72a4.26,4.26,0,0,1,.44,2,4.31,4.31,0,0,1-.44,2A3.19,3.19,0,0,1,49.79,27a5.22,5.22,0,0,1-1.86.66,12.59,12.59,0,0,1-2.36.19Zm0-5.88v3.51h3A11,11,0,0,0,47,25.41a2.91,2.91,0,0,0,1-.29,1.28,1.28,0,0,0,.57-.53,2.12,2.12,0,0,0,0-1.71,1.3,1.3,0,0,0-.57-.54,3.17,3.17,0,0,0-1-.28A11,11,0,0,0,45.57,22Z"/><path class="cls-16" d="M55.93,32.48a4.6,4.6,0,0,1-1.63-.73,3.28,3.28,0,0,1-1.06-1.25,4.2,4.2,0,0,1-.37-1.82,3.71,3.71,0,0,1,.46-1.9,3.31,3.31,0,0,1,1.29-1.25,8.52,8.52,0,0,1,4.3-.9,16.9,16.9,0,0,1,1.84.09,7.67,7.67,0,0,1,1.62.33V23.52a1.38,1.38,0,0,0-.21-.76,1.54,1.54,0,0,0-.62-.52,6.09,6.09,0,0,0-2.49-.39,6.16,6.16,0,0,0-2.51.39,1.61,1.61,0,0,0-.62.52,1.46,1.46,0,0,0-.2.76H53a3.86,3.86,0,0,1,.46-1.91,3.6,3.6,0,0,1,1.29-1.25,8.68,8.68,0,0,1,4.31-.89,12.14,12.14,0,0,1,2.37.21,6.16,6.16,0,0,1,1.93.68,3.49,3.49,0,0,1,1.28,1.25,3.76,3.76,0,0,1,.47,1.91v9H62.39V31a3.87,3.87,0,0,1-.72.65,7.39,7.39,0,0,1-1,.56,6.65,6.65,0,0,1-1.24.4,6.46,6.46,0,0,1-1.37.15A9.12,9.12,0,0,1,55.93,32.48Zm4.94-5.38A16.53,16.53,0,0,0,58.92,27a5.92,5.92,0,0,0-2.5.4,1.61,1.61,0,0,0-.62.52,1.32,1.32,0,0,0-.21.75,1.49,1.49,0,0,0,.35,1,1.76,1.76,0,0,0,.8.49,4.3,4.3,0,0,0,.89.16h.63a5.36,5.36,0,0,0,1.33-.18,5.19,5.19,0,0,0,1.34-.56,3.28,3.28,0,0,0,1-.9,2.06,2.06,0,0,0,.42-1.24A5.39,5.39,0,0,0,60.87,27.1Z"/><path class="cls-17" d="M70.13,27.86v4.67H67.41V19.6H73.1a13.49,13.49,0,0,1,2.36.19,5.64,5.64,0,0,1,1.86.66,3.22,3.22,0,0,1,1.24,1.27,4.26,4.26,0,0,1,.44,2,4.31,4.31,0,0,1-.44,2A3.26,3.26,0,0,1,77.32,27a5.22,5.22,0,0,1-1.86.66,12.59,12.59,0,0,1-2.36.19Zm0-5.88v3.51h3a11,11,0,0,0,1.43-.08,2.91,2.91,0,0,0,1-.29,1.28,1.28,0,0,0,.57-.53,2.12,2.12,0,0,0,0-1.71,1.3,1.3,0,0,0-.57-.54,3.17,3.17,0,0,0-1-.28A11,11,0,0,0,73.1,22Z"/><path class="cls-18" d="M82,31a6.71,6.71,0,0,1-1.65-4.92,10.1,10.1,0,0,1,.36-2.86,5.3,5.3,0,0,1,1.13-2.07,4.75,4.75,0,0,1,2-1.26,8.5,8.5,0,0,1,2.87-.43,8.3,8.3,0,0,1,2.85.43,4.57,4.57,0,0,1,1.91,1.26,5.11,5.11,0,0,1,1.08,2.07,10.83,10.83,0,0,1,.34,2.86v.09a.41.41,0,0,0,0,.1,1.52,1.52,0,0,1,0,.19.18.18,0,0,1-.17.11H83.1a5.86,5.86,0,0,0,.26,1.63,3,3,0,0,0,.7,1.17,2.94,2.94,0,0,0,1.18.7A6,6,0,0,0,87,30.3a6.54,6.54,0,0,0,1.23-.11,3.32,3.32,0,0,0,1-.37,1.87,1.87,0,0,0,1-1.74H93a4.31,4.31,0,0,1-.57,2.21,4.42,4.42,0,0,1-2.37,1.9,8.62,8.62,0,0,1-3.06.49A6.71,6.71,0,0,1,82,31Zm8.14-6.8a4.63,4.63,0,0,0-.33-1,2.18,2.18,0,0,0-.6-.73,2.37,2.37,0,0,0-1-.45,6.74,6.74,0,0,0-1.54-.15,5.86,5.86,0,0,0-1.41.15,2.87,2.87,0,0,0-1,.45,2.21,2.21,0,0,0-.66.73,3.56,3.56,0,0,0-.36,1Z"/><path class="cls-19" d="M104.3,27.43l2.85,4.92h-2.92l-2.59-4.49H98v4.67H95.28V19.6H101a13.7,13.7,0,0,1,2.37.19,5.64,5.64,0,0,1,1.86.66,3.19,3.19,0,0,1,1.23,1.27,4.15,4.15,0,0,1,.44,2,4.19,4.19,0,0,1-.44,2A3.23,3.23,0,0,1,105.2,27,5,5,0,0,1,104.3,27.43ZM98,22v3.51h3a11.26,11.26,0,0,0,1.44-.08,2.85,2.85,0,0,0,1-.29,1.36,1.36,0,0,0,.58-.53,2.12,2.12,0,0,0,0-1.71,1.38,1.38,0,0,0-.58-.54,3.1,3.1,0,0,0-1-.28A11.26,11.26,0,0,0,101,22Z"/><path class="cls-20" d="M116.84,32.53,111.93,19.6h2.92l3.61,10.2,3.62-10.2H125l-4.9,12.93Z"/><path class="cls-21" d="M128.93,15.54a1.69,1.69,0,0,1,.51.34,1.85,1.85,0,0,1,.34.5,1.64,1.64,0,0,1,0,1.23,1.58,1.58,0,0,1-.34.5,1.39,1.39,0,0,1-.51.34,1.54,1.54,0,0,1-.61.12,1.58,1.58,0,0,1-.61-.12,1.47,1.47,0,0,1-.51-.34,1.43,1.43,0,0,1-.34-.5,1.64,1.64,0,0,1,0-1.23,1.64,1.64,0,0,1,.34-.5,1.82,1.82,0,0,1,.51-.34,1.58,1.58,0,0,1,.61-.12A1.54,1.54,0,0,1,128.93,15.54Zm-2,4.06h2.74V32.53H127Z"/><path class="cls-22" d="M133.68,31A6.71,6.71,0,0,1,132,26.07a10.1,10.1,0,0,1,.36-2.86,5.29,5.29,0,0,1,1.12-2.07,4.78,4.78,0,0,1,2-1.26,8.44,8.44,0,0,1,2.86-.43,8.3,8.3,0,0,1,2.85.43,4.6,4.6,0,0,1,1.92,1.26,5.36,5.36,0,0,1,1.08,2.07,10.86,10.86,0,0,1,.33,2.86v.19a.61.61,0,0,1,0,.19.16.16,0,0,1-.16.11h-9.55A6.22,6.22,0,0,0,135,28.2a3,3,0,0,0,.7,1.17,2.88,2.88,0,0,0,1.18.7,6,6,0,0,0,1.75.23,6.62,6.62,0,0,0,1.23-.11,3.32,3.32,0,0,0,1-.37,1.87,1.87,0,0,0,1-1.74h2.73a4.22,4.22,0,0,1-.58,2.21,4.35,4.35,0,0,1-2.37,1.9,8.52,8.52,0,0,1-3.05.49A6.7,6.7,0,0,1,133.68,31Zm8.14-6.8a4.14,4.14,0,0,0-.34-1,2,2,0,0,0-.59-.73,2.43,2.43,0,0,0-1-.45,6.77,6.77,0,0,0-1.55-.15,5.72,5.72,0,0,0-1.4.15,2.93,2.93,0,0,0-1,.45,2.29,2.29,0,0,0-.65.73,3.56,3.56,0,0,0-.36,1Z"/><path class="cls-23" d="M158,19.6v2.22h-7v6.81a2.25,2.25,0,0,0,.13.84,1.21,1.21,0,0,0,.41.51,1.65,1.65,0,0,0,.67.25,5.45,5.45,0,0,0,1.86,0,1.65,1.65,0,0,0,.67-.25,1.14,1.14,0,0,0,.41-.51,2.25,2.25,0,0,0,.13-.84H158a4.76,4.76,0,0,1-.33,1.86,3,3,0,0,1-.95,1.25,5.7,5.7,0,0,1-3.59.94,8,8,0,0,1-2.07-.23,4,4,0,0,1-1.52-.71,3,3,0,0,1-.95-1.25,4.76,4.76,0,0,1-.33-1.86V21.82H145.8V19.6Z"/><path class="cls-24" d="M160.07,19.6h2.72v1.62a5.55,5.55,0,0,1,4.53-1.77,6.76,6.76,0,0,1,2.56.43,3.91,3.91,0,0,1,1.65,1.26,5.32,5.32,0,0,1,.9,2.07,13,13,0,0,1,.27,2.86v6.46H170V26.07a15,15,0,0,0-.09-1.85,3.56,3.56,0,0,0-.39-1.32,1.78,1.78,0,0,0-.85-.8,3.45,3.45,0,0,0-1.47-.27,5.88,5.88,0,0,0-1.86.27,3.45,3.45,0,0,0-1.37.8,3.37,3.37,0,0,0-.86,1.32,5.53,5.53,0,0,0-.29,1.85v6.46h-2.72Z"/><path class="cls-25" d="M177.31,32.48a4.65,4.65,0,0,1-1.64-.73,3.37,3.37,0,0,1-1.06-1.25,4.35,4.35,0,0,1-.37-1.82,3.82,3.82,0,0,1,.46-1.9A3.45,3.45,0,0,1,176,25.53a8.56,8.56,0,0,1,4.31-.9,17,17,0,0,1,1.84.09,7.7,7.7,0,0,1,1.61.33V23.52a1.38,1.38,0,0,0-.21-.76,1.48,1.48,0,0,0-.62-.52,8.18,8.18,0,0,0-5,0,1.48,1.48,0,0,0-.62.52,1.38,1.38,0,0,0-.21.76h-2.73a3.76,3.76,0,0,1,.47-1.91,3.49,3.49,0,0,1,1.28-1.25,8.68,8.68,0,0,1,4.31-.89,12.25,12.25,0,0,1,2.38.21,6.19,6.19,0,0,1,1.92.68A3.49,3.49,0,0,1,186,21.61a3.66,3.66,0,0,1,.47,1.91v9h-2.72V31a3.79,3.79,0,0,1-.71.65,8.19,8.19,0,0,1-1,.56,6.65,6.65,0,0,1-1.24.4,6.46,6.46,0,0,1-1.37.15A9,9,0,0,1,177.31,32.48Zm4.93-5.38A16.46,16.46,0,0,0,180.3,27a6,6,0,0,0-2.51.4,1.61,1.61,0,0,0-.62.52,1.4,1.4,0,0,0-.2.75,1.49,1.49,0,0,0,.34,1,1.82,1.82,0,0,0,.8.49,4.43,4.43,0,0,0,.89.16h.63a5.3,5.3,0,0,0,1.33-.18,5.19,5.19,0,0,0,1.34-.56,3.44,3.44,0,0,0,1-.9,2.12,2.12,0,0,0,.41-1.24A5.3,5.3,0,0,0,182.24,27.1Z"/><path class="cls-26" d="M210.12,32.53h-2.73V26.07a13.5,13.5,0,0,0-.1-1.85,4,4,0,0,0-.39-1.32,1.87,1.87,0,0,0-.8-.8,2.76,2.76,0,0,0-1.3-.27,4.57,4.57,0,0,0-1.61.27,3.24,3.24,0,0,0-1.26.8,3.43,3.43,0,0,0-.82,1.32,5.32,5.32,0,0,0-.3,1.85v6.46h-2.73V26.07a13.5,13.5,0,0,0-.1-1.85,4,4,0,0,0-.39-1.32,1.91,1.91,0,0,0-.79-.8,2.83,2.83,0,0,0-1.31-.27,4.67,4.67,0,0,0-1.62.27,3.2,3.2,0,0,0-1.25.8,3.43,3.43,0,0,0-.82,1.32,5.32,5.32,0,0,0-.29,1.85v6.46h-2.73V19.6h2.73v1.6a4.28,4.28,0,0,1,1.74-1.31,6.15,6.15,0,0,1,2.4-.44,5.38,5.38,0,0,1,2.84.7,4.3,4.3,0,0,1,1.69,2.06A4.65,4.65,0,0,1,202,20.15a5.83,5.83,0,0,1,2.93-.7,5.72,5.72,0,0,1,2.32.43,4,4,0,0,1,1.61,1.26,5.81,5.81,0,0,1,.93,2.07,12.07,12.07,0,0,1,.3,2.86Z"/><path class="cls-27" d="M227.45,23.22a3.34,3.34,0,0,1-.29,1.42,3.93,3.93,0,0,1-.79,1.13,9.07,9.07,0,0,1-2.48,1.61l-.72.33-.35.16-.18.07-.18.08c-.6.26-1.05.47-1.35.62a8.47,8.47,0,0,0-1.14.66,3.31,3.31,0,0,0-.8.78h8.23v2.44H216.07V31.05a4.26,4.26,0,0,1,1.34-3.13A10.59,10.59,0,0,1,220.35,26l.8-.36.4-.17.09,0,.1,0,.19-.09c.61-.26,1.07-.47,1.38-.64a4.13,4.13,0,0,0,1-.68,1.14,1.14,0,0,0,.37-.8,1.52,1.52,0,0,0-.24-.86,1.5,1.5,0,0,0-.63-.52,4.9,4.9,0,0,0-2-.33,9.11,9.11,0,0,0-1.12.06,3.43,3.43,0,0,0-.93.27,1.56,1.56,0,0,0-.63.52,1.6,1.6,0,0,0-.23.86H216a4.23,4.23,0,0,1,.41-1.91A3.44,3.44,0,0,1,217.61,20a5.32,5.32,0,0,1,1.81-.73,10.18,10.18,0,0,1,2.32-.23,7.49,7.49,0,0,1,4.13,1A3.33,3.33,0,0,1,227,21.31,4.11,4.11,0,0,1,227.45,23.22Z"/><path class="cls-27" d="M233.56,32.24a4.87,4.87,0,0,1-2-1.3,5.49,5.49,0,0,1-1.18-2.13,10.26,10.26,0,0,1-.37-2.94,10.31,10.31,0,0,1,.37-2.94,5.6,5.6,0,0,1,1.18-2.14,5,5,0,0,1,2-1.3,9.12,9.12,0,0,1,3-.43,9,9,0,0,1,3,.43,4.88,4.88,0,0,1,2,1.3,5.22,5.22,0,0,1,1.17,2.14,10.29,10.29,0,0,1,.38,2.94,10.24,10.24,0,0,1-.38,2.94,5.12,5.12,0,0,1-1.17,2.13,4.78,4.78,0,0,1-2,1.3,8.73,8.73,0,0,1-3,.45A8.84,8.84,0,0,1,233.56,32.24Zm1.12-10.46a2.47,2.47,0,0,0-1.14.82A3.39,3.39,0,0,0,233,24a9.33,9.33,0,0,0-.16,1.91,8.63,8.63,0,0,0,.17,1.9,3.35,3.35,0,0,0,.61,1.36,2.58,2.58,0,0,0,1.15.83,6.13,6.13,0,0,0,3.6,0,2.61,2.61,0,0,0,1.16-.83,3.35,3.35,0,0,0,.6-1.36,8.57,8.57,0,0,0,.18-1.9,9.33,9.33,0,0,0-.16-1.91,3.4,3.4,0,0,0-.59-1.36,2.53,2.53,0,0,0-1.14-.82,6.47,6.47,0,0,0-3.7,0Z"/><path class="cls-27" d="M257,23.22a3.5,3.5,0,0,1-.29,1.42,4.18,4.18,0,0,1-.8,1.13,9.07,9.07,0,0,1-2.48,1.61l-.72.33-.35.16-.18.07L252,28c-.6.26-1,.47-1.34.62a8.65,8.65,0,0,0-1.15.66,3.25,3.25,0,0,0-.79.78h8.23v2.44H245.56V31.05a4.3,4.3,0,0,1,1.34-3.13A10.82,10.82,0,0,1,249.85,26l.8-.36.39-.17.09,0,.11,0,.18-.09c.61-.26,1.07-.47,1.38-.64a3.93,3.93,0,0,0,1-.68,1.11,1.11,0,0,0,.37-.8,1.6,1.6,0,0,0-.23-.86,1.5,1.5,0,0,0-.63-.52,5,5,0,0,0-2.05-.33,9.11,9.11,0,0,0-1.12.06,3.43,3.43,0,0,0-.93.27,1.41,1.41,0,0,0-.85,1.38h-2.81a4.11,4.11,0,0,1,.42-1.91A3.28,3.28,0,0,1,247.11,20a5.24,5.24,0,0,1,1.81-.73,10,10,0,0,1,2.31-.23,7.46,7.46,0,0,1,4.13,1,3.44,3.44,0,0,1,1.17,1.29A4.11,4.11,0,0,1,257,23.22Z"/><path class="cls-27" d="M269.48,19.21v8.42h1.61v2.45h-1.61v2.44h-2.8V30.08h-7.55v-2l6-8.87Zm-7.13,8.42h4.33V21.52Z"/></g></g></g></g></svg>