<svg xmlns="http://www.w3.org/2000/svg" viewBox="0 0 160.38 17.42"><defs><style>.cls-1{fill:#1172ba;}.cls-2{fill:#fff;}</style></defs><g id="Layer_2" data-name="Layer 2"><g id="Layer_1-2" data-name="Layer 1"><g id="số_đth" data-name="số đth"><path class="cls-1" d="M25.75,17.42a18.14,18.14,0,0,1-1.11-3.52A20.46,20.46,0,0,1,24.29,10a19.11,19.11,0,0,1,.11-2,18.36,18.36,0,0,1,.31-2,18.68,18.68,0,0,1,.5-1.89,15.37,15.37,0,0,1,.65-1.74l1.14.5a15.82,15.82,0,0,0-.61,1.58,16.18,16.18,0,0,0-.45,1.76c-.12.61-.22,1.23-.28,1.86a17.09,17.09,0,0,0-.1,1.89c0,.65,0,1.27.07,1.86a13.86,13.86,0,0,0,.25,1.73,16.31,16.31,0,0,0,.42,1.67,13.82,13.82,0,0,0,.6,1.66Z"/><path class="cls-1" d="M29.67,10.07V8.89h2.82V6.08h1.19V8.89H36.5v1.18H33.68v2.81H32.49V10.07Z"/><path class="cls-1" d="M43.05,15.17a3.65,3.65,0,0,1-2.61-1.05,3.51,3.51,0,0,1-1.06-2.55,3.29,3.29,0,0,1,.14-.94,3.4,3.4,0,0,1,1-1.57,2.65,2.65,0,0,1,.78-.48,2.46,2.46,0,0,1-1.26-2.15,2.77,2.77,0,0,1,.86-2,2.93,2.93,0,0,1,1-.61,3.15,3.15,0,0,1,1.16-.22,3.3,3.3,0,0,1,1.18.22,3,3,0,0,1,1,.61,2.77,2.77,0,0,1,.86,2,2.52,2.52,0,0,1-.34,1.25,2.37,2.37,0,0,1-.93.9,2.75,2.75,0,0,1,.8.48,3.23,3.23,0,0,1,.62.71,3.59,3.59,0,0,1,.41.86,3,3,0,0,1,.15.94A3.36,3.36,0,0,1,46.46,13a3.5,3.5,0,0,1-.78,1.14,3.61,3.61,0,0,1-1.17.77A3.76,3.76,0,0,1,43.05,15.17Zm0-1.15a2.32,2.32,0,0,0,1-.19,2.43,2.43,0,0,0,.77-.52,2.31,2.31,0,0,0,.51-.76,2.51,2.51,0,0,0,.18-1,2.32,2.32,0,0,0-.19-.94,2.48,2.48,0,0,0-.51-.76A2.72,2.72,0,0,0,44,9.39a2.51,2.51,0,0,0-1-.18,2.46,2.46,0,0,0-.94.18,2.58,2.58,0,0,0-.77.51,2.67,2.67,0,0,0-.51.76,2.5,2.5,0,0,0-.19.94,2.34,2.34,0,0,0,.19,1,2.31,2.31,0,0,0,.51.76,2.43,2.43,0,0,0,.77.52A2.29,2.29,0,0,0,43.05,14Zm0-5.94A1.68,1.68,0,0,0,43.73,8a1.53,1.53,0,0,0,.54-.35,2,2,0,0,0,.36-.54,1.85,1.85,0,0,0,.13-.66,1.64,1.64,0,0,0-.49-1.2,1.66,1.66,0,0,0-.54-.34,1.68,1.68,0,0,0-.68-.13,1.62,1.62,0,0,0-1.2.47,1.57,1.57,0,0,0-.49,1.2,1.65,1.65,0,0,0,.13.66,1.76,1.76,0,0,0,.36.54,1.53,1.53,0,0,0,.54.35A1.65,1.65,0,0,0,43.05,8.08Z"/><path class="cls-1" d="M53.23,15V13H47.9l4.6-9.43,1.08.49L49.82,11.8h3.41V9.45h1.25V11.8h1.07V13H54.48v2Z"/><path class="cls-1" d="M57,16.93c.23-.55.43-1.11.6-1.66A16.31,16.31,0,0,0,58,13.6c.11-.56.19-1.14.25-1.73s.07-1.21.07-1.86a17.09,17.09,0,0,0-.1-1.89c-.06-.63-.16-1.25-.28-1.86a14.18,14.18,0,0,0-.46-1.76,12.1,12.1,0,0,0-.62-1.58L58,2.42a13.68,13.68,0,0,1,.66,1.74,18.7,18.7,0,0,1,.51,1.89c.13.65.24,1.3.31,2a19.11,19.11,0,0,1,.11,2,20.46,20.46,0,0,1-.35,3.89,17.52,17.52,0,0,1-1.12,3.52Z"/><path class="cls-1" d="M65.85,15l3-3.7c.47-.58.87-1.09,1.19-1.53s.57-.84.77-1.18a4.86,4.86,0,0,0,.41-.95,2.82,2.82,0,0,0,.13-.84,2.1,2.1,0,0,0-.52-1.5,1.86,1.86,0,0,0-1.43-.55,2.42,2.42,0,0,0-2.21,1.37l-1.09-.61a4.3,4.3,0,0,1,1.41-1.46,3.63,3.63,0,0,1,1.89-.5,3.49,3.49,0,0,1,1.32.24,2.9,2.9,0,0,1,1.68,1.68,3.79,3.79,0,0,1,.23,1.33,3.94,3.94,0,0,1-.13.94,5.62,5.62,0,0,1-.43,1,11.53,11.53,0,0,1-.8,1.29c-.33.47-.76,1-1.26,1.65l-1.7,2.08h4.61V15Z"/><path class="cls-1" d="M78.45,15.17a3.7,3.7,0,0,1-2.61-1.05,3.51,3.51,0,0,1-1.06-2.55,3.33,3.33,0,0,1,.56-1.8A3.23,3.23,0,0,1,76,9.06a2.58,2.58,0,0,1,.79-.48,2.37,2.37,0,0,1-.93-.9,2.52,2.52,0,0,1-.34-1.25,2.77,2.77,0,0,1,.86-2,3,3,0,0,1,1-.61,3.19,3.19,0,0,1,1.16-.22,3.3,3.3,0,0,1,1.18.22,3,3,0,0,1,1,.61,2.77,2.77,0,0,1,.86,2,2.46,2.46,0,0,1-1.26,2.15,2.84,2.84,0,0,1,.79.48,3.48,3.48,0,0,1,1,1.57,2.73,2.73,0,0,1,.16.94A3.52,3.52,0,0,1,81.87,13a3.69,3.69,0,0,1-.79,1.14,3.61,3.61,0,0,1-1.17.77A3.72,3.72,0,0,1,78.45,15.17Zm0-1.15a2.32,2.32,0,0,0,1-.19,2.43,2.43,0,0,0,.77-.52,2.31,2.31,0,0,0,.51-.76,2.34,2.34,0,0,0,.19-1,2.36,2.36,0,0,0-.71-1.7,2.72,2.72,0,0,0-.77-.51,2.51,2.51,0,0,0-1-.18,2.46,2.46,0,0,0-.94.18,2.42,2.42,0,0,0-.76.51,2.41,2.41,0,0,0-.7,1.7,2.51,2.51,0,0,0,.18,1,2.31,2.31,0,0,0,.51.76,2.43,2.43,0,0,0,.77.52A2.29,2.29,0,0,0,78.45,14Zm0-5.94A1.68,1.68,0,0,0,79.13,8a1.53,1.53,0,0,0,.54-.35A2,2,0,0,0,80,7.06a1.65,1.65,0,0,0,.13-.66A1.6,1.6,0,0,0,80,5.73a1.77,1.77,0,0,0-.36-.53,1.66,1.66,0,0,0-.54-.34,1.68,1.68,0,0,0-.68-.13,1.64,1.64,0,0,0-1.2.47,1.57,1.57,0,0,0-.49,1.2,1.65,1.65,0,0,0,.13.66,2,2,0,0,0,.36.54,1.53,1.53,0,0,0,.54.35A1.65,1.65,0,0,0,78.45,8.08Z"/><path class="cls-1" d="M91.88,15.16a4.35,4.35,0,0,1-3.51-1.52l.93-.82a3.38,3.38,0,0,0,1.12.87,3.33,3.33,0,0,0,1.4.27,2.94,2.94,0,0,0,1-.19,2.58,2.58,0,0,0,.82-.53,2.5,2.5,0,0,0,.54-.81,2.54,2.54,0,0,0,.2-1,2.31,2.31,0,0,0-1-2,5.89,5.89,0,0,0-2.95-.79l2.6-3.73H88.72V3.72h6.59L92.49,7.81a4.55,4.55,0,0,1,2.38,1.33,3.39,3.39,0,0,1,.8,2.3,3.5,3.5,0,0,1-.29,1.44,3.72,3.72,0,0,1-.79,1.17,3.83,3.83,0,0,1-1.19.8A4.2,4.2,0,0,1,91.88,15.16Z"/><path class="cls-1" d="M101.1,15.17a3.67,3.67,0,0,1-1.45-.28,3.56,3.56,0,0,1-1.16-.77,3.51,3.51,0,0,1-1.06-2.55,3,3,0,0,1,.14-.94A3.25,3.25,0,0,1,98,9.77a3.56,3.56,0,0,1,.63-.71,2.65,2.65,0,0,1,.78-.48,2.46,2.46,0,0,1-1.26-2.15,2.66,2.66,0,0,1,.23-1.13A2.82,2.82,0,0,1,99,4.4a3,3,0,0,1,.94-.61,3.22,3.22,0,0,1,2.34,0,2.86,2.86,0,0,1,1.59,1.51,2.82,2.82,0,0,1,.23,1.13,2.43,2.43,0,0,1-.35,1.25,2.34,2.34,0,0,1-.92.9,2.58,2.58,0,0,1,.79.48,3,3,0,0,1,.63.71,3.59,3.59,0,0,1,.41.86,3,3,0,0,1,.15.94,3.36,3.36,0,0,1-.29,1.41,3.5,3.5,0,0,1-.78,1.14,3.55,3.55,0,0,1-1.18.77A3.67,3.67,0,0,1,101.1,15.17Zm0-1.15a2.38,2.38,0,0,0,1-.19,2.55,2.55,0,0,0,.77-.52,2.31,2.31,0,0,0,.51-.76,2.51,2.51,0,0,0,.18-1,2.32,2.32,0,0,0-.19-.94,2.51,2.51,0,0,0-.52-.76,2.39,2.39,0,0,0-1.71-.69,2.51,2.51,0,0,0-.95.18,2.37,2.37,0,0,0-1.27,1.27,2.32,2.32,0,0,0-.19.94,2.51,2.51,0,0,0,.18,1,2.67,2.67,0,0,0,.51.76,2.55,2.55,0,0,0,.77.52A2.34,2.34,0,0,0,101.1,14Zm0-5.94a1.72,1.72,0,0,0,.68-.13,1.53,1.53,0,0,0,.54-.35,2,2,0,0,0,.36-.54,1.85,1.85,0,0,0,.13-.66,1.64,1.64,0,0,0-.49-1.2,1.66,1.66,0,0,0-.54-.34,1.72,1.72,0,0,0-.68-.13,1.62,1.62,0,0,0-1.2.47,1.57,1.57,0,0,0-.49,1.2,1.65,1.65,0,0,0,.13.66,1.6,1.6,0,0,0,.36.54,1.53,1.53,0,0,0,.54.35A1.62,1.62,0,0,0,101.1,8.08Z"/><path class="cls-1" d="M111.28,15V13H106l4.6-9.43,1.08.49-3.76,7.74h3.41V9.45h1.25V11.8h1.07V13h-1.07v2Z"/><path class="cls-1" d="M118.84,15.17a3.67,3.67,0,0,1-1.45-.28,3.61,3.61,0,0,1-1.17-.77,3.48,3.48,0,0,1-.77-1.14,3.51,3.51,0,0,1-.28-1.41,3,3,0,0,1,.14-.94,3.25,3.25,0,0,1,.41-.86,3.56,3.56,0,0,1,.63-.71,2.65,2.65,0,0,1,.78-.48,2.46,2.46,0,0,1-1.26-2.15,2.66,2.66,0,0,1,.23-1.13,2.82,2.82,0,0,1,.63-.9,3,3,0,0,1,.94-.61,3.2,3.2,0,0,1,1.17-.22,3.24,3.24,0,0,1,1.17.22,2.82,2.82,0,0,1,.95.61,3,3,0,0,1,.64.9,2.82,2.82,0,0,1,.23,1.13,2.43,2.43,0,0,1-.35,1.25,2.34,2.34,0,0,1-.92.9,2.7,2.7,0,0,1,.79.48,3,3,0,0,1,.63.71,3.59,3.59,0,0,1,.41.86,3,3,0,0,1,.15.94,3.36,3.36,0,0,1-.29,1.41,3.5,3.5,0,0,1-.78,1.14,3.55,3.55,0,0,1-1.18.77A3.67,3.67,0,0,1,118.84,15.17Zm0-1.15a2.38,2.38,0,0,0,1-.19,2.55,2.55,0,0,0,.77-.52,2.31,2.31,0,0,0,.51-.76,2.51,2.51,0,0,0,.18-1,2.32,2.32,0,0,0-.19-.94,2.51,2.51,0,0,0-.52-.76,2.58,2.58,0,0,0-.77-.51,2.46,2.46,0,0,0-.94-.18,2.51,2.51,0,0,0-1,.18,2.54,2.54,0,0,0-.76.51,2.67,2.67,0,0,0-.51.76,2.32,2.32,0,0,0-.19.94,2.51,2.51,0,0,0,.18,1,2.67,2.67,0,0,0,.51.76,2.55,2.55,0,0,0,.77.52A2.34,2.34,0,0,0,118.84,14Zm0-5.94a1.72,1.72,0,0,0,.68-.13,1.62,1.62,0,0,0,.54-.35,2,2,0,0,0,.36-.54,1.85,1.85,0,0,0,.13-.66,1.64,1.64,0,0,0-.49-1.2,1.77,1.77,0,0,0-.54-.34,1.72,1.72,0,0,0-.68-.13,1.66,1.66,0,0,0-1.21.47,1.6,1.6,0,0,0-.48,1.2,1.65,1.65,0,0,0,.13.66,1.73,1.73,0,0,0,.35.54,1.67,1.67,0,0,0,.55.35A1.59,1.59,0,0,0,118.84,8.08Z"/><path class="cls-1" d="M133.19,15.17a3.7,3.7,0,0,1-2.61-1.05,3.51,3.51,0,0,1-1.06-2.55,3.33,3.33,0,0,1,.56-1.8,3.51,3.51,0,0,1,.62-.71,2.58,2.58,0,0,1,.79-.48,2.28,2.28,0,0,1-.92-.9,2.43,2.43,0,0,1-.35-1.25,2.77,2.77,0,0,1,.86-2,3,3,0,0,1,.95-.61,3.19,3.19,0,0,1,1.16-.22,3.3,3.3,0,0,1,1.18.22,3,3,0,0,1,.95.61,2.77,2.77,0,0,1,.86,2,2.46,2.46,0,0,1-1.26,2.15,2.84,2.84,0,0,1,.79.48,3.48,3.48,0,0,1,1,1.57,2.73,2.73,0,0,1,.16.94,3.52,3.52,0,0,1-.29,1.41,3.69,3.69,0,0,1-.79,1.14,3.61,3.61,0,0,1-1.17.77A3.72,3.72,0,0,1,133.19,15.17Zm0-1.15a2.32,2.32,0,0,0,1-.19,2.43,2.43,0,0,0,.77-.52,2.31,2.31,0,0,0,.51-.76,2.34,2.34,0,0,0,.19-1,2.36,2.36,0,0,0-.71-1.7,2.72,2.72,0,0,0-.77-.51,2.51,2.51,0,0,0-.95-.18,2.46,2.46,0,0,0-.94.18,2.42,2.42,0,0,0-.76.51,2.41,2.41,0,0,0-.7,1.7,2.51,2.51,0,0,0,.18,1,2.31,2.31,0,0,0,.51.76,2.43,2.43,0,0,0,.77.52A2.29,2.29,0,0,0,133.19,14Zm0-5.94a1.68,1.68,0,0,0,.68-.13,1.53,1.53,0,0,0,.54-.35,1.76,1.76,0,0,0,.36-.54,1.65,1.65,0,0,0,.13-.66,1.64,1.64,0,0,0-.49-1.2,1.66,1.66,0,0,0-.54-.34,1.68,1.68,0,0,0-.68-.13,1.65,1.65,0,0,0-1.2.47,1.57,1.57,0,0,0-.49,1.2,1.85,1.85,0,0,0,.13.66,2,2,0,0,0,.36.54,1.53,1.53,0,0,0,.54.35A1.65,1.65,0,0,0,133.19,8.08Z"/><path class="cls-1" d="M142.26,15.16a4.29,4.29,0,0,1-3.56-1.61l.92-.82a3.55,3.55,0,0,0,1.16.93,3.26,3.26,0,0,0,1.45.3,2.89,2.89,0,0,0,1.11-.21,2.48,2.48,0,0,0,.88-.57,2.62,2.62,0,0,0,.58-.85,2.78,2.78,0,0,0,.2-1.09,2.56,2.56,0,0,0-.73-1.94,2.7,2.7,0,0,0-2-.72,3.91,3.91,0,0,0-1.66.38A4.25,4.25,0,0,0,139.23,10V3.72h6.08V4.91h-4.86v3a2.73,2.73,0,0,1,.84-.4,3.64,3.64,0,0,1,1-.14,4.55,4.55,0,0,1,1.64.28,3.7,3.7,0,0,1,1.26.79A3.47,3.47,0,0,1,146,9.67a4.3,4.3,0,0,1,.28,1.6,3.94,3.94,0,0,1-.3,1.56,3.52,3.52,0,0,1-.83,1.23,3.64,3.64,0,0,1-1.27.81A4.43,4.43,0,0,1,142.26,15.16Z"/><path class="cls-1" d="M152.37,3.57l1,.72-2.53,3.38a2.85,2.85,0,0,1,.48-.13,4.24,4.24,0,0,1,.51,0,3.57,3.57,0,0,1,1.4.28,4,4,0,0,1,1.18.79,3.8,3.8,0,0,1,.81,1.19,3.63,3.63,0,0,1,.3,1.48,4,4,0,0,1-.3,1.54,3.92,3.92,0,0,1-5.11,2.08,3.87,3.87,0,0,1-2-2.08,4,4,0,0,1-.3-1.54,3.76,3.76,0,0,1,.32-1.47A7.91,7.91,0,0,1,149,8.23Zm-.72,5.09a2.45,2.45,0,0,0-1,.21,2.67,2.67,0,0,0-.83.57,2.63,2.63,0,0,0-.54.84,2.48,2.48,0,0,0-.2,1,2.62,2.62,0,0,0,.2,1,2.52,2.52,0,0,0,1.37,1.42,2.61,2.61,0,0,0,1,.2,2.52,2.52,0,0,0,1.85-.77,2.73,2.73,0,0,0,.56-.85,2.8,2.8,0,0,0,.2-1,2.56,2.56,0,0,0-.21-1,2.47,2.47,0,0,0-.56-.84,2.52,2.52,0,0,0-.82-.57A2.65,2.65,0,0,0,151.65,8.66Z"/><path class="cls-1" d="M159.13,15V5.33l-2.38.94-.5-1.07,4.13-1.64V15Z"/><ellipse class="cls-1" cx="8.48" cy="8.45" rx="8.48" ry="8.45"/><path class="cls-2" d="M9.24,5a4,4,0,0,1,3,1.69A3.61,3.61,0,0,1,12.7,9.9a.23.23,0,0,0,.43.14,4,4,0,0,0-.54-3.62A4.53,4.53,0,0,0,9.28,4.54.22.22,0,0,0,9,4.73.23.23,0,0,0,9.24,5Z"/><path class="cls-2" d="M9,6.07A2.94,2.94,0,0,1,11.19,7.3a2.61,2.61,0,0,1,.32,2.43.21.21,0,0,0,.14.27.22.22,0,0,0,.29-.12,3,3,0,0,0-.38-2.82A3.35,3.35,0,0,0,9,5.64a.22.22,0,0,0-.24.2A.23.23,0,0,0,9,6.07Z"/><path class="cls-2" d="M12.54,11.75a26.46,26.46,0,0,0-2-2.21.5.5,0,0,0-.66-.11s-.28.19-.46.34a15.67,15.67,0,0,0,2.76,2.87l.17-.19C12.62,12.14,12.65,12,12.54,11.75Z"/><path class="cls-2" d="M7.8,6.44a.42.42,0,0,0,.14-.59A23.29,23.29,0,0,0,6.6,3.32c-.2-.19-.33-.21-.73-.1l-.24.07A14.62,14.62,0,0,0,7.3,6.71C7.51,6.61,7.8,6.44,7.8,6.44Z"/><path class="cls-2" d="M9,9.9a4.55,4.55,0,0,1-1.2-1.3A4.3,4.3,0,0,1,7,7.05a.37.37,0,0,1,.09-.23A15.35,15.35,0,0,1,5.35,3.29c-.38.12-.8.25-1,.34A1.35,1.35,0,0,0,3.7,4.72C3.65,5.07,4,7,5.93,9.77s3.69,3.81,4.05,3.9a1.48,1.48,0,0,0,1.31-.14c.16-.14.46-.45.73-.74A15.48,15.48,0,0,1,9.25,9.91.47.47,0,0,1,9,9.9Z"/></g></g></g></svg>